<svg width="30" height="30" viewBox="0 0 30 30" fill="none" xmlns="http://www.w3.org/2000/svg">
<path d="M3.78027 3.9601V25.2601C3.78027 26.2801 4.56027 27.0601 5.58027 27.0601H5.88027V27.6001C5.88027 28.6201 6.72027 29.4001 7.68027 29.4001H24.3003C25.3203 29.4001 26.1003 28.5601 26.1003 27.6001V6.7801C26.1003 5.7601 25.2603 4.9801 24.3003 4.9801H24.0003V3.9601C24.0003 2.9401 23.2203 2.1601 22.2003 2.1601H21.6003V1.2001C21.6003 0.840098 21.3603 0.600098 21.0003 0.600098C20.6403 0.600098 20.4003 0.840098 20.4003 1.2001V2.1601H18.0603V1.2001C18.0603 0.840098 17.8203 0.600098 17.4603 0.600098C17.1003 0.600098 16.8603 0.840098 16.8603 1.2001V2.1601H14.5203V1.2001C14.5203 0.840098 14.2803 0.600098 13.9203 0.600098C13.5603 0.600098 13.3203 0.840098 13.3203 1.2001V2.1601H10.9803V1.2001C10.9803 0.840098 10.7403 0.600098 10.3803 0.600098C10.0203 0.600098 9.78027 0.840098 9.78027 1.2001V2.1601H7.44027V1.2001C7.44027 0.840098 7.20027 0.600098 6.84027 0.600098C6.48027 0.600098 6.24027 0.840098 6.24027 1.2001V2.1601H5.58027C4.62027 2.1601 3.78027 3.0001 3.78027 3.9601ZM24.3603 6.1801C24.7203 6.1801 24.9603 6.4801 24.9603 6.7801V27.6001C24.9603 27.9601 24.6603 28.2001 24.3603 28.2001H7.74027C7.38027 28.2001 7.14027 27.9001 7.14027 27.6001V27.1201H22.3203C23.3403 27.1201 24.1203 26.3401 24.1203 25.3201V6.1801H24.3603ZM4.98027 3.9601C4.98027 3.6001 5.22027 3.3601 5.58027 3.3601H6.24027V4.3201C6.24027 4.6801 6.48027 4.9201 6.84027 4.9201C7.20027 4.9201 7.44027 4.6801 7.44027 4.3201V3.3601H9.78027V4.3201C9.78027 4.6801 10.0203 4.9201 10.3803 4.9201C10.7403 4.9201 10.9803 4.6801 10.9803 4.3201V3.3601H13.3203V4.3201C13.3203 4.6801 13.5603 4.9201 13.9203 4.9201C14.2803 4.9201 14.5203 4.6801 14.5203 4.3201V3.3601H16.8603V4.3201C16.8603 4.6801 17.1003 4.9201 17.4603 4.9201C17.8203 4.9201 18.0603 4.6801 18.0603 4.3201V3.3601H20.4003V4.3201C20.4003 4.6801 20.6403 4.9201 21.0003 4.9201C21.3603 4.9201 21.6003 4.6801 21.6003 4.3201V3.3601H22.2603C22.6203 3.3601 22.8603 3.6001 22.8603 3.9601V25.2601C22.8603 25.6201 22.6203 25.8601 22.2603 25.8601H5.58027C5.22027 25.8601 4.98027 25.6201 4.98027 25.2601V3.9601Z" fill="#F2B705"/>
<path d="M8.88027 9.5999H18.9603C19.3203 9.5999 19.5603 9.3599 19.5603 8.9999C19.5603 8.6399 19.3203 8.3999 18.9603 8.3999H8.88027C8.52027 8.3999 8.28027 8.6399 8.28027 8.9999C8.28027 9.3599 8.58027 9.5999 8.88027 9.5999ZM8.88027 12.7199H18.9603C19.3203 12.7199 19.5603 12.4799 19.5603 12.1199C19.5603 11.7599 19.3203 11.5199 18.9603 11.5199H8.88027C8.52027 11.5199 8.28027 11.7599 8.28027 12.1199C8.28027 12.4799 8.58027 12.7199 8.88027 12.7199ZM8.88027 15.8399H18.9603C19.3203 15.8399 19.5603 15.5999 19.5603 15.2399C19.5603 14.8799 19.3203 14.6399 18.9603 14.6399H8.88027C8.52027 14.6399 8.28027 14.8799 8.28027 15.2399C8.28027 15.5999 8.58027 15.8399 8.88027 15.8399ZM8.88027 18.9599H18.9603C19.3203 18.9599 19.5603 18.7199 19.5603 18.3599C19.5603 17.9999 19.3203 17.7599 18.9603 17.7599H8.88027C8.52027 17.7599 8.28027 17.9999 8.28027 18.3599C8.28027 18.7199 8.58027 18.9599 8.88027 18.9599ZM8.88027 22.0799H14.7003C15.0603 22.0799 15.3003 21.8399 15.3003 21.4799C15.3003 21.1199 15.0603 20.8799 14.7003 20.8799H8.88027C8.52027 20.8799 8.28027 21.1199 8.28027 21.4799C8.28027 21.8399 8.58027 22.0799 8.88027 22.0799Z" fill="#F2B705"/>
</svg>
