<svg width="56" height="55" viewBox="0 0 56 55" fill="none" xmlns="http://www.w3.org/2000/svg">
<rect width="56" height="55" rx="27.5" fill="#FFEB68"/>
<path d="M15.3333 27.6795C15.3333 33.5675 19.6423 38.8205 25.51 40.0522C28.4418 40.6675 31.5595 40.253 34.2127 38.8801C36.7655 37.5588 38.8293 35.3926 39.9987 32.801C41.2153 30.1052 41.4274 27.0103 40.5976 24.1769C39.7975 21.4434 38.0412 19.0197 35.6837 17.3696C30.755 13.9195 23.8322 14.3808 19.4155 18.4398C16.8269 20.8184 15.3333 24.1975 15.3333 27.6795ZM22.0438 26.9962L25.6413 23.4632C26.5389 22.5813 27.9318 23.949 27.0335 24.831L25.2264 26.6055H33.5819C34.1779 26.6055 34.6755 27.0945 34.6755 27.6799C34.6755 28.2652 34.1779 28.7542 33.5819 28.7542H25.1847L26.9564 30.5365C27.8422 31.4268 26.4368 32.782 25.5474 31.8874L22.0356 28.3552C21.8545 28.1732 21.7538 27.9284 21.7554 27.674C21.7569 27.4196 21.8605 27.176 22.0438 26.9962Z" fill="#C9A5FF"/>
</svg>
