<svg width="45" height="44" viewBox="0 0 45 44" fill="none" xmlns="http://www.w3.org/2000/svg">
<rect width="45" height="44" rx="22" fill="#1E1E1E" fill-opacity="0.73"/>
<path d="M12.3223 22.1436C12.3223 26.854 15.7849 31.0563 20.5 32.0417C22.856 32.534 25.3612 32.2023 27.4933 31.104C29.5446 30.047 31.203 28.3141 32.1427 26.2407C33.1204 24.0841 33.2907 21.6082 32.624 19.3415C31.981 17.1547 30.5698 15.2157 28.6753 13.8956C24.7148 11.1356 19.1518 11.5046 15.6026 14.7518C13.5225 16.6547 12.3223 19.358 12.3223 22.1436ZM17.7146 21.5969L20.6055 18.7705C21.3268 18.065 22.4461 19.1592 21.7243 19.8647L20.2721 21.2843H26.9864C27.4653 21.2843 27.8651 21.6755 27.8651 22.1438C27.8651 22.6121 27.4653 23.0033 26.9864 23.0033H20.2386L21.6623 24.4291C22.3741 25.1414 21.2448 26.2255 20.5301 25.5099L17.7081 22.6841C17.5626 22.5385 17.4816 22.3427 17.4829 22.1392C17.4841 21.9356 17.5674 21.7408 17.7146 21.5969Z" fill="#C9A5FF"/>
</svg>
