<svg width="95" height="95" viewBox="0 0 95 95" fill="none" xmlns="http://www.w3.org/2000/svg">
<circle cx="47.5" cy="47.5" r="47" fill="#6F4941" stroke="white"/>
<g clip-path="url(#clip0_1804_3925)">
<path d="M75.2467 47.6971L40.0984 27.5894C39.7595 27.3966 39.3766 27.2945 38.9867 27.293C38.5968 27.2915 38.2131 27.3907 37.8728 27.5809C37.5348 27.767 37.2522 28.0394 37.0538 28.3702C36.8553 28.701 36.7481 29.0786 36.7429 29.4643L36.5376 69.3376V69.3461C36.5376 70.1165 36.9655 70.8356 37.6418 71.2294C37.9863 71.425 38.3755 71.5282 38.7717 71.5292C39.1588 71.5301 39.5395 71.4298 39.8759 71.2382L75.2295 51.4811C75.923 51.0873 76.3509 50.3769 76.3509 49.5893V49.5808C76.3509 48.8101 75.9315 48.0909 75.2467 47.6971Z" fill="#F2B705"/>
<path d="M51.8118 33.0303C52.8347 32.0074 52.6053 30.2918 51.3495 29.5736L49.0717 28.27C48.6536 28.031 48.1686 27.9361 47.6913 27.9998C47.214 28.0635 46.7709 28.2823 46.4301 28.6225C45.4071 29.6455 45.6366 31.361 46.8923 32.0792L49.1711 33.3822C49.5889 33.6216 50.0738 33.7168 50.551 33.6532C51.0282 33.5896 51.4713 33.3707 51.8118 33.0303Z" fill="#0A66C2"/>
<path d="M68.5352 39.4045L57.7975 33.2618C57.3796 33.0228 56.8947 32.9279 56.4176 32.9916C55.9404 33.0553 55.4974 33.2741 55.1568 33.6143C54.1339 34.6373 54.3633 36.3519 55.6191 37.0701L62.9629 41.2707L34.303 57.2866L34.4656 24.9719L40.4576 28.3986C40.8715 28.6353 41.3518 28.7293 41.8244 28.6661C42.297 28.6028 42.7356 28.3858 43.0727 28.0485L43.1052 28.016C44.1178 27.0034 43.8909 25.305 42.6479 24.5937L33.387 19.2964C33.0481 19.1036 32.6652 19.0015 32.2753 19C31.8854 18.9985 31.5017 19.0977 31.1614 19.288C30.8234 19.4741 30.5408 19.7464 30.3423 20.0772C30.1439 20.4081 30.0366 20.7856 30.0315 21.1714L29.8262 61.0446V61.0531C29.8262 61.8235 30.254 62.5427 30.9304 62.9365C31.2749 63.132 31.6641 63.2352 32.0602 63.2362C32.4474 63.2372 32.8281 63.1369 33.1644 62.9452L68.5181 43.1881C69.2116 42.7943 69.6395 42.0839 69.6395 41.2963V41.2879C69.6395 40.5171 69.22 39.7983 68.5352 39.4045Z" fill="#0A66C2"/>
</g>
<defs>
<clipPath id="clip0_1804_3925">
<rect width="52.5294" height="52.5294" fill="white" transform="translate(26.8237 19)"/>
</clipPath>
</defs>
</svg>
