<svg width="92" height="73" viewBox="0 0 92 73" fill="none" xmlns="http://www.w3.org/2000/svg">
<path d="M91.2194 31.5187C90.9092 29.7207 90.8536 29.6331 89.8881 29.5969C89.2741 29.5456 88.814 29.3305 88.509 28.8942C87.9286 28.0189 87.462 26.4735 87.5008 25.482C87.568 23.8115 85.3035 20.3555 84.1014 20.308C83.662 20.2917 83.5844 20.0904 83.6697 19.3565C83.8972 17.3234 83.3892 16.822 80.6827 16.3556C78.1196 15.9205 77.2264 15.5466 76.27 14.5188C75.0614 13.226 73.5556 12.7683 69.6043 12.5983C65.8896 12.4032 65.5742 12.2232 64.4704 9.74247C63.9314 8.55964 63.5398 8.09076 62.5923 7.60187C61.0413 6.8354 59.3429 6.74412 58.084 7.43432C56.825 8.12452 55.685 8.0595 53.9285 7.25177C52.3167 6.51156 51.0565 6.52156 50.586 7.29803C50.3973 7.60312 50.2099 7.9082 50.1775 7.96322C50.1452 8.01823 49.6851 7.83818 49.1435 7.58811C47.7928 6.88541 46.2896 7.11297 45.664 8.08825C45.1341 8.88973 43.4383 9.50741 41.0833 9.78874C40.437 9.85 39.4934 9.95628 38.9635 10.0226C38.197 10.1076 37.9553 10.2964 37.6606 11.0791C37.1707 12.337 35.5745 13.4123 33.8347 13.6598C33.2974 13.7389 32.773 13.8852 32.2746 14.095C31.9941 14.335 31.7007 14.5626 31.4164 14.7989C31.0671 15.2922 30.6613 15.7456 30.2066 16.1505C30.3136 16.2761 30.3885 16.4243 30.425 16.5832C30.4454 16.6759 30.4339 16.7726 30.3921 16.8585C30.3503 16.9443 30.2806 17.0145 30.1936 17.0583C30.1639 17.1658 30.0644 17.2421 29.9351 17.3321C29.7141 17.4772 29.5474 17.5384 29.254 17.3771C29.1295 17.4906 28.9945 17.5927 28.8507 17.6822C28.4039 17.9509 27.9157 18.1489 27.4044 18.2687C27.4044 18.2774 27.4044 18.2849 27.4044 18.2874C27.3229 18.3612 27.0166 18.4725 26.6805 18.5675L26.5513 18.6438L26.3005 18.8238C26.2342 18.9368 26.1443 19.0352 26.0366 19.1129C25.9289 19.1906 25.8058 19.2458 25.6749 19.2752C25.2872 19.5515 24.9072 19.8278 24.5117 20.0917L24.4302 20.1467C24.2868 20.313 24.1549 20.473 24.0425 20.5943C23.5487 21.107 23.0524 21.6159 22.4475 22.001C24.2208 23.9328 25.5431 25.4857 25.5858 25.6495C25.6362 25.8496 25.4229 26.0684 25.154 26.1721C25.0429 26.2059 24.88 26.1571 24.637 26.0034C24.5715 26.1858 24.4593 26.3491 24.3108 26.4781C24.1622 26.6071 23.9823 26.6976 23.7878 26.7411C23.3029 26.8183 22.8093 26.8309 22.3208 26.7786C22.3412 26.8037 22.3569 26.8321 22.3673 26.8623C22.3673 26.9761 22.0352 27.1337 21.65 27.2375C20.3794 27.4738 19.8805 29.7244 20.4079 32.664C20.6496 33.9781 20.5824 34.1732 19.7021 35.6999C19.1683 36.5876 18.6487 37.8442 18.5065 38.4919C18.2829 39.6747 18.2829 39.6747 19.4643 40.1999C20.0977 40.4787 20.6405 40.8401 20.6276 41.0376C20.6276 41.2077 20.1881 41.7878 19.6983 42.308C18.6578 43.4033 18.5518 43.8534 19.2252 44.6149C19.5884 45.0538 19.6129 45.2813 19.3221 45.8653C19.1024 46.2254 18.9279 46.9281 18.9098 47.3807C18.8762 48.2309 19.105 48.381 20.9119 48.646C21.6112 48.7573 21.6358 48.8724 21.6965 51.0292C21.7547 53.2711 22.5935 55.7418 23.2669 55.7668C23.4427 55.7731 23.8137 56.0419 24.1226 56.3657L24.7146 56.9822L23.7465 58.4826C22.5276 60.3656 22.5496 61.3022 23.7529 61.2621C24.9266 61.2209 25.6129 61.671 26.0653 62.8226C26.4104 63.7428 26.5526 63.8329 27.606 63.8729C28.5431 63.9066 28.8598 64.0604 29.2734 64.6994C30.4599 66.5586 32.4724 68.3066 34.8313 69.4995C37.216 70.7223 37.3039 70.7261 39.6511 70.6436C41.6481 70.576 42.0255 70.6436 42.1871 71.0187C42.2659 71.2487 42.1871 71.6989 41.9997 72.0327C41.5007 72.8079 42.3125 73.033 45.2504 72.8617C46.5714 72.7979 47.7463 72.7567 47.891 72.7904C48.0074 72.8229 48.1237 72.0902 48.1625 71.1274C48.2672 68.4942 49.455 67.3476 52.7083 66.6449C54.2736 66.3348 54.7079 65.7272 53.4205 65.6796C52.1616 65.6321 50.259 64.8244 49.0672 63.8441C47.8187 62.8063 45.7558 59.3829 43.8971 55.2592L42.6046 52.3759L42.7222 49.4025C42.801 47.4207 42.7028 46.1979 42.4637 45.7352C41.9467 44.7512 43.3891 38.652 44.4025 37.5829L45.0759 36.8714L45.7532 37.5204C46.5145 38.2856 47.8561 38.4494 49.9255 38.0205C51.9057 37.6117 52.4446 38.0568 52.1396 39.8323L51.9082 41.2414L53.343 41.2952C54.2206 41.3277 55.062 41.5565 55.4614 41.8266C56.0586 42.2742 56.1077 42.503 55.9112 43.7722C55.6592 45.719 56.0405 46.5555 57.1818 46.4854C57.9457 46.4279 58.1447 46.6105 58.6915 47.5895C59.0456 48.2559 59.3003 49.2287 59.2731 49.9089C59.202 51.7207 59.8586 52.142 63.0434 52.4021L65.675 52.5847L65.4527 53.7562C65.0171 55.8668 62.9646 61.0646 62.0637 62.3362C61.1951 63.5515 59.4644 65.047 58.9383 65.027C58.7923 65.027 58.6669 65.2158 58.6566 65.4708C58.6449 65.7822 58.8168 65.8735 59.2317 65.7472C59.7953 65.5971 59.8199 65.7122 59.7358 67.8353C59.6854 69.0856 59.7113 70.6698 59.7707 71.3813C59.9168 72.8617 60.4325 73.1643 62.4644 72.928C63.4066 72.8204 63.647 72.6604 63.6664 72.1777C63.6987 71.3563 64.442 70.4473 65.8818 69.537L67.0568 68.758L68.5496 69.5232C69.3846 69.9221 70.6009 70.2735 71.2743 70.3047C72.3872 70.346 72.6263 70.2134 74.0623 68.7355C75.4388 67.3114 75.8886 67.045 77.6956 66.5736C79.2079 66.1473 79.9239 65.8059 80.2975 65.2808C80.5469 64.8932 81.5228 63.9367 82.4341 63.1477C84.0717 61.7623 84.073 61.7348 83.9476 60.4544C83.7486 58.8289 84.3793 57.7199 85.9084 56.8409C87.1673 56.1494 87.9364 55.2429 88.3035 54.0901C88.443 53.5562 88.3383 53.2148 87.7735 52.6809C86.6167 51.5556 86.9321 50.239 88.6615 48.7723C89.4189 48.1472 89.5495 47.8133 89.5986 46.5955C89.6399 45.5477 89.4887 44.9187 89.0997 44.3936C88.182 43.1432 88.7675 38.7382 90.1014 36.8914C90.6856 36.0925 91.4081 32.659 91.2194 31.5187Z" fill="white"/>
<path d="M31.7757 14.19C31.5523 14.0313 31.3497 13.847 31.1721 13.6411C30.7714 13.1697 28.7641 10.9866 26.7581 8.77471C22.1282 3.67201 21.6215 3.42569 18.1317 4.85109C14.9934 6.14646 13.0339 5.52253 11.8771 2.82552C11.6565 3.38162 11.2899 3.87248 10.8134 4.24967C10.2607 4.75779 9.5666 5.09853 8.81639 5.22995C8.65899 5.33774 8.49449 5.43547 8.32393 5.52253C7.98374 5.6923 7.61614 5.80477 7.23691 5.85513C9.54796 6.73038 10.4463 7.56312 10.5975 9.10606C10.688 10.0238 10.5368 10.5052 9.77803 11.5943C8.57598 13.211 8.40407 14.949 9.32565 16.0668C9.87756 16.7432 17.1481 22.85 20.5268 25.4807C21.279 26.0484 21.8684 26.6123 21.8956 26.7311C22.0193 26.8016 22.1388 26.8789 22.2536 26.9624C22.3505 27.0312 22.4462 27.0999 22.5405 27.1712L22.6013 27.2087C22.7099 27.2812 22.812 27.3563 22.9089 27.4338L23.0524 27.515C23.6607 27.056 24.3012 26.6382 24.9692 26.2647C24.8567 26.1759 24.7482 26.0809 24.6461 25.9834C24.0088 25.7333 22.675 24.5592 19.781 21.8222C17.2657 19.4215 15.1925 17.2359 15.2041 16.9783C15.2248 16.4932 15.5311 16.1606 15.9512 16.1743C16.1127 16.1743 18.2881 18.1974 20.8021 20.6556C21.8555 21.6859 22.8301 22.6687 23.612 23.4764C23.629 23.2448 23.6671 23.0151 23.7258 22.79C23.7335 22.7599 23.7426 22.7312 23.7516 22.7024C23.4453 21.1095 24.7378 19.3977 26.5034 18.9839C26.7749 18.9201 27.0386 18.8426 27.3061 18.7676C27.6603 18.5925 28.017 18.4275 28.3569 18.2287C28.5211 18.1311 28.6827 18.0298 28.8429 17.9273C29.1167 17.6762 29.4149 17.4513 29.7335 17.2559C29.2475 17.1646 28.4642 16.4269 26.073 14.1225C24.1161 12.2557 22.6362 10.604 22.7719 10.4377C23.2889 9.71248 24.2958 10.3464 27.4922 13.456C28.7925 14.7064 29.5926 15.4854 30.0463 15.9905C30.076 16.0143 30.107 16.0393 30.1368 16.0655C30.2206 16.1452 30.2889 16.2388 30.3384 16.3419C30.4435 16.4602 30.514 16.6035 30.5426 16.757L30.606 16.7182C30.9536 16.5019 31.3104 16.2981 31.6607 16.093L31.7498 16.038L31.9644 15.6917C32.0781 15.4416 32.1919 15.1915 32.316 14.9415C32.1094 14.7098 31.9283 14.458 31.7757 14.19ZM23.656 19.8754L23.0162 20.4543L19.8172 17.4009C16.7732 14.5251 16.1373 13.5311 17.086 13.2747C17.74 13.0972 18.2739 13.4861 21.3449 16.4782C24.2635 19.2952 24.2958 19.2965 23.656 19.8754ZM24.0437 14.6001C26.0006 16.4669 27.5181 18.0336 27.4509 18.0886C27.3501 18.1711 26.9558 18.3012 26.5319 18.4012C25.8779 18.55 25.2833 18.1011 22.3622 15.3428C19.8456 12.9672 19.0158 11.9669 19.1929 11.6343C19.6233 10.7053 20.5371 11.2504 24.0463 14.6001H24.0437Z" fill="#AD4AFF"/>
<path d="M2.05386 0.658647C1.95676 0.856638 1.90098 1.07121 1.88971 1.29008C1.87467 1.39791 1.8868 1.50766 1.92506 1.60998C1.96332 1.7123 2.02657 1.80417 2.10944 1.87774C2.3072 2.0903 2.51788 2.18283 3.59456 2.52793C4.28348 2.74674 4.8871 2.89678 4.93233 2.86552C4.95897 2.84164 4.9801 2.81259 4.99436 2.78028C5.00861 2.74796 5.01566 2.7131 5.01506 2.67797C5.01506 2.60295 5.21023 2.17783 5.4403 1.72895C5.67038 1.28007 5.84099 0.897464 5.82031 0.876208C5.79963 0.854952 5.28003 0.639892 4.6777 0.404825C3.77293 0.043472 3.51442 -0.0227971 3.19904 0.00596106C2.68591 0.0422214 2.24774 0.296044 2.05386 0.658647Z" fill="#AD4AFF"/>
<path d="M0.567442 2.94804C0.326925 3.23402 0.205258 3.59647 0.22621 3.96458C0.277912 4.27342 0.641116 4.68479 1.02371 4.86109C1.455 5.00284 1.89652 5.1136 2.34468 5.19243C2.92632 5.30622 3.59585 5.4425 3.83755 5.50877C4.45409 5.67007 5.54887 5.7926 5.66003 5.71133C5.72078 5.66632 5.6303 5.62381 5.36792 5.58629C4.85995 5.51878 4.16328 5.21119 4.07538 5.03864C3.96552 4.79982 4.20464 4.16339 4.66736 3.48445C4.73458 3.37942 4.71519 3.35941 4.32872 3.21062C3.81817 3.01806 2.08229 2.48666 1.8212 2.44915C1.42052 2.39039 0.864725 2.61295 0.567442 2.94804Z" fill="#AD4AFF"/>
<path d="M6.01677 1.19755C5.55146 2.00278 5.40281 2.33037 5.30846 2.79175C5.20351 3.16289 5.05111 3.51992 4.85478 3.85456C4.69062 4.10812 4.56033 4.38079 4.46702 4.66604C4.44763 4.84484 4.45151 4.85984 4.77981 5.02239C5.20918 5.20886 5.69112 5.2494 6.14732 5.13742C6.60746 5.01239 7.31706 4.41097 7.82761 3.71452C7.91421 3.59698 7.94265 3.58948 8.04864 3.70826C8.24089 3.83739 8.45407 3.93459 8.67939 3.99585C9.11756 4.13339 9.17056 4.16715 9.10334 4.26217C7.65054 6.36402 7.47863 7.58437 8.42218 9.16857C8.61864 9.49991 8.94695 10.0176 9.15763 10.3201C9.53117 10.8515 9.52988 10.8615 9.27654 10.6953C8.95083 10.4677 8.20503 9.56993 7.85476 8.97101C7.23175 7.92822 7.33774 6.73162 8.18694 5.04864L8.49585 4.43097L8.27095 4.36595C8.1417 4.33094 8.02537 4.29093 8.01244 4.28468C7.92104 4.37262 7.84507 4.47441 7.78754 4.58602C7.64019 4.80358 7.39978 5.02239 6.90862 5.39124L6.22616 5.89889L6.63202 6.38778C6.9823 6.81665 7.03787 6.92168 7.05209 7.21301C7.04053 7.44867 6.97916 7.67953 6.87179 7.89135C6.76442 8.10318 6.61331 8.29147 6.4278 8.44461C6.18868 8.61966 6.18092 8.63466 6.33215 8.80721C6.55964 9.05729 6.548 9.36988 6.28949 9.88877C6.06071 10.3739 5.80996 10.6027 5.49458 10.6515C5.30975 10.6852 3.57776 10.6452 2.3059 10.5877C1.94011 10.5715 1.77338 10.5877 1.86515 10.6352C1.95692 10.6828 2.14175 10.799 2.30461 10.9078C2.85911 11.2829 2.94054 11.3104 3.12537 11.2767C3.22877 11.2554 3.31408 11.2579 3.3102 11.2867C3.30245 11.3667 4.34423 12.1394 4.8509 12.427C5.2955 12.6973 5.79571 12.8706 6.31664 12.9346C6.7274 13.0227 7.12859 13.1483 7.51482 13.3097L8.28 13.6186L10.4424 15.9005C12.4898 18.0573 12.6177 18.1824 12.6966 18.0799C12.7483 18.0236 13.8108 16.7632 15.0619 15.2841C16.3131 13.8049 17.3381 12.582 17.3458 12.567C17.3536 12.552 13.794 9.67371 13.3959 9.37988C13.2666 9.28985 13.2446 9.1073 13.255 8.43336C13.2812 7.33026 13.2168 6.2269 13.0624 5.13367C12.8905 3.99835 12.4329 2.20534 12.2752 2.03779C12.0878 1.83648 11.8422 1.75146 10.1438 1.30258C9.33471 1.09002 8.34075 0.81119 7.92455 0.686154C6.61263 0.287291 6.52474 0.314798 6.01677 1.19755ZM11.8422 11.2854C11.8125 11.7731 11.7724 11.7193 12.8931 12.7083C13.622 13.3448 13.7642 13.4973 13.6363 13.481C13.613 13.481 13.1774 13.1672 12.6759 12.7858C11.7401 12.0719 11.5682 11.9869 11.3717 12.1307C11.1443 12.297 11.2787 12.4733 12.345 13.4373C13.2679 14.27 13.5316 14.5526 13.2498 14.3988C13.1916 14.3688 12.7328 14.055 12.2235 13.6974C10.8457 12.7321 10.8353 12.7208 10.1697 12.7496C9.97845 12.7701 9.78517 12.7638 9.5958 12.7308C9.5958 12.7058 9.83363 12.567 10.1128 12.4195C10.7358 12.0919 11.2955 11.6193 11.5747 11.1779C11.6469 11.0606 11.7309 10.9504 11.8254 10.849C11.8574 10.9924 11.8631 11.1401 11.8422 11.2854Z" fill="#AD4AFF"/>
<path d="M0.1564 6.25273C0.0777137 6.39377 0.0248007 6.5469 0 6.70536C0 7.09922 0.354156 7.62437 0.708311 7.74941C0.981036 7.84193 5.02279 8.33207 5.41443 8.31957C6.0956 8.29706 6.49629 7.98572 6.53765 7.44432C6.55574 7.22176 6.50792 7.09297 6.31921 6.84665C5.9909 6.42903 5.59022 6.26524 4.60272 6.1377C4.17877 6.08143 3.50924 5.95015 3.1176 5.85262C2.03445 5.56629 1.67901 5.50627 1.22145 5.55753C0.996953 5.5745 0.780836 5.64746 0.594177 5.7693C0.407517 5.89114 0.256688 6.0577 0.1564 6.25273Z" fill="#AD4AFF"/>
<path d="M0.620434 8.61591C0.232674 9.17857 0.413628 9.79875 1.01983 10.0501C1.30534 10.1331 1.6019 10.1752 1.90004 10.1751C2.21671 10.1751 2.84876 10.1951 3.29727 10.2226C4.3494 10.2764 5.26839 10.1989 5.50751 10.0238C5.88881 9.74624 5.93922 9.06104 5.59282 8.86598C5.46356 8.78971 1.47868 8.20955 1.13228 8.2158C0.934519 8.2233 0.825947 8.29957 0.620434 8.61591Z" fill="#AD4AFF"/>
<path d="M18.2855 12.4032C17.7685 13.0109 16.8133 14.1725 15.2132 16.118L11.8125 20.2655L12.0994 20.6043L12.3851 20.9432L15.5337 16.4894C16.7539 14.7614 17.8344 13.231 18.3773 12.4595L18.2855 12.4032Z" fill="#AD4AFF"/>
</svg>
