<svg width="112" height="112" viewBox="0 0 112 112" fill="none" xmlns="http://www.w3.org/2000/svg">
<path fill-rule="evenodd" clip-rule="evenodd" d="M74.6619 23.814C76.1273 22.3416 77.8695 21.1736 79.7882 20.3773C81.7069 19.581 83.7642 19.1722 85.8416 19.1743C87.9189 19.1765 89.9754 19.5895 91.8924 20.3897C93.8095 21.19 95.5493 22.3615 97.0117 23.8369C98.4741 25.3124 99.6301 27.0625 100.413 28.9866C101.196 30.9107 101.591 32.9707 101.575 35.048C101.559 37.1253 101.132 39.1789 100.318 41.0904C99.5049 43.002 98.3215 44.7337 96.8362 46.186L56.2257 86.436C53.2762 89.3588 49.2918 90.9986 45.1394 90.9986C40.987 90.9986 37.0026 89.3588 34.0532 86.436L15.1619 67.7163C13.6765 66.2641 12.4931 64.5324 11.6798 62.6209C10.8665 60.7095 10.4393 58.656 10.4229 56.5788C10.4064 54.5015 10.8011 52.4416 11.5841 50.5175C12.3671 48.5934 13.523 46.8433 14.9852 45.3678C16.4475 43.8923 18.1871 42.7206 20.104 41.9202C22.021 41.1199 24.0773 40.7066 26.1546 40.7043C28.2319 40.7019 30.2891 41.1105 32.2078 41.9066C34.1266 42.7026 35.8689 43.8703 37.3344 45.3425L45.1377 53.074L74.6619 23.814Z" fill="#00EC42"/>
<path d="M43.3895 51.3398L37.338 45.3425C35.6686 43.685 33.6485 42.4232 31.4266 41.6503C29.2047 40.8773 26.8377 40.6129 24.5 40.8765C28.0278 41.2659 31.3191 42.8403 33.8362 45.3425L41.6395 53.074L43.3895 51.3398ZM43.3895 90.9038C45.727 91.1668 48.0938 90.9019 50.3154 90.1287C52.5369 89.3554 54.5567 88.0936 56.2258 86.436L96.838 46.186C99.1613 43.8837 100.71 40.9152 101.27 37.6926C101.829 34.47 101.371 31.1531 99.9601 28.2024C98.5488 25.2518 96.2538 22.8137 93.3937 21.2267C90.5337 19.6397 87.2505 18.9825 84 19.3463C86.9537 19.6762 89.7537 20.8352 92.0765 22.6891C94.3994 24.5431 96.1503 27.0165 97.1269 29.8235C98.1035 32.6305 98.2659 35.6565 97.5955 38.552C96.925 41.4474 95.449 44.094 93.338 46.186L52.7257 86.436C50.2089 88.9389 46.9175 90.5139 43.3895 90.9038Z" fill="#BFFACF"/>
<path fill-rule="evenodd" clip-rule="evenodd" d="M74.6619 23.814C76.1273 22.3416 77.8695 21.1736 79.7882 20.3773C81.7069 19.581 83.7642 19.1722 85.8416 19.1743C87.9189 19.1765 89.9754 19.5895 91.8924 20.3897C93.8095 21.19 95.5493 22.3615 97.0117 23.8369C98.4741 25.3124 99.6301 27.0625 100.413 28.9866C101.196 30.9107 101.591 32.9707 101.575 35.048C101.559 37.1253 101.132 39.1789 100.318 41.0904C99.5049 43.002 98.3215 44.7337 96.8362 46.186L56.2257 86.436C53.2762 89.3588 49.2918 90.9986 45.1394 90.9986C40.987 90.9986 37.0026 89.3588 34.0532 86.436L15.1619 67.7163C13.6765 66.2641 12.4931 64.5324 11.6798 62.6209C10.8665 60.7095 10.4393 58.656 10.4229 56.5788C10.4064 54.5015 10.8011 52.4416 11.5841 50.5175C12.3671 48.5934 13.523 46.8433 14.9852 45.3678C16.4475 43.8923 18.1871 42.7206 20.104 41.9202C22.021 41.1199 24.0773 40.7066 26.1546 40.7043C28.2319 40.7019 30.2891 41.1105 32.2078 41.9066C34.1266 42.7026 35.8689 43.8703 37.3344 45.3425L45.1377 53.074L74.6619 23.814ZM91.9642 28.84C90.3305 27.1924 88.1093 26.2611 85.7891 26.251C83.469 26.2408 81.2397 27.1526 79.5917 28.7858L47.5999 60.4888C46.9445 61.138 46.0593 61.5022 45.1368 61.5022C44.2143 61.5022 43.3291 61.138 42.6737 60.4888L32.4099 50.3125C30.7616 48.6788 28.5317 47.7668 26.2109 47.7771C23.8901 47.7874 21.6685 48.7193 20.0348 50.3676C18.4011 52.016 17.489 54.2458 17.4994 56.5666C17.5097 58.8874 18.4416 61.109 20.0899 62.7428L38.9794 81.4625C40.6181 83.0869 42.8321 83.9983 45.1394 83.9983C47.4468 83.9983 49.6607 83.0869 51.2994 81.4625L91.9099 41.2125C93.5575 39.5788 94.4888 37.3577 94.499 35.0375C94.5091 32.7173 93.5974 30.4881 91.9642 28.84Z" fill="#AD4AFF"/>
</svg>
