<svg width="32" height="40" viewBox="0 0 32 40" fill="none" xmlns="http://www.w3.org/2000/svg">
<path d="M21.625 14.3755H17.3483C18.2486 13.1536 18.8125 11.5524 18.8125 9.78075C18.8125 9.58067 18.7698 9.38406 18.6885 9.21046C18.6073 9.03685 18.4903 8.8923 18.3493 8.79117C18.0618 8.58384 17.7084 8.58047 17.4172 8.77885C16.455 9.43786 15.3729 9.78527 14.2861 9.78527H9.4375C7.04006 9.78527 4.93538 11.6711 4.14919 14.3755H0.9375C0.419312 14.3755 0 14.8888 0 15.5231C0 16.1574 0.419312 16.6707 0.9375 16.6707H1.875V18.9658H20.6875V16.6707H21.625C22.1432 16.6707 22.5625 16.1574 22.5625 15.5231C22.5625 14.8888 22.1432 14.3755 21.625 14.3755ZM11.3125 28.2228C7.82344 28.2228 5.6875 29.7089 5.6875 30.518C5.6875 31.3271 7.82344 32.8131 11.3125 32.8131C14.8016 32.8131 16.9375 31.3271 16.9375 30.518C16.9375 29.7089 14.8016 28.2228 11.3125 28.2228Z" fill="#F1B709"/>
<path d="M19.75 21.261H2.875C1.32413 21.261 0 22.8053 0 24.7037V33.9607C0 37.1244 2.16544 39.6986 4.75 39.6986H17.875C20.4596 39.6986 22.5625 37.1244 22.5625 33.9607V24.7037C22.5625 22.8053 21.3009 21.261 19.75 21.261ZM11.3125 35.1083C7.58537 35.1083 3.8125 33.5315 3.8125 30.518C3.8125 24.4911 18.8125 24.4911 18.8125 30.518C18.8125 33.5315 15.0396 35.1083 11.3125 35.1083Z" fill="#F1B709"/>
<path d="M18.8122 0.52832C14.2777 0.52832 10.2807 3.41996 7.92285 7.69993C8.41554 7.57415 8.91885 7.49023 9.43716 7.49023H14.2858C15.053 7.49023 15.8193 7.24365 16.5014 6.77636C16.9212 6.48947 17.3939 6.33863 17.8747 6.33815C18.3762 6.33855 18.8685 6.50257 19.301 6.81332C20.1544 7.42635 20.6872 8.56382 20.6872 9.78085C20.6872 10.5796 20.5772 11.3411 20.4199 12.0805H21.6247C23.1755 12.0805 24.4372 13.6248 24.4372 15.5232C24.4372 17.0173 23.651 18.2792 22.5622 18.7545V20.1135C22.5622 20.1227 22.5601 20.1313 22.56 20.1405C23.6929 21.1889 24.4372 22.8354 24.4372 24.7037V31.2464C28.8674 28.6661 31.9997 23.076 31.9997 16.6708C31.9997 7.7977 26.0609 0.52832 18.8122 0.52832Z" fill="#F1B709"/>
</svg>
