<svg width="34" height="34" viewBox="0 0 34 34" fill="none" xmlns="http://www.w3.org/2000/svg">
<g clip-path="url(#clip0_1083_1149)">
<path d="M17 32.3C25.4499 32.3 32.3 25.4499 32.3 17C32.3 8.54999 25.4499 1.69995 17 1.69995C8.54999 1.69995 1.69995 8.54999 1.69995 17C1.69995 25.4499 8.54999 32.3 17 32.3Z" fill="#FFD54F"/>
<path d="M30.1169 2.31764C29.4525 2.31764 28.8263 2.54147 28.3333 2.92681C27.8236 2.53005 27.1957 2.31557 26.5497 2.31764C25.0027 2.31764 23.7433 3.52039 23.7433 4.99798C23.7433 7.30148 27.1561 9.80047 27.8403 10.2779C27.9854 10.3775 28.1573 10.4308 28.3333 10.4308C28.5093 10.4308 28.6812 10.3775 28.8263 10.2779C29.5106 9.80047 32.9233 7.30148 32.9233 4.99798C32.9233 3.52039 31.6653 2.31764 30.1169 2.31764ZM7.45024 24.9843C6.78583 24.9843 6.15966 25.2081 5.66666 25.5935C5.15696 25.1967 4.52899 24.9822 3.88308 24.9843C2.33608 24.9843 1.07666 26.1871 1.07666 27.6646C1.07666 29.9681 4.48941 32.4671 5.17366 32.9446C5.31878 33.0441 5.49066 33.0975 5.66666 33.0975C5.84267 33.0975 6.01454 33.0441 6.15966 32.9446C6.84391 32.4671 10.2567 29.9681 10.2567 27.6646C10.2567 26.1871 8.99866 24.9843 7.45024 24.9843Z" fill="#E53935"/>
<path d="M3.04442 25.7394C2.85457 25.7397 2.66811 25.6892 2.50442 25.593C2.34074 25.4968 2.20581 25.3586 2.11367 25.1926C0.727864 22.6843 0.000650723 19.8656 0 17C0 7.62592 7.62592 0 17 0C19.7328 0 22.4428 0.665833 24.8384 1.92383C25.0879 2.05496 25.2751 2.27982 25.3588 2.54895C25.4424 2.81808 25.4158 3.10944 25.2847 3.35892C25.1535 3.6084 24.9287 3.79557 24.6595 3.87926C24.3904 3.96294 24.0991 3.93629 23.8496 3.80517C21.7355 2.70044 19.3853 2.12396 17 2.125C8.7975 2.125 2.125 8.7975 2.125 17C2.125 19.5061 2.76392 21.9824 3.97375 24.1627C4.25708 24.6755 4.0715 25.3229 3.56008 25.6077C3.40191 25.694 3.22462 25.7393 3.04442 25.7394ZM17 34C13.8508 34 10.778 33.1302 8.11467 31.4854C7.99099 31.4147 7.88281 31.3198 7.79655 31.2064C7.7103 31.0929 7.64774 30.9633 7.61259 30.8253C7.57744 30.6872 7.57042 30.5434 7.59196 30.4026C7.61349 30.2617 7.66313 30.1267 7.73793 30.0054C7.81272 29.8841 7.91115 29.7791 8.02735 29.6967C8.14355 29.6142 8.27514 29.556 8.41431 29.5254C8.55347 29.4948 8.69737 29.4926 8.83743 29.5187C8.97748 29.5449 9.11085 29.599 9.22958 29.6777C11.5658 31.1168 14.2562 31.8775 17 31.875C25.2025 31.875 31.875 25.2025 31.875 17C31.875 14.2417 31.1157 11.56 29.6778 9.24517C29.5298 9.00547 29.4829 8.71694 29.5471 8.44269C29.6113 8.16845 29.7816 7.93081 30.0206 7.78175C30.139 7.70798 30.2708 7.65832 30.4085 7.63563C30.5462 7.61293 30.687 7.61765 30.8228 7.6495C30.9586 7.68135 31.0868 7.73972 31.2001 7.82125C31.3133 7.90277 31.4093 8.00586 31.4826 8.12458C33.1339 10.79 34.006 13.8645 34 17C34 26.3741 26.3741 34 17 34Z" fill="black"/>
<path d="M13.1042 15.9376C12.8224 15.9376 12.5521 15.8257 12.3529 15.6264C12.1536 15.4271 12.0417 15.1569 12.0417 14.8751C12.0253 14.5103 11.869 14.1659 11.6051 13.9136C11.3412 13.6612 10.9901 13.5204 10.625 13.5204C10.2599 13.5204 9.90881 13.6612 9.64492 13.9136C9.38103 14.1659 9.22465 14.5103 9.20833 14.8751C9.20833 15.1569 9.09639 15.4271 8.89713 15.6264C8.69788 15.8257 8.42763 15.9376 8.14583 15.9376C7.86404 15.9376 7.59379 15.8257 7.39453 15.6264C7.19527 15.4271 7.08333 15.1569 7.08333 14.8751C7.08333 12.9229 8.67142 11.3334 10.625 11.3334C12.5786 11.3334 14.1667 12.9229 14.1667 14.8751C14.1667 15.1569 14.0547 15.4271 13.8555 15.6264C13.6562 15.8257 13.386 15.9376 13.1042 15.9376ZM25.8542 15.9376C25.5724 15.9376 25.3021 15.8257 25.1029 15.6264C24.9036 15.4271 24.7917 15.1569 24.7917 14.8751C24.7753 14.5103 24.619 14.1659 24.3551 13.9136C24.0912 13.6612 23.7401 13.5204 23.375 13.5204C23.0099 13.5204 22.6588 13.6612 22.3949 13.9136C22.131 14.1659 21.9746 14.5103 21.9583 14.8751C21.9583 15.1569 21.8464 15.4271 21.6471 15.6264C21.4479 15.8257 21.1776 15.9376 20.8958 15.9376C20.614 15.9376 20.3438 15.8257 20.1445 15.6264C19.9453 15.4271 19.8333 15.1569 19.8333 14.8751C19.8333 12.9229 21.4214 11.3334 23.375 11.3334C25.3286 11.3334 26.9167 12.9229 26.9167 14.8751C26.9167 15.1569 26.8047 15.4271 26.6055 15.6264C26.4062 15.8257 26.136 15.9376 25.8542 15.9376ZM17 25.5001C15.4785 25.5045 13.9713 25.2068 12.5657 24.6244C11.1602 24.042 9.88415 23.1864 8.81167 22.1072C8.61234 21.9079 8.50037 21.6375 8.50037 21.3556C8.50037 21.0738 8.61234 20.8034 8.81167 20.6041C9.01099 20.4048 9.28133 20.2928 9.56321 20.2928C9.84509 20.2928 10.1154 20.4048 10.3147 20.6041C12.0997 22.3919 14.4741 23.3751 17 23.3751C19.5259 23.3751 21.9002 22.3919 23.6867 20.6055C23.7854 20.5068 23.9025 20.4285 24.0315 20.3751C24.1604 20.3217 24.2986 20.2942 24.4382 20.2942C24.5778 20.2942 24.716 20.3217 24.8449 20.3751C24.9739 20.4285 25.0911 20.5068 25.1897 20.6055C25.2884 20.7042 25.3667 20.8214 25.4201 20.9503C25.4736 21.0793 25.501 21.2175 25.501 21.3571C25.501 21.4966 25.4736 21.6348 25.4201 21.7638C25.3667 21.8927 25.2884 22.0099 25.1897 22.1086C24.1166 23.1873 22.8403 24.0424 21.4345 24.6246C20.0288 25.2067 18.5215 25.5043 17 25.5001ZM28.3333 11.3844C28.1208 11.3844 27.9083 11.3207 27.7242 11.1932C26.8812 10.6024 22.6667 7.51836 22.6667 4.67511C22.6667 2.85044 24.2207 1.36719 26.1304 1.36719C26.9507 1.36719 27.7242 1.64344 28.3333 2.11944C28.9425 1.64344 29.716 1.36719 30.5362 1.36719C32.4459 1.36577 34 2.85044 34 4.67511C34 7.51836 29.7854 10.6039 28.9425 11.1932C28.7637 11.3176 28.5511 11.3843 28.3333 11.3844ZM26.1304 3.49077C25.3923 3.49077 24.7917 4.02202 24.7917 4.67369C24.7917 5.80702 26.7282 7.75777 28.3333 9.00161C29.9667 7.74077 31.875 5.81977 31.875 4.67369C31.875 4.02202 31.2743 3.49077 30.5362 3.49077C29.9894 3.49077 29.5035 3.77836 29.2981 4.22319C28.9496 4.97402 27.7185 4.97402 27.37 4.22319C27.1632 3.77836 26.6772 3.49077 26.1304 3.49077ZM5.66667 34.0511C5.45417 34.0511 5.24167 33.9874 5.0575 33.8599C4.21458 33.2691 0 30.185 0 27.3418C0 25.5171 1.55408 24.0339 3.46375 24.0339C4.284 24.0339 5.0575 24.3101 5.66667 24.7861C6.27583 24.3101 7.04933 24.0339 7.86958 24.0339C9.77925 24.0324 11.3333 25.5171 11.3333 27.3418C11.3333 30.185 7.11875 33.2705 6.27583 33.8599C6.09702 33.9842 5.88447 34.051 5.66667 34.0511ZM3.46375 26.1574C2.72567 26.1574 2.125 26.6887 2.125 27.3404C2.125 28.4737 4.06158 30.4244 5.66667 31.6683C7.30008 30.4074 9.20833 28.4864 9.20833 27.3404C9.20833 26.6887 8.60767 26.1574 7.86958 26.1574C7.32275 26.1574 6.83683 26.445 6.63142 26.8899C6.28292 27.6407 5.05183 27.6407 4.70333 26.8899C4.4965 26.445 4.01058 26.1574 3.46375 26.1574Z" fill="black"/>
</g>
<defs>
<clipPath id="clip0_1083_1149">
<rect width="34" height="34" fill="white"/>
</clipPath>
</defs>
</svg>
