<svg width="70" height="70" viewBox="0 0 70 70" fill="none" xmlns="http://www.w3.org/2000/svg">
<g clip-path="url(#clip0_1319_2218)">
<path d="M67.4373 12.6724L57.3256 2.5607C57.1416 2.37659 56.9231 2.23055 56.6826 2.13091C56.4421 2.03127 56.1843 1.97998 55.924 1.97998C55.6637 1.97998 55.4059 2.03127 55.1654 2.13091C54.9249 2.23055 54.7064 2.37659 54.5223 2.5607L34.9989 22.0841L15.4755 2.5607C15.2914 2.37659 15.0729 2.23055 14.8324 2.13091C14.5919 2.03127 14.3341 1.97998 14.0738 1.97998C13.8135 1.97998 13.5557 2.03127 13.3152 2.13091C13.0747 2.23055 12.8562 2.37659 12.6722 2.5607L2.56046 12.6724C2.37635 12.8565 2.23031 13.075 2.13066 13.3155C2.03102 13.556 1.97974 13.8137 1.97974 14.0741C1.97974 14.3344 2.03102 14.5922 2.13066 14.8327C2.23031 15.0731 2.37635 15.2917 2.56046 15.4757L22.0839 34.9991L2.56046 54.5226C2.37635 54.7066 2.23031 54.9251 2.13066 55.1656C2.03102 55.4061 1.97974 55.6639 1.97974 55.9242C1.97974 56.1845 2.03102 56.4423 2.13066 56.6828C2.23031 56.9233 2.37635 57.1418 2.56046 57.3259L12.6722 67.4376C12.8562 67.6217 13.0747 67.7677 13.3152 67.8674C13.5557 67.967 13.8135 68.0183 14.0738 68.0183C14.3341 68.0183 14.5919 67.967 14.8324 67.8674C15.0729 67.7677 15.2914 67.6217 15.4755 67.4376L34.9989 47.9141L54.5223 67.4376C54.7064 67.6217 54.9249 67.7677 55.1654 67.8674C55.4059 67.967 55.6637 68.0183 55.924 68.0183C56.1843 68.0183 56.4421 67.967 56.6826 67.8674C56.9231 67.7677 57.1416 67.6217 57.3256 67.4376L67.4373 57.3259C67.6214 57.1418 67.7675 56.9233 67.8671 56.6828C67.9668 56.4423 68.0181 56.1845 68.0181 55.9242C68.0181 55.6639 67.9668 55.4061 67.8671 55.1656C67.7675 54.9251 67.6214 54.7066 67.4373 54.5226L47.9139 34.9991L67.4373 15.4757C67.6214 15.2917 67.7675 15.0731 67.8671 14.8327C67.9668 14.5922 68.0181 14.3344 68.0181 14.0741C68.0181 13.8137 67.9668 13.556 67.8671 13.3155C67.7675 13.075 67.6214 12.8565 67.4373 12.6724Z" fill="#F74354"/>
<path d="M14.0744 70.0004C13.5536 70.0017 13.0377 69.8997 12.5565 69.7003C12.0753 69.5009 11.6385 69.2081 11.2711 68.8389L1.15943 58.7282C0.417774 57.9839 0.00125541 56.976 0.00105042 55.9252C0.000845431 54.8744 0.416971 53.8663 1.15833 53.1217L19.2807 34.9993L1.15943 16.8781C0.417308 16.1342 0.000449246 15.1264 0.000244216 14.0756C3.91862e-05 13.0248 0.416505 12.0168 1.15833 11.2726L11.2701 1.1609C12.0143 0.418856 13.0224 0.00216674 14.0733 0.00216674C15.1243 0.00216674 16.1324 0.418856 16.8766 1.1609L34.999 19.2832L53.1213 1.1598C53.8655 0.417884 54.8735 0.00118165 55.9244 0.000976638C56.9752 0.00077163 57.9833 0.417081 58.7279 1.15871L68.8385 11.2704C69.5866 12.0196 70.0001 13.015 70.0001 14.0748C70.0001 15.1346 69.5866 16.13 68.8385 16.8792L50.7183 34.9993L68.8385 53.1217C69.5813 53.8655 69.9986 54.8737 69.9986 55.925C69.9986 56.9762 69.5813 57.9844 68.8385 58.7282L58.7279 68.8389C57.9841 69.5817 56.9758 69.999 55.9246 69.999C54.8734 69.999 53.8651 69.5817 53.1213 68.8389L34.999 50.7187L16.8777 68.8389C16.5104 69.2081 16.0735 69.5009 15.5924 69.7003C15.1112 69.8997 14.5953 70.0017 14.0744 70.0004ZM34.999 45.9325C35.5065 45.9325 36.0129 46.1261 36.4001 46.5132L55.9235 66.0356L66.0341 55.925L46.5118 36.4015C46.3277 36.2175 46.1816 35.999 46.082 35.7585C45.9823 35.518 45.9311 35.2602 45.9311 34.9999C45.9311 34.7396 45.9823 34.4818 46.082 34.2413C46.1816 34.0008 46.3277 33.7823 46.5118 33.5982L66.0341 14.0748L55.9235 3.96308L36.4001 23.4865C36.216 23.6706 35.9975 23.8167 35.757 23.9163C35.5165 24.016 35.2587 24.0672 34.9984 24.0672C34.7381 24.0672 34.4803 24.016 34.2398 23.9163C33.9993 23.8167 33.7808 23.6706 33.5968 23.4865L14.0733 3.96308L3.96161 14.0748L23.4851 33.5982C23.6692 33.7823 23.8152 34.0008 23.9148 34.2413C24.0145 34.4818 24.0658 34.7396 24.0658 34.9999C24.0658 35.2602 24.0145 35.518 23.9148 35.7585C23.8152 35.999 23.6692 36.2175 23.4851 36.4015L3.96161 55.925L14.0733 66.0356L33.5968 46.5132C33.7808 46.329 33.9994 46.1828 34.24 46.0831C34.4806 45.9835 34.7385 45.9323 34.999 45.9325Z" fill="white"/>
</g>
<defs>
<clipPath id="clip0_1319_2218">
<rect width="70" height="70" fill="white"/>
</clipPath>
</defs>
</svg>
