<svg width="212" height="170" viewBox="0 0 212 170" fill="none" xmlns="http://www.w3.org/2000/svg">
<path d="M28.055 120.494C27.9996 120.412 27.9503 120.198 28.0117 120.151C28.0117 120.151 28.2573 119.959 28.5582 119.85L28.6438 119.28L28.6559 119.019C28.8341 119.006 29.0796 118.814 29.2638 118.671C29.448 118.527 29.7238 117.683 29.8405 117.718L29.9512 117.883C30.0619 118.049 30.2461 117.905 30.4363 117.631C30.5652 117.404 31.5354 116.9 31.781 116.708C32.0266 116.517 32.5418 115.611 32.7261 115.468C32.9103 115.324 33.4446 115.285 33.5675 115.189C33.6902 115.094 33.8926 114.558 33.9539 114.51C34.0153 114.463 34.2609 114.271 34.1503 114.106C34.0396 113.94 34.6968 113.805 34.8195 113.71L34.887 113.531C35.0219 113.174 35.1386 113.209 35.366 113.409L35.5381 113.527C35.5563 113.135 35.6297 112.826 35.8079 112.813C35.986 112.8 36.4157 112.465 36.6613 112.274L36.7348 111.965L36.8023 111.786C36.925 111.69 37.226 111.582 37.3488 111.486L37.4534 111.782C37.6316 111.769 37.8036 111.887 38.0371 111.956C38.1045 111.778 38.1106 111.647 37.9999 111.482C37.9446 111.399 38.1409 110.994 38.3311 110.72L38.626 110.742L38.6813 110.825C39.0376 110.799 39.2832 110.607 39.2952 110.346L39.3626 110.167L39.3687 110.037C39.4916 109.941 39.6082 109.976 39.6636 110.059L39.7742 110.224C39.8296 110.307 39.891 110.259 40.0138 110.163L40.1305 110.198C40.1366 110.068 40.0873 109.854 40.0934 109.724L40.1055 109.462C40.2835 109.449 40.4678 109.306 40.5291 109.258C40.5906 109.21 41.0203 108.875 41.5487 108.967L41.757 108.301C41.7631 108.17 42.0026 108.109 42.0026 108.109L42.4081 108.296C42.543 107.939 42.678 107.583 42.684 107.452C42.6901 107.321 42.8249 106.964 42.9417 106.999C43.1138 107.117 43.5254 107.174 43.5989 106.865L43.7217 106.769L43.9119 106.495C44.2189 106.255 44.4644 106.064 44.4705 105.933C44.5319 105.885 44.7221 105.611 44.851 105.385C44.9798 105.158 45.8765 104.963 45.8826 104.832L45.8886 104.702C46.0114 104.606 46.0728 104.558 46.1221 104.771L46.1774 104.854C46.2328 104.937 46.4109 104.924 46.4723 104.876L46.7671 104.898C46.6564 104.732 46.6072 104.519 46.6133 104.388C46.6192 104.258 46.8156 103.853 47.1779 103.696L47.4788 103.588L47.5402 103.54C47.6569 103.575 47.7123 103.657 47.7123 103.657C47.7123 103.657 47.7002 103.918 47.8048 104.215C47.9094 104.511 47.1787 104.954 47.1173 105.002L47.228 105.168C47.2833 105.25 47.7563 105.259 48.174 105.185L48.3763 104.65L48.3885 104.389C48.5173 104.162 48.462 104.08 48.2225 104.141C47.9829 104.202 47.7857 103.348 47.8593 103.039L48.1049 102.848C48.5346 102.513 49.0751 102.343 49.3388 101.76C49.4062 101.581 49.7071 101.473 49.9406 101.542L50.1187 101.529C50.3462 101.73 50.4629 101.764 50.4136 101.551C50.3643 101.338 50.45 100.768 50.6895 100.707C50.8736 100.563 51.4323 100.002 51.389 99.6577L51.6839 99.6796L51.7453 99.6317C51.862 99.6665 52.034 99.7842 52.2676 99.8538L52.341 99.5448L52.4025 99.4969C52.5252 99.4012 52.7034 99.3882 52.8141 99.5536C52.8694 99.6363 53.1582 99.7888 53.1642 99.6582L53.1089 99.5755C53.0536 99.4927 52.9982 99.41 52.9982 99.41C52.949 99.1967 53.0717 99.101 53.2499 99.0879C53.7228 99.0968 53.1452 98.7919 53.3294 98.6483L53.4522 98.5526C53.5196 98.3741 53.8205 98.2654 54.0601 98.2044L54.1336 97.8954C54.1397 97.7648 54.2624 97.6691 54.2624 97.6691L54.9628 97.8783C54.9317 97.2731 55.128 96.8683 55.4782 96.9729C55.773 96.9948 56.3377 96.3028 56.5158 96.2897C56.6939 96.2767 57.0805 95.5977 57.3875 95.3584L57.5224 95.0014L57.5837 94.9536C57.7005 94.9884 58.0628 94.8318 58.3023 94.7709L58.6153 94.401L58.867 94.0789C59.0944 94.2792 59.2725 94.2663 59.2847 94.005C59.3521 93.8266 59.8986 93.5264 59.96 93.4785C60.0213 93.4307 60.1562 93.0737 60.3465 92.7995L60.9483 92.582C61.2553 92.3426 61.5009 92.1512 61.5622 92.1034C61.679 92.1382 61.8018 92.0424 61.8078 91.9119C61.8139 91.7813 62.0162 91.2459 62.1329 91.2807C62.2497 91.3156 62.6613 91.3723 62.8394 91.3593C63.0176 91.3462 63.4534 90.8806 63.5883 90.5236C63.7785 90.2494 64.4478 89.8535 64.5705 89.7578C64.6934 89.662 65.0124 89.1615 65.1292 89.1963C65.3073 89.1833 65.725 89.1094 65.7864 89.0615L65.8477 89.0137L65.9213 88.7046C66.1668 88.5132 66.5291 88.3566 66.5905 88.3087C66.652 88.2608 66.9035 87.9388 67.0877 87.7952C67.2719 87.6515 67.7017 87.3164 67.5357 87.0683L68.07 87.0293L68.1868 87.0641C68.2482 87.0162 68.4877 86.9553 68.6719 86.8118C68.856 86.6682 69.464 86.32 69.5374 86.011C69.6663 85.7847 70.1082 85.1884 70.2309 85.0927L70.3477 85.1275C70.5812 85.1972 70.8146 85.2669 71.0049 84.9927L71.189 84.8492C71.2012 84.5879 71.2132 84.3268 71.2747 84.2789L71.5816 84.0396C71.7718 83.7654 72.0849 83.3954 72.2137 83.1691L72.5025 83.3216C72.7913 83.474 73.0923 83.3652 73.1718 82.9255L74.1662 81.8985L74.4732 81.6591C74.8415 81.3719 75.2652 81.1675 75.3327 80.989C75.4555 80.8933 75.9285 80.9021 75.8178 80.7366C75.7071 80.5712 75.7745 80.3928 76.0634 80.5452C76.3521 80.6976 76.9229 79.875 77.2299 79.6356C77.4755 79.4442 78.1628 78.6565 78.1689 78.5258L78.8754 78.6044C79.3726 78.0908 79.9251 77.6601 79.9251 77.6601C79.9987 77.3509 80.0107 77.0898 80.367 77.0638L80.5451 77.0508C80.7353 76.7766 80.9931 76.3239 81.2387 76.1324L81.7298 75.7494C82.0367 75.5101 82.3991 75.3535 82.5158 75.3883C82.6325 75.4233 82.8721 75.3623 82.8721 75.3623C82.8168 75.2796 82.9517 74.9227 83.0744 74.827C83.2586 74.6834 83.6944 74.2177 83.8726 74.2046L84.1493 74.6182C84.2781 74.3919 84.5911 74.022 84.7813 73.7478L85.1376 73.7218C85.3157 73.7088 85.4999 73.5652 85.5059 73.4346C85.5794 73.1256 85.7637 72.9819 86.0092 72.7904L86.1934 72.6468C86.3836 72.3726 86.5739 72.0984 86.58 71.9678C86.7027 71.8721 87.1208 71.7979 87.3046 71.6546C87.4883 71.5113 87.9244 71.0455 88.0472 70.9497C88.1091 70.9014 88.2441 70.5444 88.3604 70.5796C88.4766 70.6149 89.1284 70.6102 89.6011 70.6193L89.2202 69.9092C89.2202 69.9092 89.3487 69.6832 89.465 69.7184L90.1223 69.5835C90.3127 69.3092 90.8096 68.7958 91.1847 68.3775L91.6761 67.9944C91.8477 68.1124 92.3325 67.8602 92.7685 67.3944L93.198 67.0596C93.3208 66.9638 93.4868 67.2119 93.3584 67.438L93.3518 67.569C93.2299 67.664 93.2853 67.7467 93.4625 67.7344C93.6407 67.7214 93.8864 67.5298 93.7757 67.3643C93.665 67.1989 93.4558 66.6068 93.6405 66.4627C93.8243 66.3194 94.5492 66.006 94.733 65.8627L94.9177 65.7187C95.1015 65.5754 95.3472 65.3838 95.5863 65.3233L96.0046 65.2489C96.2005 64.8444 96.3964 64.4399 96.5258 64.2131C96.5933 64.0346 97.1157 64.2567 97.1157 64.2567C97.1157 64.2567 97.2441 64.0306 97.2507 63.8997L97.4842 63.9693C97.7787 63.9915 97.9015 63.8957 97.7411 63.5173L97.6858 63.4346C97.7533 63.2561 97.938 63.112 98.1096 63.23C98.2822 63.3471 98.7182 62.8813 98.9076 62.6078C99.1533 62.4162 99.835 61.7588 99.9578 61.6631L99.9081 61.4501C99.9081 61.4501 100.098 61.1758 100.154 61.2585C100.271 61.293 100.492 61.6239 100.627 61.2669L100.695 61.0884C100.59 60.7927 100.78 60.5184 101.136 60.4923L101.493 60.4662C101.554 60.4187 102.113 59.8571 102.174 59.8096C102.248 59.5001 102.265 59.1086 102.659 59.5567C102.72 59.5092 102.898 59.4962 103.021 59.4004C103.144 59.3046 103.568 59.1 103.568 59.1C103.574 58.9698 103.586 58.7085 103.53 58.6258C103.53 58.6258 103.604 58.3163 103.733 58.0903C103.862 57.8635 104.458 57.7769 104.463 57.6466C104.408 57.5639 104.716 57.3241 104.832 57.3593C104.949 57.3937 105.484 57.3546 105.55 57.1768C105.557 57.0459 105.753 56.6413 105.87 56.6758C105.986 56.711 106.226 56.6497 106.232 56.5194C106.177 56.4367 106.251 56.1272 106.484 56.1969L106.852 55.9103C107.024 56.0275 107.202 56.0145 107.215 55.7532C107.165 55.5403 107.251 54.9696 107.306 55.0523C107.362 55.135 145.56 25.4777 145.622 25.4295C145.69 25.251 145.88 24.9767 145.996 25.0119L146.052 25.0946C146.28 25.2945 146.463 25.1512 146.414 24.9383C146.199 24.4764 146.445 24.2848 146.739 24.307L147.034 24.3284C147.163 24.1024 147.414 23.7806 147.604 23.5063L147.955 23.6104C148.305 23.7153 148.545 23.654 148.624 23.215C148.624 23.215 148.747 23.1193 148.802 23.202L149.153 23.3061C149.158 23.1759 149.17 22.9147 149.122 22.7009L149.428 22.4619C149.79 22.3055 150.036 22.114 150.098 22.0657C150.159 22.0182 150.288 21.7914 150.411 21.6956C150.534 21.5999 151.185 21.5959 151.258 21.2872C151.325 21.1087 151.706 20.5601 151.879 20.6773C152.05 20.7953 152.381 20.0337 152.689 19.7939C152.934 19.6023 153.72 19.2414 153.665 19.1587C153.61 19.076 153.511 18.6493 153.683 18.7672L153.793 18.9327C153.849 19.0154 154.089 18.9541 154.333 18.7633C154.518 18.6192 155.176 18.4843 155.108 18.6628C155.041 18.8413 153.745 19.9776 153.493 20.2994C153.242 20.6212 153.414 20.7391 153.598 20.5951L153.838 20.5345C153.843 20.4043 153.917 20.0948 153.985 19.9163C154.113 19.6902 154.685 20.1253 154.808 20.0295C154.869 19.982 154.881 19.7208 154.71 19.6028L154.654 19.5201C154.494 19.1417 154.549 19.2244 154.31 19.285L153.855 18.8844C153.726 19.1112 153.535 19.3854 153.535 19.3854L153.474 19.433L153.34 19.79C153.53 19.5157 153.954 19.3111 154.31 19.285C154.665 19.2596 155.212 18.9592 155.342 18.7325C155.409 18.554 156.072 18.2888 156.14 18.1103C156.207 17.9318 155.986 17.6009 155.868 17.5664C155.868 17.5664 155.512 17.5925 155.451 17.6401C155.328 17.7358 155.15 17.7489 155.218 17.5704C155.285 17.3919 155.493 16.7261 155.493 16.7261C155.438 16.6434 155.801 16.4863 155.862 16.4388C155.924 16.3905 156.329 16.5781 156.445 16.6134C156.618 16.7305 157.336 16.5481 157.391 16.6308C157.509 16.6653 157.348 16.2869 157.232 16.2517L157.17 16.2999L156.931 16.3605C156.691 16.4218 156.457 16.3521 156.408 16.1384L156.353 16.0557C156.236 16.0212 156.064 15.9033 156.303 15.8427L156.604 15.7339C156.967 15.5768 157.39 15.3729 157.513 15.2772C157.753 15.2158 158.324 14.393 158.33 14.2628C158.397 14.0843 158.581 13.941 158.71 13.7142L158.889 13.7012L158.95 13.6536L159.067 13.6881C159.3 13.7578 159.423 13.662 159.429 13.5318C159.435 13.4008 159.742 13.1617 159.92 13.1487C160.098 13.1356 160.479 12.5871 160.773 12.6092L161.068 12.6314C161.068 12.6314 161.118 12.8443 161.173 12.9271L161.228 13.0098C161.284 13.0925 161.289 12.9623 161.24 12.7485C161.191 12.5356 161.51 12.0345 161.449 12.0828C161.393 12.0001 161.4 11.8691 161.523 11.7733C161.645 11.6775 162.364 11.4951 162.665 11.3863C162.966 11.2774 163.475 10.5029 163.53 10.5856C163.586 10.6683 163.769 10.525 163.764 10.6553C163.819 10.738 163.69 10.9648 163.684 11.095C163.678 11.226 164.25 11.661 164.674 11.4564L164.575 11.0297L164.532 10.6858C164.07 10.4162 163.849 10.0853 164.095 9.89374L164.211 9.92896C164.444 9.99863 164.672 10.1985 164.918 10.007C164.918 10.007 164.918 10.007 164.973 10.0897C165.311 10.4558 165.311 10.4558 165.735 10.2512L165.92 10.1072C166.22 9.9991 166.349 9.77233 166.238 9.60687C166.128 9.44143 165.857 8.89756 165.979 8.80179L166.213 8.87146C166.447 8.94114 166.557 9.10659 166.49 9.28509C166.367 9.38086 166.699 9.87722 166.822 9.78145C166.945 9.68567 167.086 9.19767 167.147 9.15016C167.263 9.18537 167.559 9.20679 167.564 9.07655L167.626 9.02827C167.632 8.89803 167.638 8.76704 167.644 8.6368C167.651 8.50581 168.179 8.59765 168.185 8.46666C168.191 8.33643 168.27 7.89669 168.449 7.88364C168.627 7.87059 169.051 7.66598 169.056 7.53574C169.063 7.40475 169.136 7.09601 169.253 7.13047C169.308 7.21319 169.714 7.40081 169.775 7.3533L169.836 7.30504L170.1 6.72201C170.634 6.68287 171.169 6.64369 171.23 6.59618C171.347 6.63064 171.586 6.57008 171.531 6.48736C171.531 6.48736 171.427 6.19092 171.371 6.1082C171.261 5.94274 171.74 5.82086 171.862 5.72584C172.04 5.71279 172.23 5.43851 172.286 5.52123C172.341 5.60395 172.599 5.15117 172.605 5.02018C172.673 4.84167 173.047 4.42411 173.115 4.2456L173.12 4.11537C173.182 4.0671 173.188 3.93686 173.188 3.93686L173.833 4.06316C173.618 3.60126 173.636 3.2098 173.875 3.14924C174.115 3.08791 174.809 3.42793 174.754 3.34521C174.698 3.26248 174.65 3.04876 174.655 2.91853C174.889 2.9882 175.129 2.92688 175.361 2.99732C175.479 3.03178 175.411 3.21028 175.522 3.37573L175.577 3.45846C175.632 3.54118 175.866 3.61085 175.927 3.56334L175.933 3.43235C176.013 2.99262 176.191 2.97957 176.474 3.26297C176.596 3.16718 176.664 2.98867 176.609 2.90595C176.553 2.82322 176.387 2.57504 176.326 2.62255C176.264 2.67082 176.166 2.24414 176.289 2.14837C176.412 2.05259 176.934 2.27466 177.161 2.47532L177.327 2.72349C177.382 2.80622 177.37 3.06745 177.247 3.16323L176.941 3.4023C176.517 3.6069 176.265 3.9287 176.382 3.96392C176.492 4.12937 177.101 3.78071 177.217 3.81592C177.39 3.93311 177.617 4.13378 177.672 4.2165C177.728 4.29923 177.826 4.7259 177.876 4.93887L177.925 5.15257C177.912 5.41381 177.9 5.67504 177.772 5.90105C177.772 5.90105 177.599 5.78387 177.489 5.61842C177.378 5.45298 176.8 5.14817 176.734 5.32592C176.666 5.50442 176.642 6.02689 176.758 6.06209L176.992 6.13177C177.109 6.16623 177.225 6.20145 177.164 6.24896C177.158 6.37995 177.207 6.59291 177.324 6.62812C177.441 6.66258 178.656 5.96678 178.651 6.09702C178.589 6.14529 178.638 6.35826 178.706 6.17975C178.89 6.03646 179.289 6.35431 179.35 6.3068C179.412 6.25852 179.48 6.08003 179.48 6.08003C179.424 5.99731 179.369 5.91459 179.547 5.90152L179.67 5.80575C180.143 5.81486 180.376 5.88453 180.253 5.98032C180.13 6.07609 179.873 6.52887 179.928 6.61159C179.983 6.69432 180.272 6.84672 180.506 6.9164C180.739 6.98607 181.286 6.68568 181.23 6.60296C181.175 6.52024 181.365 6.24596 181.605 6.18539C181.783 6.17234 182.09 5.93252 181.918 5.81534C181.746 5.6974 181.733 4.70075 181.695 4.22656L182.187 3.84344C182.083 3.54701 182.15 3.3685 182.205 3.45123C182.261 3.53396 182.605 3.76908 182.61 3.63884C182.616 3.5086 182.751 3.15161 183.047 3.173C183.28 3.24268 183.937 3.10775 184.121 2.96447C184.189 2.78596 184.397 2.1202 184.821 1.91559L185.183 1.75926C185.183 1.75926 185.189 1.62827 185.134 1.54554C185.139 1.41531 185.146 1.28431 185.207 1.2368L185.392 1.09276C185.44 1.30648 185.546 1.60216 185.539 1.73315C185.533 1.86339 185.926 2.31224 186.345 2.23787L186.196 1.59823C186.203 1.46723 186.331 1.24122 186.399 1.06272C186.46 1.01521 186.638 1.00216 186.693 1.08488C186.811 1.11935 186.921 1.28479 186.933 1.02357C187.001 0.845062 187.068 0.66656 187.24 0.784501C187.413 0.901682 187.584 1.01961 187.579 1.14985C187.683 1.4463 187.61 1.75504 187.597 2.01627L187.585 2.2775C187.757 2.39544 188.23 2.40379 188.525 2.42596C188.826 2.31713 189.311 2.065 189.496 1.92097C189.679 1.77767 190.626 1.79514 190.859 1.86481C191.093 1.93448 191.639 1.6341 191.756 1.66931C191.873 1.70378 192.032 2.08295 192.254 2.41384L192.659 2.60146L192.776 2.63592C192.948 2.75387 192.935 3.01506 192.807 3.2411L192.795 3.50229C192.777 3.89375 192.777 3.89375 192.544 3.82412L192.426 3.78962L192.236 4.06393C192.279 4.40788 192.212 4.58642 192.04 4.46842C191.868 4.35051 191.315 4.78188 191.192 4.87766C191.069 4.97344 190.806 5.55646 191.045 5.49592C191.285 5.43454 191.875 5.47812 191.924 5.69191L192.164 5.63052L192.52 5.60448C192.538 5.21303 192.55 4.95174 192.55 4.95174C192.55 4.95174 192.784 5.02148 192.962 5.00835C193.085 4.91257 193.294 5.50469 193.109 5.64873L193.086 6.17046C193.129 6.51441 193.295 6.76258 193.411 6.79782C193.473 6.74956 193.756 7.03297 193.738 7.42443C193.719 7.81665 193.677 8.73058 193.738 8.68307C193.8 8.6348 194.033 8.70444 194.082 8.91812L193.898 9.06141C193.831 9.23994 193.757 9.5494 193.862 9.84517L194.156 9.86731C194.274 9.9018 194.692 11.086 194.631 11.1335L194.557 11.443C194.484 11.7518 194.472 12.013 194.582 12.1784C194.638 12.2612 194.669 12.8663 194.718 13.0801L194.693 13.6026C194.982 13.755 195.321 14.1203 195.487 14.3684L195.591 14.6649L195.751 15.0433C195.997 14.8518 196.168 14.9697 196.101 15.1482C196.034 15.3267 195.825 15.9924 195.642 16.1357L195.15 16.5188C195.132 16.9111 194.998 17.2673 194.93 17.4459C194.524 17.259 194.672 17.8986 194.377 17.8772C194.082 17.855 193.899 17.9983 193.658 18.0596C193.764 18.3554 193.634 18.5821 193.34 18.5599C193.1 18.6212 192.836 19.2042 192.836 19.2042C192.603 19.1346 192.53 19.4433 192.351 19.4564L191.995 19.4825C191.921 19.792 191.498 19.9959 191.197 20.1046L191.117 20.5444L191.111 20.6754C190.988 20.7712 190.51 20.8923 190.091 20.9666L189.951 21.4539L189.944 21.5849C189.821 21.6807 189.638 21.824 189.515 21.9197C189.392 22.0155 188.852 22.185 188.79 22.2332C188.667 22.329 188.361 22.5681 188.293 22.7465C188.226 22.925 187.618 23.2729 187.433 23.4169L187.188 23.6077C187.066 23.7035 186.943 23.7993 186.826 23.7649L186.531 23.7427C186.464 23.9212 186.267 24.3264 186.077 24.6L185.948 24.8268C185.887 24.8743 185.88 25.0052 185.936 25.088L185.924 25.3492C185.752 25.2313 185.574 25.2443 185.512 25.2926C185.451 25.3401 185.482 25.9453 185.703 26.2763L185.98 26.6898C185.551 27.0247 185.175 27.443 185.115 27.4905L185.12 27.3603L185.212 26.6594C185.433 26.9902 185.661 27.1901 185.784 27.0943C185.907 26.9985 185.63 26.585 185.52 26.4195C185.409 26.254 184.947 25.9845 184.886 26.032C184.769 25.9975 184.69 26.4372 184.677 26.6984C184.665 26.9597 185.729 27.0117 186.33 26.7947L186.342 26.5335L186.416 26.224C186.318 25.7974 186.513 25.3928 186.753 25.3323C186.993 25.271 187.705 25.2187 187.539 24.9705L187.49 24.7576L187.434 24.6748C187.557 24.5791 187.68 24.4833 187.735 24.566C187.791 24.6488 187.901 24.8142 187.963 24.7659C188.024 24.7184 188.325 24.6096 188.319 24.7405L188.074 24.9314C188 25.2409 188.105 25.5366 188.289 25.3933L188.295 25.2623L188.374 24.8233C188.62 24.6318 189.043 24.4272 189.166 24.3314C189.344 24.3183 189.492 23.7001 189.553 23.6526L189.614 23.6043L189.793 23.5912C189.971 23.5782 190.272 23.4694 190.4 23.2434L190.634 23.313C190.75 23.3482 190.818 23.1697 190.879 23.1214L190.94 23.0739C191.002 23.0257 191.119 23.0609 191.174 23.1437L191.285 23.3091C191.395 23.4745 191.439 23.8185 191.482 24.1625L190.991 24.5448C190.623 24.8322 190.85 25.0328 191.501 25.0281L192.115 24.5499C192.127 24.2887 192.201 23.9793 192.324 23.8835L192.674 23.9884C192.895 24.3192 193.184 24.4716 193.355 24.5896L193.478 24.4938C193.54 24.4456 193.49 24.2325 193.374 24.1974L193.319 24.1146C193.201 24.0801 193.018 24.2234 192.95 24.402L192.711 24.4625C192.588 24.5583 192.576 24.8196 192.275 24.9284L191.912 25.0854C191.538 25.503 191.33 26.1688 191.318 26.43L191.785 26.5694C191.908 26.4736 192.104 26.0691 192.128 25.5466L192.607 25.4247L193.553 25.4422L193.583 24.7895C193.294 24.6371 192.957 24.2709 192.962 24.1408C192.913 23.9277 193.115 23.3922 193.466 23.4964L193.638 23.6144C193.755 23.6488 193.804 23.8625 193.798 23.9927L193.791 24.1237C194.007 24.5849 194.351 24.82 194.48 24.594C194.609 24.3672 195.359 24.79 195.352 24.9209C195.346 25.0512 195.261 25.6212 195.39 25.3952C195.518 25.1691 196.949 23.6758 197.2 23.354C197.335 22.9971 196.973 23.1534 196.66 23.5235L196.463 23.9287L196.458 24.059C196.335 24.1547 196.274 24.2022 196.218 24.1195C196.163 24.0368 196.052 23.8713 195.93 23.9671C195.917 24.2284 195.966 24.4421 195.954 24.7033L195.948 24.8335C196.12 24.9515 196.476 24.9254 196.716 24.8641C196.956 24.8035 196.93 24.0681 196.992 24.0198C196.998 23.8896 197.176 23.8765 197.459 24.1592L197.655 23.7547L197.783 23.5286C197.361 23.7325 196.691 24.1287 196.274 24.2022C195.911 24.3594 195.634 23.9457 195.702 23.7672C195.708 23.6363 195.732 23.1145 195.732 23.1145C195.904 23.2317 196.07 23.4798 196.186 23.5151L196.543 23.489C196.377 23.2408 196.273 22.9444 196.278 22.8142C196.285 22.6832 197.132 22.2747 197.734 22.0571L198.004 21.343L198.132 21.117C198.243 21.2825 198.409 21.5307 198.471 21.4824C198.587 21.5176 198.888 21.4087 198.833 21.326C198.722 21.1606 198.857 20.8036 199.097 20.7422C199.336 20.6817 199.656 21.4393 199.773 21.4737C199.95 21.4615 200.559 21.1128 200.884 20.4815L201.203 19.9812L201.264 19.9337C201.498 20.0033 201.793 20.0248 201.738 19.942C201.743 19.8119 201.811 19.6333 201.755 19.5506L201.461 19.5284C201.166 19.507 200.865 19.6159 200.742 19.7117L200.619 19.8074C200.558 19.8549 200.497 19.9024 200.435 19.9507C199.901 19.9899 200.184 20.2724 200.35 20.5206L200.405 20.6034C200.399 20.7344 200.343 20.6516 200.233 20.4862C200.122 20.3207 199.753 20.608 199.637 20.5729L199.582 20.4901C199.526 20.4074 199.594 20.229 199.655 20.1814C199.895 20.1201 199.802 19.5632 200.269 19.7025C200.404 19.3455 200.594 19.0713 200.705 19.2367L200.821 19.2719L200.883 19.2237C200.951 19.0451 201.079 18.8191 201.147 18.6406C201.214 18.4621 201.472 18.0093 201.583 18.1748C201.754 18.2927 202.099 18.5278 202.105 18.3968L202.166 18.3493L202.418 18.0268C202.675 17.5747 203.106 17.2391 203.345 17.1786C203.566 17.5095 203.91 17.7446 203.831 18.1843C203.831 18.1843 203.941 18.3498 204.059 18.3843C204.12 18.3368 204.242 18.241 204.242 18.241C204.194 18.0272 204.144 17.8143 204.211 17.6358L204.218 17.5048C204.223 17.3746 204.284 17.3271 204.402 17.3615C204.457 17.4442 204.862 17.6319 204.924 17.5836C204.985 17.5361 205.231 17.3445 205.348 17.379C205.464 17.4142 205.704 17.3529 205.765 17.3054C205.71 17.2226 205.777 17.0442 205.894 17.0793C206.011 17.1138 206.49 16.9919 206.447 16.6479L206.52 16.3392C206.753 16.4089 206.926 16.5261 206.919 16.657C206.914 16.7873 206.957 17.1313 207.08 17.0355C207.203 16.9397 207.558 16.9143 207.553 17.0446C207.546 17.1756 207.767 17.5066 207.945 17.4934C208.124 17.4804 208.357 17.55 208.161 17.9546L208.026 18.3116C208.021 18.4419 207.953 18.6203 208.009 18.703C208.064 18.7858 208.175 18.9512 208.23 19.034C208.346 19.0692 208.469 18.9734 208.592 18.8777L208.72 18.6516C208.61 18.4861 208.505 18.1897 208.511 18.0595L208.573 18.0112C208.701 17.7852 209.482 17.5545 209.648 17.8026L209.703 17.8854C209.636 18.0639 209.562 18.3726 209.495 18.5512C209.427 18.7296 209.397 19.3831 209.397 19.3831C209.452 19.4658 209.329 19.5615 209.102 19.3609L208.918 19.5042C208.844 19.8137 208.955 19.9791 209.072 20.0136C209.188 20.0488 209.882 20.3888 210.159 20.8025L210.768 21.7124C210.566 22.2472 210.369 22.6525 210.314 22.5697C210.259 22.487 210.025 22.4174 210.02 22.5476C210.013 22.6785 210.29 23.0922 210.229 23.1397C210.167 23.188 210.032 23.545 210.265 23.6147L210.327 23.5664C210.45 23.4707 210.523 23.1619 210.646 23.0661C210.769 22.9703 210.898 22.7435 211.064 22.9918C211.175 23.1572 211.224 23.3709 211.163 23.4184L210.973 23.6927C210.782 23.967 210.371 23.9104 210.155 23.4492L209.781 23.8668L209.529 24.1886C209.874 24.4237 210.04 24.6718 209.917 24.7676C209.794 24.8634 209.364 25.1982 209.254 25.0328C209.198 24.9501 208.965 24.8804 208.897 25.059C208.885 25.3202 208.799 25.8909 208.688 25.7254C208.633 25.6427 208.289 25.4076 208.283 25.5378C208.277 25.6688 207.952 26.2993 207.645 26.5391L207.375 27.2531C207.13 27.4439 206.761 27.7313 206.516 27.9228L206.208 28.1627C206.147 28.2102 205.841 28.4492 205.54 28.558C205.239 28.6669 204.668 29.4898 204.551 29.4545C204.489 29.5028 204.127 29.6591 204.005 29.7549C203.882 29.8506 203.452 30.1855 203.274 30.1986C203.096 30.2116 202.881 31.0083 202.753 31.2344L202.414 30.8691L202.304 30.7035C202.175 30.9296 202.046 31.1564 201.978 31.3348C201.911 31.5134 201.838 31.8221 201.72 31.7877C201.604 31.7524 201.168 32.2183 201.101 32.3967C200.978 32.4925 200.493 32.7447 200.431 32.793C200.37 32.8405 200.235 33.1974 200.23 33.3277C200.223 33.4586 199.867 33.4848 199.806 33.5323C199.744 33.5806 199.432 33.9499 199.302 34.1766C199.167 34.5336 198.154 34.6939 197.909 34.8854C197.663 35.077 197.326 35.9696 197.265 36.0171C197.142 36.1128 196.773 36.4002 196.761 36.6614L196.287 36.653C196.109 36.6661 195.913 37.0706 195.73 37.2139C195.545 37.3579 195.306 37.4185 195.121 37.5625C194.998 37.6583 194.932 37.8361 194.747 37.9801L194.496 38.3019C194.329 38.0537 194.274 37.971 194.385 38.1364C194.496 38.302 193.894 38.5195 193.765 38.7456L193.58 38.8896L192.85 39.3333C192.058 39.8253 191.259 40.4474 190.953 40.6864C190.707 40.878 190.136 41.7009 190.075 41.7484C190.013 41.7967 189.823 42.0709 189.577 42.2625L189.461 42.2273C189.111 42.1223 189.032 42.5622 188.792 42.6234L188.435 42.6495C188.189 42.841 187.883 43.0801 187.699 43.2234C187.576 43.3192 187.189 43.9988 186.877 44.368L186.459 44.4425L186.219 44.503C185.967 44.8256 185.661 45.0646 185.538 45.1604C185.36 45.1734 185.225 45.5305 185.108 45.4953C184.991 45.4608 184.635 45.4869 184.567 45.6653C184.501 45.8431 184.175 46.4744 184.052 46.5702C183.93 46.6659 183.506 46.8706 183.389 46.8354C183.211 46.8484 182.824 47.5279 182.512 47.8973C182.199 48.2674 181.112 48.7372 181.105 48.8681C181.1 48.9984 180.626 48.99 180.503 49.0858C180.442 49.1333 180.252 49.4076 180.197 49.3248C180.079 49.2903 179.963 49.2552 179.957 49.3854C180.013 49.4681 179.823 49.7424 179.644 49.7555C179.404 49.8167 179.079 50.448 178.957 50.543L178.84 50.5087C178.367 50.4994 178.182 50.6435 178.042 51.1308C177.907 51.4878 177.384 51.2658 177.256 51.4917C177.121 51.8488 176.931 52.123 176.691 52.1844C176.451 52.2449 176.391 52.2924 176.323 52.471C176.261 52.5192 175.96 52.628 175.96 52.628C176.003 52.972 175.659 52.7368 175.592 52.9154C175.579 53.1766 175.524 53.0939 175.347 53.1062L175.051 53.0847C174.861 53.359 174.364 53.8724 173.99 54.29C173.615 54.7082 172.147 55.7266 172.019 55.9526L171.344 56.479C170.852 56.8621 170.356 57.3755 170.288 57.554C170.221 57.7324 169.496 58.0459 169.195 58.1547L168.949 58.3463C168.703 58.5378 168.397 58.7769 168.09 59.016L129.946 88.7567C129.774 88.6388 129.657 88.6043 129.596 88.6518C129.596 88.6518 129.467 88.8786 129.461 89.0089C129.455 89.1398 129.259 89.5444 129.141 89.5099C129.025 89.4747 128.522 90.1191 128.092 90.4539C127.663 90.7888 126.324 91.581 126.201 91.6768C126.078 91.7726 125.697 92.3212 125.465 92.2507C125.286 92.2638 124.961 92.8951 124.776 93.0391C124.654 93.1349 124.157 93.6482 123.973 93.7915C123.788 93.9355 123.125 94.2007 123.002 94.2965C122.935 94.475 122.443 94.8582 122.265 94.8712C122.087 94.8842 121.523 95.5761 121.222 95.6849L120.921 95.7937L120.681 95.8543C120.368 96.2243 119.865 96.8687 119.435 97.2036C119.006 97.5384 117.588 98.7696 117.28 99.0095L116.826 98.6089C116.58 98.8005 116.512 98.979 116.568 99.0617C116.623 99.1444 116.734 99.3099 116.611 99.4057C116.488 99.5015 115.991 100.015 115.863 100.241L115.328 100.28C115.211 100.245 114.978 100.175 114.856 100.271C114.849 100.402 114.899 100.615 114.899 100.615L114.112 100.977C113.487 101.716 112.872 102.195 112.817 102.112C112.762 102.029 112.357 101.842 112.289 102.02L112.166 102.116C111.859 102.356 112.147 102.508 112.08 102.687C112.012 102.865 111.834 102.878 111.767 103.057C111.645 103.152 111.516 103.379 111.448 103.557L111.387 103.605C111.209 103.618 111.024 103.762 110.846 103.775C110.668 103.788 110.411 104.24 110.288 104.336C110.281 104.467 109.741 104.636 109.674 104.814C109.606 104.993 108.931 105.519 108.618 105.889L108.09 105.798C107.973 105.763 107.727 105.955 107.721 106.085L107.58 106.573C107.218 106.729 106.739 106.851 106.555 106.995L106.61 107.077C106.703 107.635 106.125 107.33 106.052 107.639L105.978 107.948C105.683 107.926 105.143 108.096 104.78 108.252L104.701 108.692L104.627 109.001C104.339 108.848 103.921 108.922 103.792 109.149L103.786 109.279C103.829 109.623 103.485 109.388 103.418 109.567L103.356 109.614C103.295 109.662 103.049 109.854 102.748 109.962C102.447 110.071 101.263 111.373 101.201 111.42C100.907 111.398 100.612 111.377 100.594 111.768C100.514 112.208 100.237 111.794 100.047 112.069L99.9182 112.295C99.6173 112.404 99.0709 112.704 98.6964 113.122L98.328 113.409C98.0824 113.6 97.8308 113.923 97.6588 113.805L97.2532 113.618C97.1796 113.927 97.0508 114.153 96.9894 114.201C96.9281 114.249 96.6825 114.44 96.4983 114.584L96.3141 114.728C96.1913 114.823 96.0625 115.05 95.995 115.228C95.8784 115.193 95.7062 115.076 95.5895 115.041C95.4727 115.006 95.4546 115.398 95.5038 115.611L95.1355 115.898C94.8899 116.09 94.577 116.46 94.3314 116.651L93.7295 116.869C93.484 117.06 93.183 117.169 93.0662 117.134C93.0109 117.051 92.7835 116.851 92.7835 116.851C92.7835 116.851 92.7775 116.981 92.8328 117.064C92.8881 117.147 92.9253 117.621 92.7472 117.634L92.6304 117.6C92.1635 117.46 92.1636 117.46 92.0779 118.03L92.0165 118.078C91.9551 118.126 91.7649 118.4 91.458 118.64C91.151 118.879 90.1315 119.17 90.064 119.349C89.9966 119.527 89.7017 119.506 89.7692 119.327C89.7752 119.196 89.7381 118.722 89.6092 118.948C89.4803 119.175 89.3334 119.793 89.3272 119.923L89.2659 119.971C89.1431 120.067 88.965 120.08 88.8422 120.176C88.7195 120.271 88.6519 120.45 88.5906 120.498C88.4677 120.593 88.2836 120.737 88.1607 120.833L87.6264 120.872C87.252 121.29 86.9329 121.79 86.8101 121.886L86.632 121.899C86.3925 121.96 85.9073 122.212 85.7785 122.438L85.5208 122.891C85.1032 122.965 84.7409 123.122 84.7349 123.252C84.7288 123.383 83.8753 123.922 83.3842 124.305L82.6475 124.88C82.2791 125.167 81.7819 125.681 81.5302 126.003L81.168 126.159C80.9284 126.22 80.388 126.39 80.2099 126.403C80.0931 126.368 79.9643 126.594 79.9643 126.594C80.1242 126.973 80.0569 127.151 79.6452 127.095C79.6452 127.095 79.3936 127.417 79.1419 127.739L78.841 127.848C78.4787 128.004 78.1778 128.113 78.0983 128.553C78.0921 128.683 77.8527 128.744 77.6746 128.757L77.5517 128.853C77.3736 128.866 77.2447 129.092 77.2388 129.223C77.1712 129.401 76.5081 129.667 76.3852 129.762C76.2625 129.858 75.5872 130.385 75.3355 130.707L74.9239 130.65C74.9239 130.65 74.9178 130.781 74.8565 130.828L74.2918 131.521C73.8681 131.725 73.4444 131.929 73.3277 131.895C73.2663 131.943 72.8304 132.408 72.4007 132.743L72.0263 133.161L71.9649 133.209C71.7929 133.091 71.6147 133.104 71.67 133.187C71.7807 133.353 71.0993 134.01 70.6695 134.345L70.3132 134.371C70.2459 134.549 70.0003 134.741 69.7547 134.932L69.4538 135.041C69.2143 135.102 69.4235 135.694 68.9565 135.554C68.8398 135.52 68.7724 135.698 68.711 135.746C68.6496 135.794 68.6436 135.924 68.5268 135.89L68.404 135.985C68.2812 136.081 68.0356 136.273 67.9068 136.499L67.6734 136.429C67.2679 136.242 67.4771 136.834 67.1208 136.86C66.7645 136.886 66.666 136.459 66.4325 136.39C66.3158 136.355 66.1316 136.498 66.0642 136.677L65.9354 136.903C65.8618 137.212 65.8497 137.473 65.9665 137.508C66.0278 137.46 66.0771 137.674 65.893 137.817L65.6534 137.878C65.5307 137.974 65.3524 137.987 65.2297 138.083L64.8614 138.37C64.3944 138.23 64.0995 138.209 64.2102 138.374C64.2655 138.457 64.4134 139.097 64.1678 139.288C63.9222 139.48 63.2097 139.532 63.2097 139.532L63.1977 139.793C63.1362 139.841 62.946 140.115 62.7004 140.306C62.4549 140.498 61.6688 140.859 61.5521 140.824C61.4354 140.789 61.1898 140.981 61.2451 141.063C61.3005 141.146 60.9875 141.516 60.9322 141.433C60.9322 141.433 60.7047 141.233 60.4773 141.033L60.275 141.568C60.2015 141.877 60.0172 142.021 59.8884 142.247L59.7657 142.343C59.5815 142.487 59.348 142.417 59.2373 142.251L59.1266 142.086C59.016 141.921 58.9053 141.755 58.7211 141.899C58.4755 142.09 58.7643 142.243 58.8196 142.325L58.875 142.408C58.869 142.539 58.8075 142.586 58.6908 142.552C58.574 142.517 58.2732 142.625 58.2611 142.887L58.4271 143.135C58.421 143.265 58.3596 143.313 58.2982 143.361L58.2368 143.409C58.1201 143.374 57.948 143.257 57.776 143.139C57.6039 143.022 57.2416 143.178 57.3583 143.213C57.475 143.248 57.635 143.627 57.4327 144.162L56.9043 144.07L56.6709 144.001C56.6034 144.179 56.4746 144.405 56.4072 144.584C56.3397 144.762 55.5658 144.862 55.5044 144.91L55.3816 145.006C55.3202 145.054 55.3756 145.137 55.4309 145.219C55.4309 145.219 55.4126 145.611 55.0997 145.981L54.8049 145.959L54.3871 146.033C54.1355 146.355 53.9513 146.499 53.896 146.416C53.9021 146.285 53.3859 145.933 52.8514 145.972L52.643 146.638L52.4469 147.042C51.9064 147.212 51.4887 147.286 51.6115 147.19L51.5129 146.764C51.8752 146.607 52.1761 146.498 52.2375 146.45C52.2989 146.402 52.0776 146.072 51.8259 146.394L51.7706 146.311L51.1809 146.267C51.2794 146.694 51.3288 146.907 51.212 146.872C51.1567 146.79 50.9231 146.72 50.8618 146.768C50.8004 146.816 50.6655 147.173 50.7208 147.255C50.7762 147.338 50.6966 147.778 50.6292 147.956C50.6171 148.217 50.8142 149.071 50.7035 148.905C50.5928 148.74 50.1873 148.552 50.1259 148.6C50.0031 148.696 49.6408 148.853 49.5794 148.901C49.5181 148.948 49.3891 149.175 49.512 149.079C49.6288 149.114 49.985 149.088 50.1017 149.123L50.157 149.205C50.157 149.205 50.151 149.336 50.0896 149.384L49.8501 149.445C49.5492 149.553 49.3157 149.484 49.205 149.318C49.0943 149.153 48.867 148.953 48.7994 149.131C48.7321 149.309 48.9474 149.771 48.9412 149.902C48.9352 150.032 48.5669 150.319 48.5669 150.319C48.5054 150.367 48.2227 150.084 48.1795 149.74C48.1362 149.396 47.8102 148.769 47.7921 149.161C47.7739 149.553 47.6702 150.515 47.492 150.528C47.3139 150.541 47.2897 151.063 47.345 151.146C47.3389 151.277 46.9646 151.695 46.7924 151.577C46.6204 151.459 47.0069 150.78 47.0744 150.602C47.1418 150.423 47.4609 149.923 47.4055 149.84C47.4116 149.71 47.2456 149.461 47.1903 149.379C47.1288 149.427 47.0061 149.522 46.9447 149.57L46.9326 149.831C46.9205 150.093 46.9084 150.354 46.9084 150.354C46.847 150.402 46.7302 150.367 46.5582 150.249C46.5028 150.166 46.0973 149.979 45.9806 149.944C45.8638 149.909 45.5136 149.805 45.5076 149.935C45.4462 149.983 45.428 150.375 45.4159 150.636L45.8457 150.301C46.1344 150.454 46.4233 150.606 46.4233 150.606C46.4233 150.606 46.4112 150.867 46.2884 150.963L46.0428 151.154C45.92 151.25 45.8525 151.429 45.9079 151.511C45.8465 151.559 45.607 151.62 45.6009 151.751C45.5948 151.881 45.4107 152.025 45.294 151.99C45.1219 151.873 44.6489 151.864 44.5754 152.173L44.4405 152.53C44.2624 152.543 43.9674 152.521 43.6726 152.499L43.2057 152.36C43.0769 152.586 42.9419 152.943 42.9359 153.073L42.9177 153.465C42.961 153.809 42.8321 154.035 42.5926 154.096C42.3531 154.157 41.8247 154.066 41.702 154.161C41.5239 154.174 41.2169 154.414 41.389 154.531L41.3829 154.662C41.3769 154.793 41.248 155.019 41.2419 155.149C41.3587 155.184 41.4694 155.35 41.4079 155.398C41.3465 155.445 41.1684 155.458 41.0517 155.424C40.9349 155.389 40.2285 155.31 39.9155 155.68L40.309 156.129C40.4196 156.294 40.1066 156.664 39.9345 156.546C39.7625 156.429 39.7071 156.346 39.8359 156.12C39.8973 156.072 39.9094 155.811 39.7926 155.776L39.5653 155.576C39.6146 155.789 39.4243 156.063 39.1849 156.124C39.0007 156.268 38.6141 156.947 38.436 156.96L38.3746 157.007C38.3132 157.055 38.0737 157.116 38.0676 157.247L37.9327 157.604C37.6318 157.713 37.2142 157.786 37.2142 157.786C37.1527 157.834 36.9072 158.026 36.7169 158.3L36.4221 158.278L36.3053 158.243C36.1272 158.256 36.0598 158.435 36.1704 158.6C36.2258 158.683 36.2569 159.288 36.0113 159.479C35.7658 159.671 35.1579 160.019 35.1519 160.15L35.2071 160.232L35.2011 160.363C35.1951 160.494 35.1951 160.494 35.0783 160.459L35.023 160.376L35.0723 160.589C34.9555 160.554 34.71 160.746 34.5751 161.103L34.2248 160.998C34.2128 161.259 34.0839 161.486 33.9058 161.499C33.7277 161.512 33.476 161.834 33.2919 161.977C33.0524 162.038 32.7272 162.669 32.6597 162.848C32.537 162.944 32.0519 163.196 31.9231 163.422L31.5728 163.318L31.2779 163.296C31.0877 163.57 30.83 164.023 30.5844 164.214L30.3268 164.667C30.0872 164.728 29.6756 164.671 29.4975 164.684L29.4794 165.076C29.5225 165.42 29.1785 165.185 29.0557 165.28C28.9329 165.376 28.798 165.733 28.7366 165.781C28.3803 165.807 28.1962 165.951 27.9506 166.142C27.6437 166.381 27.2259 166.455 27.2017 166.978C27.1403 167.025 26.9008 167.086 26.7228 167.099C26.5446 167.112 25.9366 167.46 25.8018 167.817L25.5009 167.926C25.0157 168.178 24.414 168.396 23.8734 168.566C23.7507 168.661 23.5847 168.413 23.4066 168.426C23.2898 168.391 23.1731 168.356 23.1116 168.404C22.9889 168.5 22.9214 168.679 22.8601 168.726L22.7987 168.774C22.6266 168.657 22.3931 168.587 22.1537 168.648C21.9141 168.709 21.5397 169.127 21.4722 169.305L21.2941 169.318C20.9378 169.344 20.6369 169.453 20.1458 169.836C20.0844 169.884 19.9123 169.766 19.8569 169.683C19.8691 169.422 19.9979 169.196 19.5742 169.4C19.3901 169.544 19.2854 169.248 19.3529 169.069L19.3589 168.939C19.365 168.808 19.2543 168.643 19.1376 168.608C19.0208 168.573 19.1557 168.216 19.2724 168.251C19.3892 168.286 19.6468 167.833 19.819 167.951L19.9357 167.986C20.0524 168.02 20.0464 168.151 20.1018 168.234C20.157 168.316 20.2798 168.221 20.3966 168.256L20.458 168.208C20.5193 168.16 20.5315 167.899 20.5435 167.637C20.5557 167.376 20.3525 166.654 20.2357 166.619C20.0636 166.501 19.6832 167.05 19.5051 167.063L19.4497 166.98L19.2223 166.78C18.9335 166.627 18.7553 166.64 18.8047 166.853C18.7986 166.984 19.0692 167.528 18.8358 167.459C18.6023 167.389 17.8224 167.619 17.6442 167.632C17.4661 167.645 17.4964 166.992 17.7298 167.062C17.908 167.049 18.4424 167.01 18.5038 166.962C18.5098 166.832 18.4666 166.488 18.4173 166.274L18.7736 166.248C18.8903 166.283 19.0745 166.14 19.0192 166.057C18.9698 165.844 18.9145 165.761 18.6749 165.822L18.4969 165.835C18.2081 165.682 18.042 165.434 18.1095 165.256L18.1215 164.994C18.0109 164.829 17.8328 164.842 17.7161 164.807C17.6546 164.855 17.1203 164.894 16.7579 165.051L17.0718 165.939C16.7095 166.095 16.4146 166.074 16.4821 165.895C16.5496 165.717 16.617 165.538 16.5616 165.455C16.5002 165.503 16.15 165.399 15.9166 165.329L15.5604 165.355C15.4929 165.534 15.192 165.642 15.0139 165.655L14.8911 165.751C14.7069 165.895 14.5841 165.99 14.3999 166.134C14.0929 166.373 13.792 166.482 13.5404 166.804C13.3502 167.078 13 166.974 12.7483 167.296C12.6255 167.392 12.386 167.452 12.2079 167.465L11.913 167.444C11.6674 167.635 11.2438 167.84 10.9368 168.079C10.6972 168.14 9.44431 168.361 9.02669 168.435L8.66436 168.592L8.48017 168.736C8.2346 168.927 7.87227 169.084 7.69412 169.097L6.80351 169.162C6.58824 168.7 6.43429 168.191 6.38504 167.978L6.07203 168.348C5.88785 168.491 5.7097 168.504 5.66037 168.291L5.54971 168.125C5.50046 167.912 5.32834 167.794 5.21165 167.76C5.0949 167.725 4.8061 167.572 4.86749 167.524C4.87352 167.394 5.01448 166.906 5.02052 166.776L4.78104 166.837C4.54149 166.897 4.42474 166.863 4.37548 166.649L4.33225 166.305C4.15411 166.318 3.52114 165.931 3.01103 165.448L2.31057 165.238C2.21205 164.812 2.10743 164.516 1.98464 164.611C1.92325 164.659 1.62834 164.637 1.69584 164.459C1.70791 164.198 1.30845 163.88 1.36984 163.832C1.43124 163.784 1.45544 163.262 1.28339 163.144L1.11128 163.027C0.883867 162.826 0.650427 162.757 0.545807 162.461C0.435085 162.295 0.453252 161.903 0.465388 161.642C0.366801 161.215 0.729132 161.059 0.735165 160.928L0.69194 160.584C0.876122 160.441 1.11566 160.38 1.17706 160.332C1.23846 160.284 1.33618 159.453 1.45896 159.357C1.58176 159.261 1.90079 158.761 2.02358 158.665L2.15247 158.439C2.27526 158.343 2.63149 158.317 2.69892 158.138C2.82781 157.912 2.8892 157.864 3.12867 157.803C3.30683 157.79 3.43565 157.564 3.55843 157.468L3.76078 156.933C3.8654 157.229 4.11709 156.907 4.20267 156.337L4.74919 156.036L4.81058 155.989C4.87801 155.81 5.0008 155.714 5.0622 155.666C5.12359 155.619 5.55334 155.283 5.6943 154.796L6.29007 154.709C6.46822 154.696 6.67057 154.161 6.78726 154.195L7.19885 154.252C7.27238 153.943 7.41333 153.456 7.54215 153.229L7.67104 153.003C7.79986 152.777 8.04545 152.585 8.28499 152.524C8.64725 152.368 9.00961 152.211 9.1505 151.724L9.28536 151.367C9.59237 151.127 9.89937 150.888 10.0161 150.923L10.2496 150.993C10.4217 151.11 10.5505 150.884 10.5626 150.623C10.5747 150.361 11.3607 150 11.6063 149.809C11.8519 149.617 12.3059 148.76 12.4347 148.533L12.6188 148.39C12.9872 148.103 13.1714 147.959 13.3003 147.733C13.3617 147.685 13.3677 147.554 13.4291 147.506L13.5519 147.411C13.6193 147.232 13.8096 146.958 13.877 146.78L14.1226 146.588C14.3561 146.658 14.3622 146.527 14.1962 146.279L14.5584 146.122C14.7425 145.979 15.0435 145.87 15.1171 145.561L15.2398 145.465C15.3505 145.631 15.4611 145.796 15.59 145.57C15.6514 145.522 15.5468 145.226 15.5528 145.095C15.6817 144.869 15.872 144.595 16.0621 144.321L16.3077 144.129C16.6701 143.973 16.9217 143.65 17.0444 143.555C17.1119 143.376 17.4863 142.958 17.603 142.993C17.7258 142.898 18.0942 142.61 18.0942 142.61C18.1002 142.48 18.2291 142.253 18.2844 142.336C18.3397 142.419 18.5793 142.358 18.7021 142.262C18.7695 142.084 19.0825 141.714 19.2606 141.701C19.3774 141.736 19.7951 141.662 19.8564 141.614C19.8625 141.483 19.8806 141.092 19.8867 140.961C19.8928 140.83 20.3225 140.495 20.4453 140.4L20.7523 140.16C20.9365 140.017 21.3049 139.729 21.6058 139.621L21.79 139.477C21.8514 139.429 21.9127 139.381 21.9188 139.251L22.1272 138.585C22.5388 138.641 22.8397 138.533 22.7843 138.45C22.729 138.367 22.6858 138.023 22.8639 138.01L23.0481 137.867C23.1709 137.771 23.2444 137.462 23.2565 137.201L23.5635 136.961C23.5755 136.7 23.4036 136.583 23.2314 136.465L23.1086 136.561C22.8691 136.622 22.9798 136.787 23.0292 137C23.0845 137.083 22.9002 137.227 22.7775 137.322C22.5872 137.597 22.397 137.871 22.2189 137.884C21.8627 137.91 21.6724 138.184 21.4268 138.376C21.1812 138.567 20.9356 138.759 20.6901 138.95C20.4445 139.141 20.1989 139.333 19.9533 139.524C19.6403 139.894 19.2961 139.659 18.9459 139.555L18.5958 139.45C18.3502 139.642 18.16 139.916 18.0372 140.011C17.9697 140.19 17.7855 140.334 17.6627 140.429C17.5399 140.525 17.1283 140.468 16.9503 140.481C16.8335 140.446 16.2931 140.616 16.287 140.747L16.2809 140.877C16.3302 141.091 16.3302 141.091 16.5757 140.899C16.6372 140.851 16.6986 140.803 16.6986 140.803C16.7539 140.886 16.8646 141.052 16.8032 141.099C16.619 141.243 16.4842 141.6 16.2628 141.269L16.1521 141.104C16.0475 140.808 15.9368 140.642 15.9428 140.512C15.8875 140.429 15.8321 140.346 15.7708 140.394L15.7094 140.442C15.648 140.49 15.5866 140.538 15.5191 140.716L15.2675 141.038C15.5564 141.191 15.661 141.487 15.5321 141.713C15.4033 141.939 14.7893 142.418 14.7339 142.335L14.5679 142.087C14.5187 141.874 14.4019 141.839 14.3406 141.887C14.2792 141.935 13.9229 141.961 13.7015 141.63L13.6401 141.678L13.4378 142.213C13.2285 141.621 13.1974 141.016 13.3756 141.003L13.5537 140.99C13.7319 140.977 13.9099 140.964 14.0328 140.868C14.0941 140.82 14.2169 140.724 14.223 140.594L14.2904 140.415C14.4746 140.272 14.6095 139.915 14.677 139.736L14.5663 139.571C14.3881 139.584 14.0319 139.61 13.9091 139.706L13.8416 139.884C13.8356 140.015 14.063 140.215 13.8235 140.276L13.584 140.337C13.3505 140.267 13.1663 140.411 13.2156 140.624C13.2649 140.837 12.7858 140.959 12.7919 140.828C12.7366 140.746 12.6812 140.663 12.6198 140.711C12.5585 140.759 12.3682 141.033 12.4236 141.116C12.4789 141.198 12.5221 141.542 12.4608 141.59C12.344 141.555 12.3501 141.425 12.2333 141.39L11.8831 141.285C11.5761 141.525 11.3306 141.716 11.2691 141.764C11.2078 141.812 10.925 141.529 10.9493 141.006L11.3668 140.933L11.7231 140.907C11.9687 140.715 12.1036 140.358 11.9929 140.193C11.8822 140.027 11.5441 139.662 11.4828 139.709C11.4214 139.757 11.2311 140.031 11.3479 140.066L11.4586 140.232C11.5139 140.314 11.3851 140.541 11.2622 140.637C11.0842 140.65 10.7279 140.676 10.7953 140.497L10.74 140.414C10.6846 140.332 10.4512 140.262 10.3344 140.227C10.3344 140.227 10.2056 140.453 10.1442 140.501C10.0828 140.549 9.9047 140.562 9.78794 140.527C9.78794 140.527 9.73868 140.314 9.8001 140.266C9.86142 140.218 10.1623 140.11 10.4633 140.001C10.7642 139.892 11.341 138.939 11.4577 138.974L11.5191 138.926C11.5805 138.878 11.6479 138.699 11.654 138.569L11.5433 138.403C11.4265 138.369 11.488 138.321 11.494 138.19C11.5001 138.059 11.7456 137.868 11.807 137.82C11.9238 137.855 12.1633 137.794 12.1694 137.664C12.1755 137.533 12.421 137.341 12.593 137.459C12.7651 137.577 13.2874 137.799 13.3488 137.751C13.3488 137.751 13.1828 137.503 12.9 137.22L12.6233 136.806C12.6968 136.497 12.8197 136.401 12.881 136.353L12.9363 136.436L13.1084 136.554C13.3359 136.754 13.4033 136.576 13.3048 136.149L13.4336 135.923L13.5071 135.614C13.4025 135.318 13.4145 135.056 13.5313 135.091C13.6481 135.126 13.9429 135.148 14.1271 135.004L14.4833 134.978C14.7228 134.917 14.8516 134.691 14.741 134.526C14.6303 134.36 14.581 134.147 14.6424 134.099L14.7039 134.051C14.9434 133.99 15.1768 134.06 15.361 133.916C15.4224 133.868 15.3239 133.442 15.3852 133.394L15.5694 133.25C15.7536 133.107 15.9378 132.963 16.0545 132.998C16.1159 132.95 16.3001 132.806 16.1341 132.558L16.0234 132.393L15.9741 132.18C15.9248 131.966 16.2379 131.596 16.7169 131.475L16.8699 130.726C16.9495 130.286 16.857 129.729 17.5634 129.808C17.637 129.498 17.8272 129.224 17.9992 129.342L18.1774 129.329L18.2941 129.364C18.3555 129.316 18.5397 129.172 18.6625 129.076C18.7852 128.981 19.043 128.528 19.1718 128.302C19.2392 128.123 19.8532 127.645 20.0374 127.501C20.2215 127.357 20.4299 126.691 20.6634 126.761C20.8415 126.748 21.3638 126.97 21.3577 127.101C21.4131 127.184 21.6958 127.467 21.8187 127.371L22.187 127.084C22.1498 126.609 22.1126 126.135 22.1248 125.873C22.1368 125.612 22.1671 124.959 22.2839 124.994L22.3452 124.946L22.7629 124.872C22.8122 125.086 22.8554 125.43 22.8494 125.56L22.8373 125.821C22.954 125.856 23.1261 125.974 23.1321 125.843C23.1936 125.795 23.2731 125.356 23.3526 124.916L23.8256 124.925L23.9424 124.96C24.0591 124.995 24.1326 124.686 24.0834 124.472C24.034 124.259 24.0704 123.475 24.2485 123.462L24.3713 123.367L24.6108 123.306C24.9057 123.328 25.2066 123.219 25.3233 123.254C25.4461 123.158 25.6614 123.619 25.7781 123.654C25.8949 123.689 26.0176 123.593 26.1344 123.628C26.1897 123.711 26.38 123.437 26.3307 123.223C26.22 123.058 26.7051 122.806 26.8279 122.71C26.8893 122.662 27.1469 122.209 27.5093 122.053L28.0618 121.622C28.4241 121.465 28.6697 121.274 28.6204 121.061C28.6265 120.93 28.0489 120.625 28.055 120.494ZM185.32 3.918C185.277 3.57405 185.049 3.37415 184.692 3.40025L184.447 3.59181L184.085 3.74814C183.778 3.98721 183.649 4.21398 183.827 4.20093C184.005 4.18788 185.363 4.26196 185.32 3.918ZM189.872 4.01914C189.877 3.8889 189.595 3.60552 189.251 3.37038L188.391 4.04083C188.429 4.51502 188.643 4.97691 188.938 4.99908L189 4.95081L189.128 4.7248C189.202 4.4153 189.331 4.18928 189.448 4.22374C189.62 4.34168 189.865 4.15013 189.872 4.01914ZM205.289 22.4595C205.351 22.4112 205.424 22.1025 205.381 21.7586C205.338 21.4146 204.582 21.1229 204.644 21.0746L204.533 20.9091C204.293 20.9705 204.11 21.1138 204.103 21.2447C204.097 21.375 204.386 21.5273 204.502 21.5626C204.62 21.597 204.779 21.9762 204.952 22.0934C205.068 22.1286 205.228 22.507 205.289 22.4595ZM17.955 136.677C18.0657 136.842 17.943 136.938 17.8262 136.903C17.6481 136.916 17.9308 137.199 18.2378 136.96L18.4834 136.768L18.9685 136.516C18.9313 136.042 18.8206 135.876 18.7532 136.055C18.6857 136.233 18.1453 136.403 18.0899 136.32C18.0346 136.237 17.8072 136.037 17.7458 136.085C17.6844 136.133 17.8443 136.512 17.955 136.677ZM21.0205 127.993C20.9772 127.649 20.6824 127.627 20.3755 127.867L20.0252 127.762C19.9578 127.941 19.9457 128.202 20.0011 128.284C20.0564 128.367 20.5908 128.328 20.7688 128.315C20.9349 128.563 21.0516 128.598 21.0698 128.206L21.0205 127.993ZM176.771 7.05874C176.661 6.8933 176.543 6.85883 176.593 7.0718C176.587 7.20278 176.513 7.51152 176.335 7.52458C176.157 7.53762 175.672 7.78974 175.789 7.82495C175.906 7.85941 175.961 7.94214 175.955 8.07313C175.949 8.20337 175.998 8.41709 176.25 8.09455L176.428 8.0815L176.667 8.02094C176.981 7.65088 176.943 7.17668 176.771 7.05874ZM202.977 18.7238C203.155 18.7107 203.278 18.6149 203.168 18.4495C203.118 18.2366 202.596 18.0137 202.479 17.9793L202.467 18.2405L202.387 18.6802C202.086 18.789 201.841 18.9806 201.78 19.0281L201.89 19.1936C202.069 19.1805 202.363 19.2027 202.541 19.1896L202.603 19.1413C202.719 19.1766 202.861 18.6886 202.977 18.7238ZM17.6811 131.1C17.9206 131.04 18.1047 130.896 18.0494 130.813C17.9941 130.73 17.8895 130.434 17.8341 130.352C17.8401 130.221 17.6067 130.151 17.5332 130.46L17.2997 130.391C17.0048 130.369 17.1648 130.748 17.0974 130.926C17.0299 131.105 17.1405 131.27 17.3187 131.257C17.4908 131.375 17.6628 131.492 17.6811 131.1ZM185.268 27.9999C185.262 28.1309 185.324 28.0827 185.507 27.9394C185.692 27.7953 186.343 27.7914 186.527 27.6481C186.712 27.5041 186.44 26.9601 186.257 27.1034C185.95 27.3425 185.329 27.9524 185.268 27.9999ZM113.946 99.4697C113.768 99.4828 113.761 99.6138 113.816 99.6964C113.872 99.7792 114.032 100.158 113.97 100.206C113.909 100.253 113.725 100.397 113.78 100.48C113.835 100.563 114.001 100.811 114.063 100.763C114.063 100.763 114.376 100.393 114.75 99.9752L114.529 99.6442C114.418 99.4788 114.007 99.4222 113.946 99.4697ZM163.39 12.3315C163.568 12.3184 163.753 12.1744 163.709 11.8312L163.66 11.6174C163.604 11.5347 163.494 11.3693 163.377 11.3348C163.205 11.2169 163.082 11.3127 162.954 11.5387L162.886 11.7172C162.757 11.9439 163.273 12.2962 163.39 12.3315ZM159.952 15.0117C160.143 14.7374 160.155 14.4762 160.099 14.3935C159.982 14.359 159.448 14.3982 159.442 14.5284C159.374 14.7069 159.823 15.2385 159.952 15.0117ZM205.711 18.4805C205.661 18.2676 205.483 18.2806 205.293 18.5549L205.164 18.7808C205.097 18.9594 205.085 19.2206 205.38 19.242L205.496 19.2773C205.668 19.3952 205.815 18.7769 205.711 18.4805ZM31.7939 117.705C31.665 117.931 31.8371 118.049 32.1995 117.892L32.439 117.832C32.6785 117.771 32.6906 117.509 32.6413 117.296C32.6474 117.166 32.592 117.083 32.4753 117.048C32.4199 116.965 31.7507 117.361 31.6892 117.409L31.7939 117.705ZM12.8274 138.787C12.772 138.704 12.5386 138.634 12.4158 138.73C12.293 138.826 12.1642 139.052 12.0967 139.231C12.0846 139.492 12.2324 140.132 12.2878 140.215L12.4106 140.119C12.472 140.071 12.6682 139.666 12.8092 139.179L12.8274 138.787ZM30.6525 119.35C30.7078 119.433 30.8246 119.468 30.9534 119.242C31.0208 119.063 31.2232 118.528 31.2292 118.397L30.9958 118.327C30.879 118.293 30.7744 117.996 30.5842 118.271L30.4553 118.497C30.4432 118.758 30.5971 119.268 30.6525 119.35ZM87.9432 71.9119C88.1767 71.9816 88.2386 71.9333 87.9432 71.9119C87.7097 71.8422 87.1208 71.7979 87.1142 71.9289C87.164 72.1418 87.5016 72.508 87.8026 72.3991L87.8082 72.2689L87.9432 71.9119ZM42.403 109.685C42.4583 109.768 42.5811 109.672 42.5932 109.411C42.6053 109.15 42.2732 108.653 42.2058 108.832C42.077 109.058 41.7639 109.428 41.8193 109.511C41.8746 109.593 41.9299 109.676 41.9914 109.628C41.9975 109.498 42.3476 109.602 42.403 109.685ZM63.4784 91.6163C63.1101 91.9035 62.9812 92.1299 63.27 92.2823L63.4603 92.0081C63.6505 91.7338 63.7793 91.5075 63.9082 91.2812C63.9082 91.2812 63.7975 91.1158 63.7422 91.033L63.5641 91.046L63.4784 91.6163ZM26.1554 164.017C26.1062 163.804 25.9462 163.425 25.7742 163.307L25.584 163.582C25.5225 163.63 25.5658 163.973 25.4551 163.808C25.2276 163.608 25.1109 163.573 25.0374 163.882L24.976 163.93C25.1481 164.047 25.4983 164.152 25.7318 164.222L25.9099 164.209L26.1554 164.017ZM181.915 28.8523C181.922 28.7214 181.688 28.6516 181.442 28.8432L181.307 29.2002C181.295 29.4614 181.461 29.7096 181.633 29.8276L181.818 29.6836C181.885 29.505 182.026 29.0178 181.915 28.8523ZM146.82 25.1251C146.77 24.9122 146.715 24.8294 146.586 25.0555C146.458 25.2815 146.034 25.4861 146.027 25.6171L146.083 25.6998C146.193 25.8652 146.243 26.0782 146.427 25.9349L146.55 25.8391C146.783 25.9088 146.868 25.3389 146.82 25.1251ZM173.684 9.84389C173.388 9.82248 173.333 9.73975 173.628 9.76116C173.923 9.78333 174.586 9.51816 174.648 9.4699C174.653 9.33966 174.426 9.13899 174.064 9.29532L173.997 9.47383L173.684 9.84389ZM151.032 22.3444C151.271 22.2838 151.449 22.2708 151.333 22.2356C151.278 22.1528 151.173 21.8572 151.173 21.8572C151.117 21.7744 150.946 21.6565 150.761 21.8005C150.522 21.8611 150.792 22.4057 151.032 22.3444ZM90.0427 70.0232C89.8589 70.1665 90.0305 70.2844 90.3813 70.3886L90.6204 70.328L90.6823 70.2797C90.762 69.84 90.2274 69.8792 90.0427 70.0232ZM49.6512 146.075C49.4671 146.219 49.461 146.349 49.5717 146.515C49.7438 146.632 50.1554 146.689 50.2842 146.463C50.4131 146.237 49.8354 145.932 49.6512 146.075ZM188.137 28.6583C188.137 28.6583 188.187 28.8712 188.18 29.0022C188.113 29.1807 188.334 29.5116 188.402 29.3331L188.469 29.1546L188.599 28.9278C188.727 28.7019 188.739 28.4406 188.561 28.4537L188.383 28.4667C188.322 28.5142 188.266 28.4315 188.205 28.4797L188.144 28.5272C188.082 28.5755 188.137 28.6583 188.137 28.6583ZM183.917 27.7948C184.101 27.6515 184.168 27.4731 183.935 27.4034C183.757 27.4164 183.321 27.8822 183.199 27.9773C183.008 28.2516 183.671 27.9864 183.917 27.7948ZM83.5725 75.5715C83.9226 75.6761 84.0575 75.3191 83.9036 74.8098L83.4246 74.9315L83.3078 74.8967C83.2343 75.2057 83.2223 75.4669 83.2223 75.4669L83.5725 75.5715ZM27.4763 127.869C27.4703 127.999 27.5257 128.082 27.6423 128.117C27.7591 128.152 28.2382 128.03 28.4163 128.017L28.539 127.921C28.6004 127.873 28.6065 127.743 28.6065 127.743C28.5512 127.66 28.4958 127.577 28.4958 127.577L28.201 127.555C27.9061 127.534 27.5438 127.69 27.4763 127.869ZM17.0099 137.917C16.543 137.778 16.236 138.017 16.0397 138.422C16.7402 138.631 16.7402 138.631 17.0099 137.917Z" fill="#AD4AFF"/>
</svg>
