<svg width="30" height="30" viewBox="0 0 30 30" fill="none" xmlns="http://www.w3.org/2000/svg">
<g clip-path="url(#clip0_2413_3071)">
<path d="M29.4964 13.6565L24.9498 9.10982V3.85768C24.9498 2.90801 24.1802 2.13839 23.2292 2.13839C22.2803 2.13839 21.5107 2.90801 21.5107 3.85768V5.67082L18.1254 2.28536C16.4517 0.612527 13.5416 0.615494 11.8716 2.28839L0.503323 13.6565C-0.167774 14.3289 -0.167774 15.4169 0.503323 16.0883C1.17472 16.7606 2.26488 16.7606 2.93603 16.0883L14.3033 4.71995C14.6736 4.35158 15.3263 4.35158 15.6946 4.71886L27.0638 16.0883C27.2234 16.2481 27.413 16.3748 27.6216 16.4612C27.8303 16.5476 28.054 16.5919 28.2798 16.5917C28.7202 16.5917 29.1604 16.4243 29.4965 16.0883C30.1678 15.417 30.1678 14.329 29.4964 13.6565Z" fill="white"/>
<path d="M15.5976 7.98366C15.2673 7.65356 14.7325 7.65356 14.4032 7.98366L4.40363 17.9803C4.24518 18.139 4.15621 18.3541 4.15625 18.5784V25.8696C4.15625 27.5805 5.5435 28.9677 7.25437 28.9677H12.2052V21.3005H17.7946V28.9677H22.7454C24.4562 28.9677 25.8435 27.5805 25.8435 25.8696V18.5784C25.8435 18.3536 25.7548 18.1381 25.5961 17.9803L15.5976 7.98366Z" fill="white"/>
</g>
<defs>
<clipPath id="clip0_2413_3071">
<rect width="30" height="30" fill="white"/>
</clipPath>
</defs>
</svg>
