<svg width="54" height="54" viewBox="0 0 54 54" fill="none" xmlns="http://www.w3.org/2000/svg">
<circle cx="27" cy="27" r="27" fill="#F74354"/>
<g clip-path="url(#clip0_954_1054)">
<path d="M40.7683 17.7064L36.2936 13.2317C36.2202 13.1582 36.133 13.1 36.037 13.0602C35.941 13.0205 35.8382 13 35.7343 13C35.6304 13 35.5276 13.0205 35.4316 13.0602C35.3357 13.1 35.2485 13.1582 35.175 13.2317L16.0522 32.3544C15.9577 32.4488 15.8887 32.5657 15.8517 32.694L14.0312 38.9892C13.9918 39.1251 13.9897 39.2691 14.025 39.4061C14.0602 39.5431 14.1316 39.6682 14.2317 39.7682C14.3317 39.8683 14.4568 39.9397 14.5938 39.9749C14.7309 40.0102 14.8748 40.0081 15.0108 39.9688L21.306 38.1482C21.4343 38.1111 21.5511 38.0421 21.6455 37.9477L40.7683 18.825C41.0772 18.5161 41.0772 18.0153 40.7683 17.7064ZM20.6709 36.6851L15.9495 38.0505L17.3149 33.3291L17.7303 32.9137L21.0863 36.2697L20.6709 36.6851ZM22.2049 35.1511L18.8489 31.7951L32.2728 18.3711L35.6289 21.7271L22.2049 35.1511ZM36.7475 20.6085L33.3915 17.2525L35.7343 14.9096L39.0903 18.2657L36.7475 20.6085Z" fill="white"/>
</g>
<defs>
<clipPath id="clip0_954_1054">
<rect width="27" height="27" fill="white" transform="translate(14 13)"/>
</clipPath>
</defs>
</svg>
