<svg width="50" height="45" viewBox="0 0 50 45" fill="none" xmlns="http://www.w3.org/2000/svg">
<path d="M10.416 3.75H33.3327C34.9903 3.75 36.58 4.34263 37.7521 5.39752C38.9242 6.45242 39.5827 7.88316 39.5827 9.375V35.625C39.5827 36.1223 39.3632 36.5992 38.9725 36.9508C38.5818 37.3025 38.0519 37.5 37.4993 37.5H31.2493" stroke="#FFEAEA" stroke-width="2" stroke-linecap="round" stroke-linejoin="round"/>
<path d="M24.9994 22.5V26.25M10.416 3.75L26.2244 6.59625C27.641 6.85109 28.9158 7.53976 29.832 8.54511C30.7481 9.55046 31.249 10.8104 31.2494 12.1106V38.9625C31.2492 39.2398 31.1806 39.5136 31.0487 39.7642C30.9168 40.0148 30.7248 40.2359 30.4864 40.4117C30.2481 40.5874 29.9695 40.7134 29.6705 40.7806C29.3716 40.8477 29.0598 40.8544 28.7577 40.8L13.766 38.1038C12.8211 37.9338 11.9709 37.4743 11.3601 36.8035C10.7492 36.1328 10.4156 35.2922 10.416 34.425V3.75Z" stroke="#FFEAEA" stroke-width="2" stroke-linecap="round" stroke-linejoin="round"/>
</svg>
