<svg width="50" height="50" viewBox="0 0 50 50" fill="none" xmlns="http://www.w3.org/2000/svg">
<g clip-path="url(#clip0_2991_2787)">
<path d="M43.1818 0H6.81818C3.0526 0 0 3.0526 0 6.81818V43.1818C0 46.9474 3.0526 50 6.81818 50H43.1818C46.9474 50 50 46.9474 50 43.1818V6.81818C50 3.0526 46.9474 0 43.1818 0Z" fill="#0077B5"/>
<path d="M18.011 13.6364C18.011 14.4792 17.7611 15.3031 17.2928 16.0039C16.8246 16.7046 16.1591 17.2508 15.3804 17.5734C14.6017 17.8959 13.7449 17.9803 12.9183 17.8158C12.0917 17.6514 11.3324 17.2456 10.7364 16.6496C10.1404 16.0536 9.73459 15.2943 9.57016 14.4677C9.40574 13.6411 9.49013 12.7843 9.81266 12.0056C10.1352 11.2269 10.6814 10.5614 11.3822 10.0932C12.0829 9.62492 12.9068 9.375 13.7496 9.375C14.8798 9.375 15.9637 9.82396 16.7629 10.6231C17.562 11.4223 18.011 12.5062 18.011 13.6364ZM17.0451 20.7386V39.5653C17.0459 39.7042 17.0191 39.8419 16.9665 39.9704C16.9139 40.099 16.8364 40.2158 16.7384 40.3143C16.6405 40.4128 16.524 40.4909 16.3958 40.5442C16.2675 40.5976 16.13 40.625 15.9911 40.625H11.4996C11.3608 40.6254 11.2232 40.5983 11.0948 40.5453C10.9664 40.4923 10.8497 40.4145 10.7515 40.3163C10.6533 40.2181 10.5755 40.1014 10.5225 39.9731C10.4695 39.8447 10.4425 39.7071 10.4428 39.5682V20.7386C10.4428 20.4584 10.5542 20.1895 10.7524 19.9914C10.9506 19.7932 11.2194 19.6818 11.4996 19.6818H15.9911C16.2709 19.6826 16.539 19.7942 16.7366 19.9924C16.9341 20.1905 17.0451 20.4588 17.0451 20.7386ZM40.5224 30.5398V39.6534C40.5227 39.7811 40.4979 39.9076 40.4492 40.0257C40.4005 40.1437 40.3289 40.251 40.2386 40.3413C40.1483 40.4316 40.0411 40.5031 39.923 40.5518C39.805 40.6005 39.6785 40.6254 39.5508 40.625H34.7212C34.5935 40.6254 34.467 40.6005 34.349 40.5518C34.2309 40.5031 34.1237 40.4316 34.0334 40.3413C33.9431 40.251 33.8715 40.1437 33.8228 40.0257C33.7741 39.9076 33.7493 39.7811 33.7496 39.6534V30.821C33.7496 29.5028 34.136 25.0483 30.3036 25.0483C27.3349 25.0483 26.7298 28.0966 26.6104 29.4659V39.6534C26.6105 39.9087 26.5101 40.1537 26.3309 40.3355C26.1518 40.5173 25.9083 40.6213 25.6531 40.625H20.9883C20.8608 40.625 20.7346 40.5999 20.6169 40.551C20.4992 40.5021 20.3923 40.4305 20.3023 40.3403C20.2123 40.25 20.141 40.1429 20.0925 40.025C20.0439 39.9071 20.0192 39.7809 20.0195 39.6534V20.6563C20.0192 20.5288 20.0439 20.4025 20.0925 20.2847C20.141 20.1668 20.2123 20.0597 20.3023 19.9694C20.3923 19.8791 20.4992 19.8075 20.6169 19.7587C20.7346 19.7098 20.8608 19.6847 20.9883 19.6847H25.6531C25.9107 19.6847 26.1579 19.787 26.3401 19.9692C26.5223 20.1514 26.6246 20.3986 26.6246 20.6563V22.2983C27.7269 20.6449 29.3604 19.3693 32.8462 19.3693C40.5678 19.3693 40.5224 26.5795 40.5224 30.5398Z" fill="white"/>
</g>
<defs>
<clipPath id="clip0_2991_2787">
<rect width="50" height="50" fill="white"/>
</clipPath>
</defs>
</svg>
