<svg width="52" height="52" viewBox="0 0 52 52" fill="none" xmlns="http://www.w3.org/2000/svg">
<rect width="52" height="52" rx="26" fill="black" fill-opacity="0.7"/>
<path d="M14.2383 26.1699C14.2383 31.7367 18.2395 36.7031 23.6881 37.8676C26.4105 38.4494 29.3055 38.0575 31.7692 36.7595C34.1397 35.5103 36.056 33.4623 37.1419 31.012C38.2716 28.4632 38.4685 25.5372 37.6981 22.8583C36.9551 20.2739 35.3243 17.9824 33.1352 16.4223C28.5585 13.1604 22.1301 13.5966 18.0289 17.4341C15.6253 19.683 14.2383 22.8778 14.2383 26.1699ZM20.4695 25.5238L23.81 22.1836C24.6435 21.3497 25.9369 22.6429 25.1028 23.4767L23.4248 25.1544H31.1834C31.7369 25.1544 32.1989 25.6167 32.1989 26.1702C32.1989 26.7236 31.7369 27.186 31.1834 27.186H23.3861L25.0312 28.871C25.8537 29.7128 24.5487 30.994 23.7228 30.1483L20.4619 26.8087C20.2937 26.6366 20.2002 26.4052 20.2017 26.1647C20.2031 25.9241 20.2993 25.6938 20.4695 25.5238Z" fill="#F2B705"/>
</svg>
