<svg width="75" height="75" viewBox="0 0 75 75" fill="none" xmlns="http://www.w3.org/2000/svg">
<circle cx="37.5" cy="37.5" r="37.5" fill="#FFBF00"/>
<path d="M47.0673 23.053C45.5821 21.4369 44.7636 19.3614 44.7642 17.2129H38.0506V42.893C37.9988 44.2827 37.3833 45.599 36.3337 46.5647C35.2841 47.5305 33.8822 48.0703 32.4234 48.0705C29.3382 48.0705 26.7744 45.6681 26.7744 42.6859C26.7744 39.1238 30.381 36.4523 34.0963 37.5499V31.0056C26.6006 30.053 20.0391 35.6032 20.0391 42.6859C20.0391 49.5823 26.0357 54.4905 32.4016 54.4905C39.2239 54.4905 44.7642 49.2095 44.7642 42.6859V29.6595C47.4866 31.523 50.7551 32.5229 54.1068 32.5174V26.1181C54.1068 26.1181 50.0221 26.3045 47.0673 23.053Z" fill="white"/>
</svg>
