<svg width="76" height="76" viewBox="0 0 76 76" fill="none" xmlns="http://www.w3.org/2000/svg">
<circle cx="38.0469" cy="38.2852" r="37.5" fill="#FFBF00"/>
<path d="M33.3898 44.2361L46.6177 36.9653L33.3898 29.6944V44.2361ZM62.8531 25.2592C63.1844 26.3983 63.4138 27.9252 63.5667 29.8641C63.7451 31.803 63.8216 33.4753 63.8216 34.9294L63.9745 36.9653C63.9745 42.273 63.5667 46.175 62.8531 48.6713C62.2159 50.8525 60.7377 52.2582 58.4438 52.8641C57.2459 53.1792 55.054 53.3973 51.6897 53.5427C48.3763 53.7124 45.3433 53.7851 42.5397 53.7851L38.4873 53.9305C27.8081 53.9305 21.1559 53.5427 18.5307 52.8641C16.2369 52.2582 14.7586 50.8525 14.1214 48.6713C13.7901 47.5322 13.5607 46.0053 13.4078 44.0664C13.2294 42.1275 13.1529 40.4553 13.1529 39.0011L13 36.9653C13 31.6576 13.4078 27.7555 14.1214 25.2592C14.7586 23.078 16.2369 21.6723 18.5307 21.0664C19.7286 20.7513 21.9205 20.5332 25.2849 20.3878C28.5982 20.2181 31.6312 20.1454 34.4348 20.1454L38.4873 20C49.1664 20 55.8186 20.3878 58.4438 21.0664C60.7377 21.6723 62.2159 23.078 62.8531 25.2592Z" fill="white"/>
</svg>
