<svg width="132" height="122" viewBox="0 0 132 122" fill="none" xmlns="http://www.w3.org/2000/svg">
<path d="M51.9526 28.1327C59.1295 16.2702 62.715 10.3389 68.0793 10.3389C73.4435 10.3389 77.0291 16.2702 84.2059 28.1327L86.0638 31.2028C88.103 34.5757 89.1226 36.2621 90.7087 37.3743C92.2947 38.4864 94.2773 38.8988 98.2424 39.7238L101.845 40.4756C115.779 43.3839 122.741 44.8354 124.401 49.7485C126.055 54.6564 121.308 59.7784 111.809 70.0172L109.35 72.6644C106.654 75.5726 105.3 77.0293 104.694 78.8254C104.088 80.6267 104.292 82.569 104.7 86.4483L105.074 89.9831C106.507 103.647 107.226 110.476 102.887 113.51C98.5482 116.549 92.0228 113.776 78.9833 108.242L75.6016 106.811C71.8971 105.234 70.0448 104.451 68.0793 104.451C66.1137 104.451 64.2614 105.234 60.5512 106.811L57.1809 108.242C44.1357 113.776 37.6103 116.543 33.277 113.515C28.9324 110.476 29.6517 103.647 31.0848 89.9831L31.4587 86.4536C31.8665 82.569 32.0705 80.6267 31.4587 78.8306C30.8583 77.0293 29.5045 75.5726 26.8082 72.6696L24.3498 70.0172C14.8506 59.7837 10.1038 54.6617 11.7578 49.7485C13.4175 44.8354 20.3847 43.3786 34.3192 40.4756L37.9218 39.7238C41.8813 38.8988 43.8581 38.4864 45.4498 37.3743C47.0359 36.2621 48.0555 34.5757 50.0947 31.2028L51.9526 28.1327Z" fill="#F2B705"/>
</svg>
