<svg width="142" height="142" viewBox="0 0 142 142" fill="none" xmlns="http://www.w3.org/2000/svg">
<path d="M106.5 13.3124C106.501 12.4336 106.242 11.5741 105.754 10.8429C105.267 10.1117 104.573 9.54169 103.761 9.20517C102.95 8.86866 102.056 8.78077 101.194 8.95265C100.332 9.12453 99.541 9.54844 98.9204 10.1706L81.1704 27.9206C80.7586 28.3335 80.4322 28.8235 80.2099 29.3626C79.9875 29.9016 79.8736 30.4793 79.8747 31.0624V55.8503L73.2983 62.4178C71.9827 62.0686 70.6045 62.0262 69.27 62.2937C67.9354 62.5611 66.68 63.1314 65.6005 63.9605C64.5211 64.7896 63.6463 65.8554 63.0437 67.0758C62.4411 68.2963 62.1267 69.6388 62.1247 70.9999C62.1252 72.2629 62.3954 73.5113 62.9171 74.6615C63.4388 75.8118 64.2 76.8375 65.1498 77.67C66.0996 78.5025 67.2162 79.1227 68.4249 79.4891C69.6336 79.8555 70.9066 79.9598 72.1588 79.7948C73.411 79.6298 74.6136 79.1995 75.6862 78.5325C76.7588 77.8656 77.6766 76.9773 78.3784 75.9272C79.0803 74.8771 79.5499 73.6893 79.7558 72.4432C79.9618 71.1971 79.8995 69.9213 79.5729 68.7013L86.1493 62.1249H110.937C111.52 62.1259 112.098 62.012 112.637 61.7897C113.176 61.5674 113.666 61.2409 114.079 60.8291L131.829 43.0791C132.451 42.4585 132.875 41.6671 133.047 40.8053C133.219 39.9434 133.131 39.05 132.794 38.2381C132.458 37.4263 131.888 36.7327 131.157 36.2452C130.425 35.7577 129.566 35.4983 128.687 35.4999H106.5V13.3124ZM123.753 63.7046C125.28 74.7555 123.298 86.0069 118.086 95.8706C112.874 105.734 104.697 113.712 94.7068 118.678C84.717 123.644 73.42 125.347 62.4103 123.546C51.4007 121.746 41.2345 116.533 33.3468 108.644C25.4592 100.755 20.2485 90.5875 18.4503 79.5775C16.6521 68.5675 18.3572 57.2708 23.3249 47.282C28.2926 37.2932 36.2719 29.1169 46.1367 23.9072C56.0014 18.6975 67.2532 16.7176 78.3038 18.2469L74.9047 21.646C73.6671 22.8821 72.6852 24.3499 72.0151 25.9656C71.3451 27.5813 71 29.3132 70.9997 31.0624C63.1008 31.0624 55.3793 33.4047 48.8116 37.7931C42.2439 42.1815 37.125 48.4188 34.1022 55.7165C31.0794 63.0141 30.2885 71.0442 31.8295 78.7913C33.3705 86.5384 37.1742 93.6546 42.7596 99.24C48.3449 104.825 55.4611 108.629 63.2082 110.17C70.9554 111.711 78.9855 110.92 86.2831 107.897C93.5807 104.875 99.8181 99.7557 104.206 93.188C108.595 86.6203 110.937 78.8988 110.937 70.9999C114.467 70.9968 117.85 69.5922 120.345 67.0949L123.753 63.7046ZM70.9997 39.9374C64.8561 39.9374 58.8505 41.7592 53.7423 45.1724C48.6341 48.5855 44.6527 53.4368 42.3017 59.1128C39.9506 64.7887 39.3355 71.0343 40.534 77.0599C41.7326 83.0854 44.691 88.6202 49.0352 92.9644C53.3793 97.3086 58.9141 100.267 64.9397 101.466C70.9652 102.664 77.2108 102.049 82.8868 99.6979C88.5627 97.3468 93.414 93.3655 96.8272 88.2573C100.24 83.1491 102.062 77.1435 102.062 70.9999H89.8235L88.7142 72.1093C88.5008 75.5188 87.3081 78.7943 85.2792 81.5428C83.2502 84.2912 80.4713 86.3957 77.2758 87.6038C74.0803 88.8119 70.6041 89.0722 67.2644 88.3535C63.9247 87.6347 60.8633 85.9675 58.4477 83.5519C56.032 81.1363 54.3648 78.0749 53.6461 74.7351C52.9274 71.3954 53.1877 67.9192 54.3957 64.7237C55.6038 61.5283 57.7084 58.7493 60.4568 56.7204C63.2052 54.6914 66.4808 53.4987 69.8903 53.2854L70.9997 52.176V39.9374Z" fill="#FFBF00"/>
</svg>
