<svg width="21" height="21" viewBox="0 0 21 21" fill="none" xmlns="http://www.w3.org/2000/svg">
<path d="M13.5189 14.4549L10.8851 11.8211C10.7889 11.7249 10.6751 11.7074 10.6139 11.7074C10.5526 11.7074 10.4389 11.7249 10.3426 11.8211L7.70014 14.4636C7.40264 14.7611 6.93889 15.2424 5.39014 15.2424L8.63639 18.4799C9.12858 18.9715 9.79576 19.2476 10.4914 19.2476C11.187 19.2476 11.8542 18.9715 12.3464 18.4799L15.6014 15.2336C14.8051 15.2336 14.1401 15.0761 13.5189 14.4549ZM7.70014 6.53614L10.3426 9.17864C10.4126 9.24864 10.5176 9.29239 10.6139 9.29239C10.7101 9.29239 10.8151 9.24864 10.8851 9.17864L13.5014 6.56239C14.1226 5.91489 14.8314 5.76614 15.6276 5.76614L12.3726 2.51989C11.8804 2.02831 11.2133 1.7522 10.5176 1.7522C9.82201 1.7522 9.15482 2.02831 8.66264 2.51989L5.41639 5.75739C6.95639 5.75739 7.42889 6.26489 7.70014 6.53614Z" fill="black"/>
<path d="M18.4714 8.61878L16.5026 6.64128H15.4001C14.9276 6.64128 14.4551 6.83378 14.1314 7.17503L11.5064 9.80003C11.2614 10.045 10.9376 10.1675 10.6139 10.1675C10.2805 10.1628 9.96141 10.0314 9.72138 9.80003L7.07888 7.14878C6.74638 6.81628 6.29138 6.62378 5.81013 6.62378H4.52388L2.52013 8.63628C2.02856 9.12847 1.75244 9.79565 1.75244 10.4913C1.75244 11.1869 2.02856 11.8541 2.52013 12.3463L4.52388 14.3588H5.81888C6.29138 14.3588 6.74638 14.1663 7.08763 13.8338L9.73013 11.1913C9.97513 10.9463 10.2989 10.8238 10.6226 10.8238C10.9464 10.8238 11.2701 10.9463 11.5151 11.1913L14.1489 13.825C14.4814 14.1575 14.9364 14.35 15.4176 14.35H16.5201L18.4889 12.3725C18.9825 11.8715 19.2578 11.1954 19.2545 10.492C19.2512 9.78868 18.9697 9.1152 18.4714 8.61878Z" fill="black"/>
</svg>
