<svg width="75" height="75" viewBox="0 0 75 75" fill="none" xmlns="http://www.w3.org/2000/svg">
<circle cx="37.5" cy="37.5" r="37.5" fill="#FFBF00"/>
<path d="M57.5344 16.6455H18.6141C17.6781 16.6455 16.9219 17.3663 16.9219 18.2585V55.3569C16.9219 56.249 17.6781 56.9698 18.6141 56.9698H57.5344C58.4704 56.9698 59.2266 56.249 59.2266 55.3569V18.2585C59.2266 17.3663 58.4704 16.6455 57.5344 16.6455ZM29.4705 51.0069H23.1935V31.7621H29.4705V51.0069ZM26.3347 29.1309C25.6151 29.1309 24.9117 28.9275 24.3134 28.5465C23.7151 28.1654 23.2488 27.6238 22.9734 26.9901C22.698 26.3565 22.626 25.6592 22.7664 24.9865C22.9068 24.3138 23.2533 23.6959 23.7621 23.2109C24.2709 22.7259 24.9191 22.3956 25.6249 22.2618C26.3306 22.128 27.0622 22.1966 27.7269 22.4591C28.3917 22.7216 28.96 23.1661 29.3597 23.7364C29.7595 24.3067 29.9729 24.9772 29.9729 25.663C29.9676 27.5784 28.3389 29.1309 26.3347 29.1309ZM52.9708 51.0069H46.6991V41.6466C46.6991 39.4136 46.6568 36.5456 43.4363 36.5456C40.1736 36.5456 39.6712 38.9751 39.6712 41.4853V51.0069H33.4048V31.7621H39.4227V34.3933H39.5073C40.3428 32.8811 42.3893 31.2832 45.4458 31.2832C51.8021 31.2832 52.9708 35.2703 52.9708 40.452V51.0069Z" fill="white"/>
</svg>
