<svg width="77" height="77" viewBox="0 0 77 77" fill="none" xmlns="http://www.w3.org/2000/svg">
<g clip-path="url(#clip0_2964_2804)">
<path d="M67.2969 36.1912C66.0578 35.9664 64.8571 35.6598 63.7285 35.2802C55.456 32.4983 50.7795 25.7393 49.241 17.0383C49.0949 16.2138 47.9058 16.2138 47.7596 17.0383C45.9715 27.149 40.0201 34.2989 29.755 36.204C28.9385 36.3555 28.9388 37.5318 29.7555 37.6831C39.9256 39.5642 45.9811 46.7009 47.7632 56.7307C47.8754 57.3626 48.5426 57.366 48.5047 57.3512C48.6814 57.351 48.8525 57.2885 48.9878 57.1748C49.1231 57.061 49.214 56.9032 49.2446 56.729C50.1519 51.5567 52.6994 44.5297 59.683 40.4269C61.9141 39.1176 64.4764 38.1904 67.2985 37.6709C67.4718 37.6393 67.6284 37.5478 67.7411 37.4125C67.8538 37.2771 67.9155 37.1065 67.9153 36.9304C67.9151 36.7543 67.8531 36.5838 67.74 36.4487C67.627 36.3137 67.4702 36.2225 67.2969 36.1912Z" fill="#F4A32C"/>
<path d="M67.2969 36.1912C66.0578 35.9664 64.8571 35.6598 63.7285 35.2802C55.456 32.4983 50.7795 25.7393 49.241 17.0383C49.0949 16.2138 47.9058 16.2138 47.7596 17.0383C45.9715 27.149 40.0201 34.2989 29.755 36.204C28.9385 36.3555 28.9388 37.5318 29.7555 37.6831C39.9256 39.5642 45.9811 46.7009 47.7632 56.7307C47.8754 57.3626 48.5426 57.366 48.5047 57.3512C48.6814 57.351 48.8525 57.2885 48.9878 57.1748C49.1231 57.061 49.214 56.9032 49.2446 56.729C50.1519 51.5567 52.6994 44.5297 59.683 40.4269C61.9141 39.1176 64.4764 38.1904 67.2985 37.6709C67.4718 37.6393 67.6284 37.5478 67.7411 37.4125C67.8538 37.2771 67.9155 37.1065 67.9153 36.9304C67.9151 36.7543 67.8531 36.5838 67.74 36.4487C67.627 36.3137 67.4702 36.2225 67.2969 36.1912Z" fill="#F4A32C"/>
<path d="M37.6148 33.2744C35.205 34.7478 32.533 35.6888 29.7552 36.2043C28.9388 36.3558 28.9391 37.5321 29.7557 37.6834C39.9259 39.5645 45.9813 46.7011 47.7635 56.731C47.8757 57.3629 48.5428 57.3662 48.5049 57.3515C48.6817 57.3513 48.8528 57.2888 48.9881 57.175C49.1234 57.0613 49.2143 56.9035 49.2448 56.7293C49.7471 53.866 50.7538 50.4347 52.7357 47.2456C50.0466 39.7633 44.9101 35.1057 37.6148 33.2744Z" fill="#E89528"/>
<path d="M32.3596 58.0716C29.4333 57.1012 27.4974 54.9204 26.5556 51.9064C26.3864 51.3651 25.8159 51.3711 25.8377 51.3787C25.6776 51.3786 25.5215 51.4298 25.3925 51.5246C25.2634 51.6195 25.1679 51.7531 25.1201 51.9059C24.2075 54.819 22.2978 57.0476 19.3159 58.0688C18.6402 58.3001 18.6394 59.2602 19.3159 59.4918C22.2784 60.5059 24.2006 62.7171 25.1208 65.6575C25.2906 66.1998 25.86 66.192 25.84 66.1851C26.0004 66.1848 26.1566 66.1332 26.2856 66.0378C26.4147 65.9425 26.5098 65.8084 26.5572 65.6551C27.2377 63.454 28.4383 61.7521 30.1258 60.5968L30.126 60.5967C31.9708 59.333 32.8763 59.6996 32.875 58.7843C32.8747 58.6265 32.8248 58.4727 32.7323 58.3448C32.6398 58.2169 32.5094 58.1213 32.3596 58.0716Z" fill="#F7E7A1"/>
<path d="M22.3144 56.4396C22.2932 56.4323 22.2736 56.4221 22.2535 56.4131C21.3883 57.1566 20.3951 57.6994 19.3159 58.069C18.6402 58.3003 18.6394 59.2604 19.3159 59.492C22.2784 60.5061 24.2006 62.7173 25.1208 65.6577C25.2906 66.2001 25.86 66.1922 25.84 66.1853C26.8992 66.1834 26.3358 64.9184 28.1005 62.5489C27.1618 59.6018 25.2288 57.4372 22.3144 56.4396Z" fill="#EAD786"/>
<path d="M19.3281 17.508C16.3902 16.5336 14.4628 14.3445 13.5241 11.3429C13.3549 10.8016 12.7846 10.8078 12.8062 10.8151C12.6461 10.8151 12.4901 10.8663 12.361 10.9611C12.2319 11.056 12.1364 11.1895 12.0886 11.3424C11.178 14.2492 9.27222 16.4817 6.2844 17.5051C5.6087 17.7364 5.60795 18.6965 6.2844 18.9281C9.25417 19.9448 11.1715 22.1612 12.0893 25.0937C12.2591 25.636 12.8287 25.6282 12.8083 25.6212C12.9688 25.6209 13.1249 25.5694 13.254 25.474C13.383 25.3787 13.4782 25.2447 13.5257 25.0914C14.6524 21.4473 16.9217 20.204 17.0946 20.033C18.9341 18.7726 19.8448 19.131 19.8435 18.2207C19.8432 18.0628 19.7933 17.9091 19.7008 17.7812C19.6083 17.6532 19.4779 17.5577 19.3281 17.508Z" fill="#F4D44E"/>
<path d="M8.99268 16.0381C6.91924 17.6958 5.77612 17.2322 5.77612 18.2169C5.77609 18.3738 5.82509 18.5267 5.91626 18.6542C6.00744 18.7818 6.13622 18.8777 6.28459 18.9284C9.25436 19.9451 11.1717 22.1615 12.0895 25.094C12.2593 25.6363 12.8288 25.6285 12.8085 25.6216C13.8147 25.6198 13.3313 24.4449 14.9277 22.1775C13.2841 17.1036 9.36399 16.2808 8.99268 16.0381Z" fill="#E8C842"/>
<path d="M37.7415 57.5647C37.127 57.4371 34.2448 57.9336 31.4981 56.4533C31.3677 56.383 31.2247 56.3391 31.0773 56.324C30.9299 56.309 30.781 56.3231 30.639 56.3656C30.4971 56.4081 30.365 56.4782 30.2501 56.5718C30.1352 56.6654 30.0399 56.7807 29.9697 56.9111C29.8994 57.0415 29.8554 57.1845 29.8404 57.3319C29.8254 57.4793 29.8395 57.6282 29.882 57.7701C29.9245 57.912 29.9946 58.0442 30.0881 58.159C30.1817 58.2739 30.297 58.3692 30.4274 58.4395C30.6614 58.5655 30.8962 58.6801 31.1311 58.7843C28.8295 59.7953 26.9701 61.6201 25.8838 64.3174C24.8532 61.7941 23.0869 59.8757 20.6343 58.7813C23.1356 57.6651 24.8758 55.7131 25.8838 53.2458C26.0998 53.7787 26.2968 54.149 26.3043 54.1643C26.4422 54.4276 26.6784 54.6259 26.9616 54.7161C27.2447 54.8062 27.5521 54.781 27.8168 54.6459C28.0815 54.5108 28.2822 54.2767 28.3753 53.9944C28.4684 53.7122 28.4464 53.4046 28.314 53.1385C28.3107 53.1235 26.945 50.6309 27.1064 47.3134C27.1986 46.6916 26.7627 46.0735 26.0981 45.9512C25.4933 45.8321 24.8231 46.2157 24.6672 46.8952C24.5866 47.2473 25.1701 53.3391 20.7492 56.1656C17.8712 58.0016 14.6038 57.431 13.995 57.569C12.7081 57.862 12.7092 59.701 13.995 59.9938C14.5963 60.1293 17.9277 59.5602 20.8067 61.4342C25.082 64.2198 24.6102 70.1498 24.6388 70.4154C24.6388 71.8064 26.6265 72.1195 27.0652 70.7624C27.2136 70.3002 26.5892 64.4189 30.8106 61.5284C33.5918 59.6226 37.0385 60.0822 37.6382 60.0147C39.0108 59.8605 39.1336 57.8591 37.7415 57.5647ZM75.7917 35.5562C73.7294 35.3272 59.0286 37.3922 52.6037 23.9027C49.2261 16.8073 50.0925 10.3749 49.9084 9.56795C49.7427 8.84247 49.0568 8.40784 48.4009 8.49161C47.653 8.57628 47.1569 9.19558 47.1569 9.8191V12.7463C46.6472 22.8092 42.0678 31.3755 32.4515 34.3907C26.8984 36.1327 22.0775 35.3802 21.1774 35.5771C19.7339 35.9047 19.7231 37.9778 21.1927 38.3043C22.4512 38.5699 31.9195 37.0359 39.2722 43.1422C39.5031 43.3271 39.7973 43.414 40.0916 43.3841C40.3859 43.3542 40.6567 43.21 40.8457 42.9824C41.0347 42.7549 41.1267 42.4622 41.1021 42.1675C41.0774 41.8727 40.938 41.5994 40.7139 41.4064C38.1909 39.3112 35.167 37.8139 31.7068 36.944C40.8164 34.6495 46.4078 28.1469 48.548 19.0384C50.6703 28.0913 56.2155 34.6513 65.423 36.9344C56.3074 39.2154 50.6387 45.7125 48.5349 54.7961C47.7517 51.4668 46.4451 48.2802 44.481 45.4973C44.3068 45.2572 44.045 45.0954 43.7523 45.0469C43.4597 44.9983 43.1597 45.067 42.9173 45.2381C42.6749 45.4091 42.5097 45.6687 42.4573 45.9607C42.4049 46.2527 42.4697 46.5536 42.6375 46.7982C43.3299 47.7791 43.953 48.8479 44.4902 49.9751C47.6768 56.6698 47.1137 63.481 47.1599 64.1381C47.2789 65.8165 50.0172 65.901 49.9314 63.8257C49.7767 60.0852 50.0668 47.4138 60.3018 41.4008C67.2082 37.3475 74.891 38.5315 75.9165 38.3008C77.4623 37.95 77.295 35.7249 75.7917 35.5562ZM14.0707 30.0492C14.1395 29.6636 13.8385 26.7305 15.2672 23.8916C15.3971 23.6249 15.4167 23.3177 15.3218 23.0366C15.2269 22.7555 15.0251 22.5231 14.7601 22.3898C14.4951 22.2564 14.1882 22.2327 13.9059 22.324C13.6236 22.4152 13.3886 22.614 13.2518 22.8772C13.1073 23.1652 12.9747 23.459 12.8544 23.7579C11.8244 21.233 10.0579 19.3131 7.6031 18.2174C10.1043 17.1007 11.8443 15.1491 12.8525 12.6816C13.86 15.1671 15.586 17.1103 18.0978 18.2213C17.8475 18.3317 17.6018 18.452 17.3611 18.5819C17.2307 18.6524 17.1156 18.7479 17.0222 18.8628C16.9288 18.9778 16.8589 19.1101 16.8166 19.2521C16.7743 19.3941 16.7604 19.543 16.7757 19.6904C16.791 19.8377 16.8351 19.9806 16.9057 20.1109C16.9761 20.2413 17.0716 20.3564 17.1866 20.4498C17.3016 20.5432 17.4339 20.6131 17.5758 20.6554C17.7178 20.6977 17.8668 20.7116 18.0141 20.6963C18.1615 20.681 18.3044 20.6368 18.4347 20.5663C21.0972 19.1259 24.0061 19.5176 24.607 19.4507C25.9869 19.2927 26.0917 17.2925 24.7103 17.0001C23.9465 16.8417 17.9246 17.9079 15.2344 12.4806C13.9697 9.93445 14.0576 7.1035 14.0749 6.74858C14.1654 6.13423 13.7389 5.50966 13.0656 5.38679C12.4645 5.26783 11.7912 5.64922 11.6355 6.33275C11.5552 6.68316 12.1383 12.775 7.71785 15.6015C4.94074 17.3731 1.69952 16.9154 1.08863 16.9836C-0.283981 17.1397 -0.394969 19.1202 0.963509 19.4295C1.61951 19.5772 4.88043 18.9856 7.77515 20.87C10.8603 22.8798 11.5014 26.571 11.6074 28.6119C11.622 29.7783 11.5704 29.914 11.662 30.1982C11.8306 30.7199 12.3072 31.0702 12.8477 31.0702C13.4683 31.0704 13.9711 30.6115 14.0707 30.0492Z" fill="black"/>
</g>
<defs>
<clipPath id="clip0_2964_2804">
<rect width="77" height="77" fill="white"/>
</clipPath>
</defs>
</svg>
