<svg width="62" height="62" viewBox="0 0 62 62" fill="none" xmlns="http://www.w3.org/2000/svg">
<g clip-path="url(#clip0_1804_3934)">
<path d="M45.261 13.1767L24.7832 15.6406L18.5327 12.0319C18.0376 11.7556 17.4544 11.6831 16.9067 11.8299C16.3591 11.9766 15.8902 12.331 15.5996 12.8178L7.90386 26.1473C7.31923 27.1599 7.6515 28.4871 8.68711 29.085L14.9376 32.6937L23.0453 51.6553C23.1482 51.8963 23.3163 52.1038 23.5307 52.2544C23.745 52.4051 23.9972 52.4929 24.2588 52.5081C24.5203 52.5233 24.781 52.4653 25.0113 52.3405C25.2417 52.2157 25.4327 52.0291 25.5629 51.8017L46.6518 15.2746C47.2045 14.3172 46.4409 13.0356 45.2583 13.1813L45.261 13.1767ZM42.8112 16.3037L24.5285 47.9703L17.62 31.7999L25.3556 18.4014L42.8112 16.3037ZM47.3042 25.5501C46.0033 24.572 44.1751 26.6648 45.6801 27.8528C49.6249 30.9588 50.7229 36.3489 48.2861 40.5696C45.8466 44.7948 40.6164 46.562 35.9667 44.6876C34.2674 43.9212 33.1522 46.6711 34.9148 47.296C40.8201 49.6744 47.5819 47.423 50.7255 41.978C54.2412 35.8886 51.8096 28.8755 47.3042 25.5501ZM17.7069 14.8016L22.5719 17.6104L15.5451 29.7919L10.6709 26.9777L17.7069 14.8016ZM42.2085 33.3662C42.6805 33.8959 42.9741 34.5604 43.0479 35.2659C43.1218 35.9715 42.9722 36.6824 42.6202 37.2983C41.9027 38.5411 40.4534 39.2017 38.9846 38.9183C37.1314 38.4928 36.6307 41.401 38.466 41.6874C41.0789 42.1895 43.7343 40.9916 45.055 38.7041C46.3943 36.3843 46.0643 33.5119 44.323 31.5002C42.935 30.1096 41.079 31.9531 42.2085 33.3662Z" fill="#6F4941"/>
</g>
<defs>
<clipPath id="clip0_1804_3934">
<rect width="45" height="45" fill="white" transform="translate(23) rotate(30)"/>
</clipPath>
</defs>
</svg>
