<svg width="75" height="75" viewBox="0 0 75 75" fill="none" xmlns="http://www.w3.org/2000/svg">
<circle cx="37.5" cy="37.5" r="37.5" fill="#FFBF00"/>
<g clip-path="url(#clip0_2704_2789)">
<path d="M37.0611 17C31.0743 17 30.3214 17.0263 27.9692 17.1262C25.6169 17.2313 24.0147 17.5835 22.6111 18.104C21.1388 18.6319 19.8052 19.4599 18.7035 20.5301C17.5814 21.5808 16.7128 22.8518 16.1582 24.2548C15.6122 25.5901 15.2399 27.1199 15.1324 29.3542C15.0276 31.6016 15 32.3166 15 38.031C15 43.7402 15.0276 44.4552 15.1324 46.6973C15.2427 48.9369 15.6122 50.4641 16.1582 51.802C16.7235 53.1846 17.4764 54.3569 18.7035 55.5266C19.9279 56.6963 21.1578 57.4166 22.6083 57.9528C24.0147 58.4732 25.6142 58.8281 27.9637 58.9306C30.3187 59.0305 31.0688 59.0568 37.0611 59.0568C43.0535 59.0568 43.8008 59.0305 46.1558 58.9306C48.5026 58.8255 50.1103 58.4732 51.5139 57.9528C52.9853 57.4247 54.3179 56.5967 55.4187 55.5266C56.6459 54.3569 57.3987 53.1846 57.964 51.802C58.5073 50.4641 58.8796 48.9369 58.9899 46.6973C59.0946 44.4552 59.1222 43.7402 59.1222 38.0284C59.1222 32.3166 59.0946 31.6016 58.9899 29.3568C58.8796 27.1199 58.5073 25.5901 57.964 24.2548C57.4095 22.8517 56.5409 21.5807 55.4187 20.5301C54.3174 19.4595 52.9837 18.6314 51.5111 18.104C50.1047 17.5835 48.4998 17.2287 46.153 17.1262C43.798 17.0263 43.0507 17 37.0556 17H37.0639H37.0611ZM35.0839 20.7904H37.0639C42.9542 20.7904 43.6519 20.8088 45.9766 20.9113C48.1275 21.0033 49.2968 21.3476 50.0744 21.6341C51.103 22.0153 51.8393 22.4726 52.6114 23.2086C53.3836 23.9446 53.8606 24.6438 54.2605 25.6269C54.5638 26.3655 54.9223 27.48 55.0189 29.5303C55.1264 31.7462 55.1485 32.4112 55.1485 38.0231C55.1485 43.6351 55.1264 44.3027 55.0189 46.5186C54.9223 48.5689 54.5611 49.6807 54.2605 50.422C53.9068 51.335 53.3423 52.1606 52.6087 52.8376C51.8365 53.5736 51.103 54.0284 50.0717 54.4095C49.2995 54.6987 48.1303 55.0404 45.9766 55.135C43.6519 55.2349 42.9542 55.2585 37.0639 55.2585C31.1736 55.2585 30.4731 55.2349 28.1484 55.135C25.9975 55.0404 24.831 54.6987 24.0533 54.4095C23.095 54.0728 22.2281 53.5357 21.5163 52.8376C20.7821 52.1596 20.2167 51.3332 19.8617 50.4194C19.5611 49.6807 19.1999 48.5662 19.1034 46.516C18.9986 44.3001 18.9765 43.6351 18.9765 38.0179C18.9765 32.4033 18.9986 31.7409 19.1034 29.525C19.2026 27.4748 19.5611 26.3603 19.8645 25.619C20.2643 24.6386 20.7442 23.9367 21.5163 23.2007C22.2884 22.4648 23.022 22.01 24.0533 21.6289C24.831 21.3397 25.9975 20.998 28.1484 20.9034C30.1836 20.814 30.9722 20.7877 35.0839 20.7851V20.7904ZM48.839 24.2811C48.4913 24.2811 48.1471 24.3464 47.8259 24.4732C47.5047 24.6 47.2129 24.7858 46.967 25.0202C46.7212 25.2545 46.5262 25.5327 46.3932 25.8388C46.2601 26.145 46.1917 26.4731 46.1917 26.8045C46.1917 27.1359 46.2601 27.464 46.3932 27.7702C46.5262 28.0763 46.7212 28.3545 46.967 28.5888C47.2129 28.8231 47.5047 29.009 47.8259 29.1358C48.1471 29.2626 48.4913 29.3279 48.839 29.3279C49.5411 29.3279 50.2145 29.062 50.7109 28.5888C51.2074 28.1156 51.4863 27.4737 51.4863 26.8045C51.4863 26.1352 51.2074 25.4934 50.7109 25.0202C50.2145 24.5469 49.5411 24.2811 48.839 24.2811ZM37.0639 27.2303C35.5612 27.208 34.0688 27.4708 32.6736 28.0035C31.2785 28.5362 30.0085 29.3281 28.9375 30.3331C27.8666 31.3381 27.016 32.5362 26.4355 33.8576C25.8549 35.1789 25.556 36.5972 25.556 38.0297C25.556 39.4623 25.8549 40.8805 26.4355 42.2018C27.016 43.5232 27.8666 44.7213 28.9375 45.7263C30.0085 46.7313 31.2785 47.5232 32.6736 48.0559C34.0688 48.5886 35.5612 48.8514 37.0639 48.8291C40.0381 48.7849 42.8748 47.6276 44.9617 45.6072C47.0486 43.5867 48.2182 40.865 48.2182 38.0297C48.2182 35.1944 47.0486 32.4727 44.9617 30.4523C42.8748 28.4318 40.0381 27.2745 37.0639 27.2303ZM37.0639 31.0181C39.0144 31.0181 40.8851 31.7566 42.2644 33.0713C43.6436 34.386 44.4185 36.1691 44.4185 38.0284C44.4185 39.8876 43.6436 41.6708 42.2644 42.9854C40.8851 44.3001 39.0144 45.0387 37.0639 45.0387C35.1133 45.0387 33.2426 44.3001 31.8634 42.9854C30.4841 41.6708 29.7092 39.8876 29.7092 38.0284C29.7092 36.1691 30.4841 34.386 31.8634 33.0713C33.2426 31.7566 35.1133 31.0181 37.0639 31.0181Z" fill="white"/>
</g>
<defs>
<clipPath id="clip0_2704_2789">
<rect width="44.1222" height="42.0568" fill="white" transform="translate(15 17)"/>
</clipPath>
</defs>
</svg>
