<svg width="179" height="117" viewBox="0 0 179 117" fill="none" xmlns="http://www.w3.org/2000/svg">
<rect x="1" y="1" width="177" height="115" rx="9" stroke="black" stroke-width="2"/>
<path d="M66.3119 14.0911V15.4611H63.4519V16.9411H65.5919V18.2711H63.4519V21.1111H61.7419V14.0911H66.3119ZM70.5307 21.1811C69.8707 21.1811 69.264 21.0278 68.7107 20.7211C68.164 20.4144 67.7274 19.9878 67.4007 19.4411C67.0807 18.8878 66.9207 18.2678 66.9207 17.5811C66.9207 16.8944 67.0807 16.2778 67.4007 15.7311C67.7274 15.1844 68.164 14.7578 68.7107 14.4511C69.264 14.1444 69.8707 13.9911 70.5307 13.9911C71.1907 13.9911 71.794 14.1444 72.3407 14.4511C72.894 14.7578 73.3274 15.1844 73.6407 15.7311C73.9607 16.2778 74.1207 16.8944 74.1207 17.5811C74.1207 18.2678 73.9607 18.8878 73.6407 19.4411C73.3207 19.9878 72.8874 20.4144 72.3407 20.7211C71.794 21.0278 71.1907 21.1811 70.5307 21.1811ZM70.5307 19.6211C71.0907 19.6211 71.5374 19.4344 71.8707 19.0611C72.2107 18.6878 72.3807 18.1944 72.3807 17.5811C72.3807 16.9611 72.2107 16.4678 71.8707 16.1011C71.5374 15.7278 71.0907 15.5411 70.5307 15.5411C69.964 15.5411 69.5107 15.7244 69.1707 16.0911C68.8374 16.4578 68.6707 16.9544 68.6707 17.5811C68.6707 18.2011 68.8374 18.6978 69.1707 19.0711C69.5107 19.4378 69.964 19.6211 70.5307 19.6211ZM78.652 21.1111L77.192 18.4611H76.782V21.1111H75.072V14.0911H77.942C78.4954 14.0911 78.9654 14.1878 79.352 14.3811C79.7454 14.5744 80.0387 14.8411 80.232 15.1811C80.4254 15.5144 80.522 15.8878 80.522 16.3011C80.522 16.7678 80.3887 17.1844 80.122 17.5511C79.862 17.9178 79.4754 18.1778 78.962 18.3311L80.582 21.1111H78.652ZM76.782 17.2511H77.842C78.1554 17.2511 78.3887 17.1744 78.542 17.0211C78.702 16.8678 78.782 16.6511 78.782 16.3711C78.782 16.1044 78.702 15.8944 78.542 15.7411C78.3887 15.5878 78.1554 15.5111 77.842 15.5111H76.782V17.2511ZM89.5455 14.0911V21.1111H87.8355V16.9011L86.2655 21.1111H84.8855L83.3055 16.8911V21.1111H81.5955V14.0911H83.6155L85.5855 18.9511L87.5355 14.0911H89.5455ZM93.3152 21.1811C92.8018 21.1811 92.3418 21.0978 91.9352 20.9311C91.5285 20.7644 91.2018 20.5178 90.9552 20.1911C90.7152 19.8644 90.5885 19.4711 90.5752 19.0111H92.3952C92.4218 19.2711 92.5118 19.4711 92.6652 19.6111C92.8185 19.7444 93.0185 19.8111 93.2652 19.8111C93.5185 19.8111 93.7185 19.7544 93.8652 19.6411C94.0118 19.5211 94.0852 19.3578 94.0852 19.1511C94.0852 18.9778 94.0252 18.8344 93.9052 18.7211C93.7918 18.6078 93.6485 18.5144 93.4752 18.4411C93.3085 18.3678 93.0685 18.2844 92.7552 18.1911C92.3018 18.0511 91.9318 17.9111 91.6452 17.7711C91.3585 17.6311 91.1118 17.4244 90.9052 17.1511C90.6985 16.8778 90.5952 16.5211 90.5952 16.0811C90.5952 15.4278 90.8318 14.9178 91.3052 14.5511C91.7785 14.1778 92.3952 13.9911 93.1552 13.9911C93.9285 13.9911 94.5518 14.1778 95.0252 14.5511C95.4985 14.9178 95.7518 15.4311 95.7852 16.0911H93.9352C93.9218 15.8644 93.8385 15.6878 93.6852 15.5611C93.5318 15.4278 93.3352 15.3611 93.0952 15.3611C92.8885 15.3611 92.7218 15.4178 92.5952 15.5311C92.4685 15.6378 92.4052 15.7944 92.4052 16.0011C92.4052 16.2278 92.5118 16.4044 92.7252 16.5311C92.9385 16.6578 93.2718 16.7944 93.7252 16.9411C94.1785 17.0944 94.5452 17.2411 94.8252 17.3811C95.1118 17.5211 95.3585 17.7244 95.5652 17.9911C95.7718 18.2578 95.8752 18.6011 95.8752 19.0211C95.8752 19.4211 95.7718 19.7844 95.5652 20.1111C95.3652 20.4378 95.0718 20.6978 94.6852 20.8911C94.2985 21.0844 93.8418 21.1811 93.3152 21.1811Z" fill="black"/>
<rect x="99.9594" y="35.6667" width="56.2114" height="25.4444" rx="4" fill="#FFEB68" stroke="black" stroke-width="2"/>
<rect x="99.9594" y="76.1111" width="56.2114" height="25.4444" rx="4" fill="#FFEB68" stroke="black" stroke-width="2"/>
<rect x="25.7399" y="35.6667" width="56.2114" height="25.4444" rx="4" fill="#FFEB68" stroke="black" stroke-width="2"/>
<rect x="25.7399" y="76.1111" width="56.2114" height="25.4444" rx="4" fill="#FFEB68" stroke="black" stroke-width="2"/>
</svg>
