<svg width="77" height="77" viewBox="0 0 77 77" fill="none" xmlns="http://www.w3.org/2000/svg">
<path d="M74.5938 42.914V70.3272C74.5918 70.9397 74.3476 71.5265 73.9145 71.9595C73.4815 72.3926 72.8947 72.6368 72.2823 72.6387H44.0524C43.4401 72.6367 42.8535 72.3925 42.4207 71.9594C41.9879 71.5263 41.7441 70.9395 41.7424 70.3272V42.914C41.7441 42.3018 41.9879 41.715 42.4207 41.2819C42.8535 40.8488 43.4401 40.6046 44.0524 40.6025H72.2823C72.8947 40.6045 73.4815 40.8487 73.9145 41.2818C74.3476 41.7148 74.5918 42.3016 74.5938 42.914Z" fill="#F3CE7D"/>
<path d="M74.5938 6.67479V34.088C74.5921 34.7005 74.348 35.2875 73.9148 35.7206C73.4817 36.1537 72.8948 36.3978 72.2823 36.3995H44.0524C43.44 36.3979 42.8531 36.1538 42.4202 35.7206C41.9873 35.2874 41.7436 34.7004 41.7424 34.088V6.67479C41.7441 6.0625 41.9879 5.47573 42.4207 5.04263C42.8535 4.60954 43.4401 4.36531 44.0524 4.36328H72.2823C72.8947 4.36526 73.4815 4.60943 73.9145 5.0425C74.3476 5.47556 74.5918 6.06235 74.5938 6.67479Z" fill="#E87187"/>
<path d="M35.2576 42.914V70.3272C35.256 70.9395 35.0121 71.5263 34.5793 71.9594C34.1465 72.3925 33.5599 72.6367 32.9476 72.6387H4.71775C4.10532 72.6368 3.51853 72.3926 3.08546 71.9595C2.6524 71.5265 2.40823 70.9397 2.40625 70.3272V42.914C2.40823 42.3016 2.6524 41.7148 3.08546 41.2818C3.51853 40.8487 4.10532 40.6045 4.71775 40.6025H32.9476C33.5599 40.6046 34.1465 40.8488 34.5793 41.2819C35.0121 41.715 35.256 42.3018 35.2576 42.914Z" fill="#5FCDA4"/>
<path d="M35.2576 6.67283V34.086C35.256 34.6983 35.0121 35.2851 34.5793 35.7182C34.1465 36.1513 33.5599 36.3955 32.9476 36.3975H4.71775C4.10532 36.3956 3.51853 36.1514 3.08546 35.7183C2.6524 35.2853 2.40823 34.6985 2.40625 34.086V6.67283C2.40823 6.06039 2.6524 5.4736 3.08546 5.04054C3.51853 4.60748 4.10532 4.36331 4.71775 4.36133H32.9476C33.5599 4.36335 34.1465 4.60758 34.5793 5.04068C35.0121 5.47377 35.256 6.06054 35.2576 6.67283ZM64.9296 54.3722C65.0714 54.3924 65.2046 54.4519 65.3142 54.5439C65.4238 54.636 65.5054 54.7569 65.5497 54.893C65.594 55.0291 65.5993 55.175 65.5649 55.3139C65.5306 55.4528 65.4579 55.5794 65.3553 55.6791L62.6091 58.3501C62.5196 58.4364 62.4527 58.5434 62.4141 58.6617C62.3756 58.7799 62.3666 58.9058 62.388 59.0283L63.0362 62.7986C63.0601 62.9399 63.0439 63.0851 62.9897 63.2177C62.9355 63.3503 62.8452 63.4652 62.7292 63.5493C62.6132 63.6334 62.476 63.6834 62.3331 63.6938C62.1902 63.7041 62.0472 63.6743 61.9203 63.6077L58.526 61.8271C58.4156 61.7693 58.2927 61.7391 58.1681 61.7391C58.0434 61.7391 57.9206 61.7693 57.8102 61.8271L54.4143 63.6077C54.2875 63.6744 54.1446 63.7042 54.0017 63.6939C53.8589 63.6836 53.7217 63.6335 53.6058 63.5493C53.4899 63.4652 53.3998 63.3503 53.3458 63.2176C53.2917 63.085 53.2758 62.9398 53.2999 62.7986L53.9481 59.0283C53.9688 58.9058 53.9595 58.7801 53.921 58.662C53.8825 58.5439 53.816 58.4368 53.7271 58.3501L50.9809 55.6791C50.8781 55.5794 50.8054 55.4529 50.771 55.3139C50.7365 55.1749 50.7418 55.0291 50.7861 54.8929C50.8304 54.7568 50.9121 54.6358 51.0218 54.5438C51.1314 54.4517 51.2648 54.3923 51.4065 54.3722L55.2024 53.8218C55.3255 53.8037 55.4425 53.756 55.5433 53.683C55.6441 53.6099 55.7258 53.5136 55.7814 53.4022L57.4793 49.9718C57.5429 49.8434 57.6411 49.7354 57.7628 49.6599C57.8845 49.5843 58.0248 49.5443 58.1681 49.5443C58.3113 49.5443 58.4517 49.5843 58.5734 49.6599C58.6951 49.7354 58.7933 49.8434 58.8569 49.9718L60.5548 53.4022C60.61 53.5139 60.6916 53.6104 60.7925 53.6835C60.8933 53.7566 61.0105 53.8041 61.1338 53.8218L64.9296 54.3722Z" fill="#5FA8ED"/>
<path d="M64.7115 15.6898V25.0727C64.7101 25.5588 64.5163 26.0247 64.1726 26.3685C63.8288 26.7122 63.3629 26.906 62.8768 26.9074H53.4593C52.973 26.9061 52.5069 26.7124 52.1629 26.3686C51.8189 26.0249 51.6248 25.559 51.623 25.0727V15.6898C51.6245 15.2032 51.8184 14.737 52.1625 14.393C52.5065 14.0489 52.9728 13.855 53.4593 13.8535H62.8768C63.3632 13.855 63.8292 14.049 64.173 14.3931C64.5168 14.7372 64.7104 15.2034 64.7115 15.6898Z" fill="#5FCDA4"/>
<path d="M18.8319 13.8496L11.2717 26.9095H26.392L18.8319 13.8496Z" fill="#F3CE7D"/>
<path d="M18.832 49.8887C20.1627 49.8919 21.4625 50.2895 22.5673 51.0312C23.6721 51.7728 24.5323 52.8253 25.0393 54.0556C25.5462 55.2859 25.6772 56.6388 25.4156 57.9435C25.154 59.2482 24.5116 60.4461 23.5695 61.3859C22.6274 62.3256 21.428 62.9651 20.1226 63.2235C18.8173 63.4819 17.4647 63.3476 16.2356 62.8376C15.0066 62.3277 13.9562 61.4649 13.2173 60.3582C12.4784 59.2516 12.084 57.9508 12.084 56.6202C12.0863 54.8327 12.7985 53.1194 14.064 51.857C15.3295 50.5946 17.0446 49.8866 18.832 49.8887Z" fill="#E87187"/>
<path d="M6.91797 70.3272V42.914C6.91995 42.3016 7.16412 41.7148 7.59718 41.2818C8.03025 40.8487 8.61703 40.6045 9.22947 40.6025H4.71775C4.10532 40.6045 3.51853 40.8487 3.08546 41.2818C2.6524 41.7148 2.40823 42.3016 2.40625 42.914V70.3272C2.40823 70.9397 2.6524 71.5265 3.08546 71.9595C3.51853 72.3926 4.10532 72.6368 4.71775 72.6387H9.22947C8.61703 72.6368 8.03025 72.3926 7.59718 71.9595C7.16412 71.5265 6.91995 70.9397 6.91797 70.3272Z" fill="#4BA07D"/>
<path d="M6.91797 34.086V6.67283C6.91995 6.06039 7.16412 5.4736 7.59718 5.04054C8.03025 4.60748 8.61703 4.36331 9.22947 4.36133H4.71775C4.10532 4.36331 3.51853 4.60748 3.08546 5.04054C2.6524 5.4736 2.40823 6.06039 2.40625 6.67283V34.086C2.40823 34.6985 2.6524 35.2853 3.08546 35.7183C3.51853 36.1514 4.10532 36.3956 4.71775 36.3975H9.22947C8.61703 36.3956 8.03025 36.1514 7.59718 35.7183C7.16412 35.2853 6.91995 34.6985 6.91797 34.086Z" fill="#4A88BC"/>
<path d="M72.2826 39.7002H44.0528C43.2008 39.7012 42.384 40.04 41.7816 40.6424C41.1792 41.2449 40.8403 42.0616 40.8394 42.9136V70.3277C40.8403 71.1796 41.1792 71.9964 41.7816 72.5989C42.384 73.2013 43.2008 73.5401 44.0528 73.5411H72.2826C73.1345 73.5401 73.9513 73.2013 74.5537 72.5989C75.1562 71.9964 75.495 71.1796 75.496 70.3277V42.9136C75.495 42.0616 75.1562 41.2449 74.5537 40.6424C73.9513 40.04 73.1345 39.7012 72.2826 39.7002ZM73.6913 70.3277C73.6908 70.7012 73.5423 71.0592 73.2782 71.3233C73.0141 71.5874 72.6561 71.736 72.2826 71.7364H44.0528C43.6793 71.736 43.3212 71.5874 43.0571 71.3233C42.793 71.0592 42.6445 70.7012 42.644 70.3277V42.9136C42.6445 42.5401 42.793 42.1821 43.0571 41.918C43.3212 41.6539 43.6793 41.5053 44.0528 41.5049H72.2826C72.6561 41.5053 73.0141 41.6539 73.2782 41.918C73.5423 42.1821 73.6908 42.5401 73.6913 42.9136V70.3277Z" fill="#284268"/>
<path d="M65.059 53.4789L61.3322 52.9387L59.666 49.5712C59.5277 49.2921 59.3142 49.0572 59.0495 48.893C58.7848 48.7288 58.4796 48.6417 58.1681 48.6417C57.8566 48.6417 57.5513 48.7288 57.2867 48.893C57.022 49.0572 56.8085 49.2921 56.6702 49.5712L55.0039 52.9387L51.2766 53.4789C50.9681 53.5233 50.6782 53.6532 50.4397 53.8539C50.2013 54.0547 50.0238 54.3182 49.9275 54.6146C49.8312 54.911 49.8198 55.2285 49.8947 55.5311C49.9696 55.8336 50.1277 56.1091 50.3512 56.3264L53.0465 58.9468L52.4104 62.6464C52.3697 62.8861 52.3817 63.1317 52.4455 63.3662C52.5094 63.6008 52.6236 63.8186 52.7802 64.0045C52.9368 64.1904 53.132 64.34 53.3523 64.4428C53.5726 64.5456 53.8126 64.5992 54.0557 64.5998C54.3269 64.5995 54.594 64.5332 54.8339 64.4067L58.1678 62.6586L61.5018 64.4067C61.7776 64.5515 62.0883 64.6163 62.399 64.5939C62.7096 64.5714 63.0078 64.4625 63.2599 64.2795C63.5119 64.0965 63.7078 63.8466 63.8253 63.5582C63.9429 63.2698 63.9775 62.9542 63.9252 62.6472L63.289 58.9476L65.9843 56.3272C66.208 56.1099 66.3663 55.8343 66.4413 55.5317C66.5163 55.229 66.505 54.9114 66.4086 54.6149C66.3123 54.3183 66.1348 54.0547 65.8962 53.8539C65.6577 53.6531 65.3676 53.5232 65.059 53.4789ZM61.9797 57.7028C61.7854 57.8916 61.64 58.1249 61.5562 58.3826C61.4723 58.6402 61.4525 58.9144 61.4985 59.1814L62.1 62.6828L58.944 61.0285C58.7043 60.903 58.4378 60.8374 58.1673 60.8374C57.8968 60.8374 57.6303 60.903 57.3907 61.0285L54.2349 62.6828L54.8365 59.1813C54.8824 58.9143 54.8626 58.6401 54.7787 58.3825C54.6949 58.1249 54.5495 57.8916 54.3552 57.7028L51.8067 55.2252L55.3307 54.7139C55.5986 54.6753 55.8531 54.5721 56.0723 54.4132C56.2914 54.2543 56.4686 54.0446 56.5887 53.8019L58.1669 50.6126L59.7449 53.8019C59.865 54.0445 60.0423 54.2543 60.2614 54.4131C60.4806 54.572 60.7351 54.6752 61.0029 54.7139L64.5271 55.2252L61.9797 57.7028ZM4.7173 37.2999H32.9471C33.7991 37.2989 34.6159 36.9601 35.2183 36.3576C35.8207 35.7552 36.1596 34.9384 36.1605 34.0865V6.67238C36.1596 5.82043 35.8207 5.00364 35.2183 4.40122C34.6159 3.7988 33.7991 3.45994 32.9471 3.45898H4.7173C3.86535 3.45994 3.04857 3.7988 2.44614 4.40122C1.84372 5.00364 1.50486 5.82043 1.50391 6.67238V34.0865C1.50486 34.9384 1.84372 35.7552 2.44614 36.3576C3.04857 36.9601 3.86535 37.2989 4.7173 37.2999ZM3.30859 6.67238C3.30903 6.2989 3.45759 5.94085 3.72168 5.67676C3.98577 5.41267 4.34382 5.26411 4.7173 5.26367H32.9471C33.3206 5.26411 33.6787 5.41267 33.9428 5.67676C34.2068 5.94085 34.3554 6.2989 34.3558 6.67238V34.0865C34.3554 34.46 34.2068 34.818 33.9428 35.0821C33.6787 35.3462 33.3206 35.4948 32.9471 35.4952H4.7173C4.34382 35.4948 3.98577 35.3462 3.72168 35.0821C3.45759 34.818 3.30903 34.46 3.30859 34.0865V6.67238Z" fill="#284268"/>
<path d="M11.2718 27.812H26.3927C26.5511 27.812 26.7068 27.7703 26.8441 27.691C26.9813 27.6118 27.0952 27.4977 27.1744 27.3604C27.2536 27.2231 27.2952 27.0674 27.295 26.9089C27.2949 26.7504 27.253 26.5948 27.1736 26.4576L19.6132 13.3966C19.5339 13.2597 19.4201 13.146 19.283 13.0669C19.1459 12.9879 18.9904 12.9463 18.8322 12.9463C18.674 12.9463 18.5185 12.9879 18.3815 13.0669C18.2444 13.146 18.1305 13.2597 18.0512 13.3966L10.4908 26.4576C10.4114 26.5948 10.3695 26.7504 10.3694 26.9089C10.3693 27.0674 10.4109 27.2231 10.49 27.3604C10.5692 27.4977 10.6831 27.6118 10.8204 27.691C10.9576 27.7703 11.1133 27.812 11.2718 27.812ZM18.8322 15.6498L24.8277 26.0073H12.8367L18.8322 15.6498ZM4.7173 73.5407H32.9471C33.7991 73.5398 34.6159 73.2009 35.2183 72.5985C35.8207 71.9961 36.1596 71.1793 36.1605 70.3273V42.9132C36.1596 42.0613 35.8207 41.2445 35.2183 40.642C34.6159 40.0396 33.7991 39.7008 32.9471 39.6998H4.7173C3.86535 39.7008 3.04857 40.0396 2.44614 40.642C1.84372 41.2445 1.50486 42.0613 1.50391 42.9132V70.3273C1.50486 71.1793 1.84372 71.9961 2.44614 72.5985C3.04857 73.2009 3.86535 73.5398 4.7173 73.5407ZM3.30859 42.9132C3.30903 42.5397 3.45759 42.1817 3.72168 41.9176C3.98577 41.6535 4.34382 41.5049 4.7173 41.5045H32.9471C33.3206 41.5049 33.6787 41.6535 33.9428 41.9176C34.2068 42.1817 34.3554 42.5397 34.3558 42.9132V70.3273C34.3554 70.7008 34.2068 71.0588 33.9428 71.3229C33.6787 71.587 33.3206 71.7356 32.9471 71.736H4.7173C4.34382 71.7356 3.98577 71.587 3.72168 71.3229C3.45759 71.0588 3.30903 70.7008 3.30859 70.3273V42.9132Z" fill="#284268"/>
<path d="M18.8321 64.2542C20.3412 64.2508 21.8153 63.8002 23.0683 62.9593C24.3214 62.1184 25.2971 60.925 25.8721 59.5298C26.4472 58.1347 26.5959 56.6004 26.2994 55.1208C26.0029 53.6412 25.2745 52.2826 24.2062 51.2168C23.1379 50.151 21.7777 49.4257 20.2974 49.1326C18.8171 48.8395 17.2832 48.9917 15.8893 49.57C14.4955 50.1483 13.3044 51.1267 12.4664 52.3817C11.6284 53.6367 11.1811 55.1118 11.1812 56.6209C11.1858 58.647 11.9939 60.5886 13.4282 62.0196C14.8626 63.4506 16.806 64.2543 18.8321 64.2542ZM18.8321 50.792C19.9842 50.7955 21.1094 51.1403 22.0657 51.7828C23.0219 52.4254 23.7663 53.3369 24.2048 54.4023C24.6433 55.4677 24.7563 56.6391 24.5294 57.7687C24.3025 58.8982 23.746 59.9352 22.9301 60.7486C22.1143 61.562 21.0756 62.1155 19.9454 62.3389C18.8152 62.5624 17.6441 62.446 16.5801 62.0043C15.516 61.5626 14.6067 60.8155 13.967 59.8574C13.3273 58.8992 12.9858 57.773 12.9858 56.6209C12.9899 55.0732 13.6077 53.5903 14.7037 52.4976C15.7997 51.4048 17.2844 50.7915 18.8321 50.792ZM72.2826 3.46094H44.0528C43.2009 3.46189 42.3841 3.80073 41.7817 4.40312C41.1793 5.00551 40.8404 5.82226 40.8394 6.67418V34.0884C40.8404 34.9404 41.1793 35.7571 41.7817 36.3595C42.3841 36.9619 43.2009 37.3007 44.0528 37.3017H72.2826C73.1345 37.3007 73.9513 36.9619 74.5537 36.3595C75.1561 35.7571 75.495 34.9404 75.496 34.0884V6.67418C75.495 5.82226 75.1561 5.00551 74.5537 4.40312C73.9513 3.80073 73.1345 3.46189 72.2826 3.46094ZM73.6913 34.0884C73.6909 34.4619 73.5423 34.8199 73.2782 35.084C73.0141 35.3481 72.6561 35.4966 72.2826 35.497H44.0528C43.6793 35.4966 43.3213 35.3481 43.0572 35.084C42.7931 34.8199 42.6445 34.4619 42.6441 34.0884V6.67418C42.6445 6.30072 42.7931 5.94268 43.0572 5.67861C43.3213 5.41455 43.6793 5.26602 44.0528 5.26563H72.2826C72.6561 5.26602 73.0141 5.41455 73.2782 5.67861C73.5423 5.94268 73.6909 6.30072 73.6913 6.67418V34.0884Z" fill="#284268"/>
<path d="M62.8762 12.9512H53.4593C52.7334 12.952 52.0373 13.2407 51.524 13.754C51.0106 14.2674 50.7219 14.9634 50.721 15.6893V25.0724C50.7219 25.7983 51.0106 26.4943 51.524 27.0077C52.0373 27.521 52.7334 27.8097 53.4593 27.8105H62.8762C63.6022 27.8097 64.2982 27.521 64.8115 27.0076C65.3248 26.4943 65.6136 25.7983 65.6144 25.0724V15.6893C65.6136 14.9634 65.3248 14.2674 64.8115 13.754C64.2982 13.2407 63.6022 12.952 62.8762 12.9512ZM63.8097 25.0727C63.8094 25.3202 63.711 25.5575 63.536 25.7325C63.361 25.9075 63.1237 26.0059 62.8762 26.0061H53.4593C53.2118 26.0059 52.9745 25.9075 52.7995 25.7325C52.6245 25.5575 52.526 25.3202 52.5257 25.0727V15.6893C52.526 15.4418 52.6245 15.2045 52.7995 15.0295C52.9745 14.8545 53.2118 14.7561 53.4593 14.7559H62.8762C63.1237 14.7561 63.361 14.8545 63.536 15.0295C63.711 15.2045 63.8094 15.4418 63.8097 15.6893V25.0727ZM6.20044 65.9816C6.43976 65.9816 6.66927 65.8865 6.83849 65.7173C7.00772 65.5481 7.10278 65.3186 7.10278 65.0793V53.8627C7.10278 53.6234 7.00772 53.3939 6.83849 53.2246C6.66927 53.0554 6.43976 52.9603 6.20044 52.9603C5.96112 52.9603 5.73161 53.0554 5.56239 53.2246C5.39316 53.3939 5.2981 53.6234 5.2981 53.8627V65.0793C5.2981 65.3186 5.39316 65.5481 5.56239 65.7173C5.73161 65.8865 5.96112 65.9816 6.20044 65.9816ZM6.20044 51.1411C6.43976 51.1411 6.66927 51.046 6.83849 50.8768C7.00772 50.7076 7.10278 50.478 7.10278 50.2387V47.6752C7.10278 47.4358 7.00772 47.2063 6.83849 47.0371C6.66927 46.8679 6.43976 46.7728 6.20044 46.7728C5.96112 46.7728 5.73161 46.8679 5.56239 47.0371C5.39316 47.2063 5.2981 47.4358 5.2981 47.6752V50.2387C5.2981 50.478 5.39316 50.7076 5.56239 50.8768C5.73161 51.046 5.96112 51.1411 6.20044 51.1411Z" fill="#284268"/>
</svg>
