<svg width="77" height="77" viewBox="0 0 77 77" fill="none" xmlns="http://www.w3.org/2000/svg">
<path d="M65.4502 74.4333C65.7906 74.4333 66.117 74.2981 66.3577 74.0574C66.5984 73.8167 66.7336 73.4903 66.7336 73.1499V15.518L61.6002 20.5423V73.1499C61.6002 73.4903 61.7354 73.8167 61.9761 74.0574C62.2168 74.2981 62.5432 74.4333 62.8836 74.4333H65.4502ZM3.85023 10.2666C3.50987 10.2666 3.18345 10.4018 2.94277 10.6425C2.7021 10.8832 2.56689 11.2096 2.56689 11.5499V14.1166C2.56689 14.457 2.7021 14.7834 2.94277 15.0241C3.18345 15.2647 3.50987 15.3999 3.85023 15.3999H6.41689V10.2666H3.85023ZM16.6836 10.2666V15.3999H55.8419L61.0869 10.2666H16.6836ZM69.3002 61.5999V66.7333H71.8669C72.2073 66.7333 72.5337 66.5981 72.7744 66.3574C73.015 66.1167 73.1502 65.7903 73.1502 65.4499V62.8833C73.1502 62.5429 73.015 62.2165 72.7744 61.9758C72.5337 61.7351 72.2073 61.5999 71.8669 61.5999H69.3002Z" fill="black"/>
<path d="M12.8334 2.56641H10.2667C9.92637 2.56641 9.59995 2.70161 9.35928 2.94229C9.11861 3.18296 8.9834 3.50938 8.9834 3.84974V65.4497C8.9834 65.7901 9.11861 66.1165 9.35928 66.3572C9.59995 66.5979 9.92637 66.7331 10.2667 66.7331H59.0334V61.5997H15.4001C15.0597 61.5997 14.7333 61.4645 14.4926 61.2239C14.2519 60.9832 14.1167 60.6568 14.1167 60.3164V3.84974C14.1167 3.50938 13.9815 3.18296 13.7409 2.94229C13.5002 2.70161 13.1738 2.56641 12.8334 2.56641Z" fill="black"/>
<path d="M16.6836 59.0326H18.5983L74.0486 4.76685C74.2821 4.5233 74.414 4.19986 74.4173 3.86245C74.4207 3.52504 74.2952 3.19906 74.0666 2.95093C73.827 2.71042 73.5024 2.57374 73.1629 2.57038C72.8234 2.56701 72.4963 2.69724 72.2519 2.93297L16.6836 57.3142V59.0326Z" fill="black"/>
</svg>
