<svg width="114" height="96" viewBox="0 0 114 96" fill="none" xmlns="http://www.w3.org/2000/svg">
<g clip-path="url(#clip0_704_1072)">
<path d="M11.8006 36.9231L46.4793 75.2885L29.7801 36.9231H11.8006ZM56.9998 81.4615L76.4266 36.9231H37.573L56.9998 81.4615ZM29.9471 29.5385L41.3025 7.38462H26.7186L10.6873 29.5385H29.9471ZM67.5203 75.2885L102.199 36.9231H84.2195L67.5203 75.2885ZM38.0184 29.5385H75.9812L64.6258 7.38462H49.3738L38.0184 29.5385ZM84.0525 29.5385H103.312L87.2811 7.38462H72.6971L84.0525 29.5385ZM91.9012 1.5L113.276 31.0385C113.796 31.7308 114.037 32.5288 114 33.4327C113.963 34.3365 113.647 35.1154 113.054 35.7692L59.616 94.8462C58.948 95.6154 58.076 96 56.9998 96C55.9236 96 55.0516 95.6154 54.3836 94.8462L0.946094 35.7692C0.352344 35.1154 0.0369141 34.3365 -0.000195313 33.4327C-0.0373047 32.5288 0.203906 31.7308 0.723437 31.0385L22.0984 1.5C22.7664 0.5 23.7127 0 24.9373 0H89.0623C90.2869 0 91.2332 0.5 91.9012 1.5Z" fill="#F1B709"/>
</g>
<defs>
<clipPath id="clip0_704_1072">
<rect width="114" height="96" fill="white"/>
</clipPath>
</defs>
</svg>
