<svg width="50" height="50" viewBox="0 0 50 50" fill="none" xmlns="http://www.w3.org/2000/svg">
<g clip-path="url(#clip0_2991_2793)">
<path d="M18.0346 40.2019C17.6869 40.2666 17.5351 40.4298 17.5786 40.69C17.622 40.9503 17.8173 41.0372 18.1644 40.9503C18.5121 40.8636 18.6638 40.7114 18.6202 40.4945C18.5771 40.256 18.3818 40.1582 18.0346 40.2019ZM16.179 40.4625C15.8317 40.4625 15.6581 40.5812 15.6581 40.8204C15.6581 41.1025 15.8427 41.2215 16.2115 41.1782C16.5588 41.1782 16.7325 41.0588 16.7325 40.8204C16.7325 40.5387 16.5479 40.4188 16.179 40.4625ZM13.64 40.3641C13.5533 40.603 13.6945 40.7653 14.0631 40.8525C14.3886 40.9822 14.5948 40.9173 14.6815 40.6571C14.7467 40.4187 14.6056 40.2455 14.2584 40.1363C13.9328 40.0498 13.7267 40.1247 13.64 40.3641Z" fill="black"/>
<path d="M47.2493 2.7504C45.4154 0.916914 43.2079 0 40.6248 0H9.37494C6.79271 0 4.58434 0.916914 2.7504 2.7504C0.916914 4.58423 0 6.7926 0 9.37494V40.6253C0 43.2077 0.916914 45.4159 2.7504 47.2494C4.58423 49.0832 6.79271 50.0001 9.37494 50.0001H16.6666C17.1436 50.0001 17.502 49.9837 17.7406 49.9518C17.9791 49.9189 18.2177 49.7778 18.4565 49.528C18.6955 49.2786 18.8145 48.915 18.8145 48.4378C18.8145 48.373 18.8088 47.6344 18.7981 46.2239C18.7871 44.813 18.7817 43.6955 18.7817 42.8707L18.033 43.001C17.5556 43.0877 16.9533 43.1259 16.2263 43.1149C15.4995 43.104 14.7452 43.0283 13.9641 42.8871C13.1825 42.7459 12.4558 42.4205 11.783 41.9109C11.1105 41.4005 10.6331 40.7334 10.3509 39.9089L10.0253 39.1597C9.80832 38.6611 9.46672 38.1075 9.00006 37.5003C8.53339 36.8924 8.06148 36.48 7.5841 36.263L7.35618 36.1002C7.20443 35.9918 7.06339 35.861 6.93307 35.7093C6.80298 35.5571 6.70538 35.405 6.64028 35.2535C6.57517 35.1013 6.62922 34.9765 6.80298 34.8786C6.97674 34.7811 7.29108 34.7327 7.74703 34.7327L8.39783 34.8302C8.832 34.9169 9.36879 35.177 10.0093 35.6113C10.6494 36.0453 11.1756 36.6094 11.588 37.3037C12.0874 38.1937 12.689 38.8714 13.3947 39.338C14.0998 39.8052 14.8106 40.0384 15.5267 40.0384C16.2427 40.0384 16.8611 39.9842 17.3822 39.8761C17.9026 39.7673 18.391 39.6042 18.8469 39.3872C19.0422 37.9334 19.574 36.8151 20.4418 36.034C19.2049 35.9037 18.0928 35.7086 17.1051 35.4479C16.1179 35.1873 15.0978 34.7644 14.0455 34.1783C12.9927 33.5922 12.1193 32.8657 11.4248 31.9971C10.7305 31.1286 10.1606 29.9893 9.71608 28.5792C9.2713 27.1682 9.04886 25.5404 9.04886 23.696C9.04886 21.0703 9.90637 18.8347 11.6207 16.9903C10.8176 15.0155 10.8934 12.8023 11.8484 10.3498C12.4778 10.1544 13.4111 10.301 14.6479 10.7893C15.885 11.278 16.7908 11.6958 17.3661 12.0426C17.9414 12.3894 18.4024 12.6827 18.7497 12.9216C20.7683 12.3574 22.8515 12.0753 24.9998 12.0753C27.1479 12.0753 29.2315 12.3574 31.2502 12.9216L32.4872 12.1404C33.3339 11.6193 34.332 11.142 35.4823 10.7081C36.6325 10.2742 37.5112 10.1547 38.1191 10.3501C39.0953 12.8026 39.1826 15.0159 38.3789 16.9905C40.0933 18.8352 40.951 21.0707 40.951 23.6963C40.951 25.5411 40.7286 27.1744 40.2838 28.5955C39.8394 30.0169 39.2646 31.1566 38.5587 32.0138C37.8537 32.8711 36.9746 33.5921 35.9222 34.1785C34.8697 34.7642 33.8497 35.1879 32.8621 35.4477C31.8746 35.7084 30.7626 35.9042 29.5256 36.0346C30.6534 37.0108 31.2175 38.5511 31.2175 40.6565V48.4367C31.2175 48.8058 31.2713 49.104 31.3799 49.3319C31.4891 49.5597 31.6624 49.7166 31.901 49.804C32.1407 49.8907 32.3513 49.9448 32.5362 49.9664C32.7211 49.9881 32.9865 49.9991 33.3337 49.9991H40.6254C43.2076 49.9991 45.4161 49.0822 47.2491 47.2483C49.083 45.4145 49.9999 43.206 49.9999 40.6238V9.37494C49.9997 6.7926 49.0827 4.58389 47.2493 2.7504Z" fill="black"/>
<path d="M9.89522 36.3931C9.74346 36.5012 9.76513 36.6748 9.96044 36.9136C10.1777 37.1304 10.3512 37.1631 10.4815 37.011C10.6332 36.903 10.6116 36.7293 10.4159 36.4901C10.1991 36.2951 10.0255 36.2624 9.89522 36.3931ZM8.8213 35.5792C8.75632 35.7314 8.83225 35.8618 9.04922 35.9699C9.22264 36.0787 9.36413 36.0573 9.47233 35.9051C9.53732 35.7529 9.46139 35.6226 9.24442 35.5137C9.02744 35.4485 8.88641 35.4704 8.8213 35.5792ZM10.9046 37.6628C10.7091 37.7708 10.7091 37.9667 10.9046 38.2485C11.0999 38.531 11.284 38.6067 11.4579 38.4763C11.6533 38.3242 11.6533 38.118 11.4579 37.8575C11.2845 37.5761 11.0999 37.5102 10.9046 37.6628ZM12.0442 39.1271C11.8488 39.3011 11.8919 39.5064 12.1744 39.7459C12.4345 40.0058 12.6515 40.0385 12.8252 39.8427C12.999 39.6695 12.9555 39.4635 12.695 39.2248C12.4349 38.9648 12.2178 38.932 12.0442 39.1271Z" fill="black"/>
</g>
<defs>
<clipPath id="clip0_2991_2793">
<rect width="50" height="50" fill="white"/>
</clipPath>
</defs>
</svg>
