<svg width="174" height="131" viewBox="0 0 174 131" fill="none" xmlns="http://www.w3.org/2000/svg">
<rect x="17.901" y="22.5188" width="154.696" height="97.6331" rx="9.25" stroke="black" stroke-width="1.5"/>
<rect x="45.5894" y="38.2639" width="44.2452" height="4.9145" rx="2.45725" stroke="black" stroke-width="1.5"/>
<rect x="45.5894" y="47.5945" width="44.2452" height="4.9145" rx="2.45725" stroke="black" stroke-width="1.5"/>
<rect x="38.0649" y="77.3337" width="63.2054" height="35.8207" rx="9.25" stroke="black" stroke-width="1.5"/>
<rect x="117.517" y="38.2639" width="46.9538" height="74.8908" rx="9.25" stroke="black" stroke-width="1.5"/>
<path d="M78.5944 102.488V87.4996C78.5944 86.322 77.3133 85.3584 75.7476 85.3584H55.8197C54.254 85.3584 52.9729 86.322 52.9729 87.4996V102.488C52.9729 103.666 54.254 104.63 55.8197 104.63H75.7476C77.3133 104.63 78.5944 103.666 78.5944 102.488ZM61.3711 97.1138L64.3602 99.8225L68.7728 95.5507C69.0575 95.2724 69.6269 95.2724 69.9116 95.5614L74.9077 100.572C74.987 100.651 75.0353 100.746 75.0472 100.845C75.0591 100.944 75.0341 101.044 74.9749 101.133C74.9158 101.221 74.825 101.296 74.7125 101.348C74.6001 101.401 74.4705 101.428 74.3384 101.428H57.2716C56.6738 101.428 56.3464 100.915 56.7165 100.561L60.2608 97.1352C60.5312 96.8569 61.0721 96.8462 61.3711 97.1138Z" fill="#C9A5FF"/>
<path d="M0.775146 78.992C0.775146 73.8833 4.91651 69.7419 10.0251 69.7419H48.7114C53.82 69.7419 57.9614 73.8833 57.9614 78.9919V120.221C57.9614 125.33 53.82 129.471 48.7114 129.471H10.0251C4.91651 129.471 0.775146 125.33 0.775146 120.221V78.992Z" fill="#FFEB68" stroke="black" stroke-width="1.5"/>
<path d="M38.3935 111.804C38.3272 111.923 38.2319 112.021 38.117 112.089C38.0022 112.157 37.872 112.193 37.7394 112.193H19.6169C19.4844 112.193 19.3543 112.157 19.2396 112.089C19.1249 112.02 19.0297 111.922 18.9635 111.804C18.8973 111.686 18.8625 111.552 18.8625 111.416C18.8626 111.279 18.8975 111.145 18.9637 111.027C20.4012 108.47 22.6165 106.636 25.2018 105.767C23.923 104.983 22.9295 103.789 22.3738 102.369C21.818 100.948 21.7309 99.3787 22.1257 97.9021C22.5204 96.4254 23.3753 95.123 24.5591 94.1947C25.7428 93.2664 27.1899 92.7637 28.6781 92.7637C30.1664 92.7637 31.6135 93.2664 32.7972 94.1947C33.9809 95.123 34.8358 96.4254 35.2306 97.9021C35.6254 99.3787 35.5382 100.948 34.9825 102.369C34.4268 103.789 33.4333 104.983 32.1545 105.767C34.7397 106.636 36.955 108.47 38.3926 111.027C38.459 111.145 38.494 111.279 38.4942 111.416C38.4944 111.552 38.4596 111.686 38.3935 111.804Z" fill="#C9A5FF"/>
<path d="M23.5033 48.2905C18.3531 46.9346 16.7653 44.5276 15.6151 38.1038C14.1487 45.4373 12.2368 47.3087 7.68054 48.2905C12.7283 49.3072 14.473 51.5555 15.6151 58.5965C17.1323 51.1431 18.8323 48.8267 23.5033 48.2905Z" fill="#FFEB68"/>
<path d="M171.385 15.8014C168.909 15.1726 168.146 14.0563 167.593 11.0771C166.888 14.4782 165.969 15.3461 163.778 15.8014C166.205 16.273 167.044 17.3156 167.593 20.581C168.322 17.1244 169.14 16.0501 171.385 15.8014Z" fill="#FFEB68"/>
<path d="M12.5495 54.4111C10.0734 53.7822 9.31006 52.6659 8.75708 49.6868C8.05207 53.0878 7.13289 53.9557 4.94238 54.4111C7.36919 54.8826 8.208 55.9253 8.75708 59.1906C9.48651 55.734 10.3038 54.6597 12.5495 54.4111Z" fill="#FFEB68"/>
<path d="M84.9688 16.6928C82.4927 16.064 81.7294 14.9477 81.1764 11.9685C80.4714 15.3696 79.5522 16.2375 77.3617 16.6928C79.7885 17.1643 80.6273 18.207 81.1764 21.4724C81.9058 18.0157 82.7231 16.9415 84.9688 16.6928Z" fill="#FFEB68"/>
<path d="M168.343 3.93008C166.56 3.49776 166.011 2.73031 165.613 0.682129C165.105 3.02036 164.443 3.61705 162.866 3.93008C164.613 4.25425 165.217 4.97109 165.613 7.21604C166.138 4.8396 166.726 4.10105 168.343 3.93008Z" fill="#FFEB68"/>
<path d="M12.5497 42.2428C10.767 41.8105 10.2174 41.0431 9.81921 38.9949C9.31161 41.3331 8.6498 41.9298 7.07263 42.2428C8.81994 42.567 9.42387 43.2838 9.81921 45.5288C10.3444 43.1523 10.9328 42.4138 12.5497 42.2428Z" fill="#FFEB68"/>
<path d="M167.43 10.2751C162.28 8.91922 160.692 6.51221 159.542 0.0883789C158.075 7.42191 156.163 9.29336 151.607 10.2751C156.655 11.2918 158.4 13.5401 159.542 20.5811C161.059 13.1277 162.759 10.8114 167.43 10.2751Z" fill="#FFEB68"/>
</svg>
