<svg width="34" height="32" viewBox="0 0 34 32" fill="none" xmlns="http://www.w3.org/2000/svg">
<g clip-path="url(#clip0_1382_2754)">
<path d="M17.31 0.37207C12.8632 0.37207 12.304 0.391312 10.5569 0.464429C8.80969 0.541394 7.61964 0.799229 6.57707 1.18021C5.48348 1.56661 4.49293 2.17273 3.67466 2.95619C2.84117 3.72526 2.19603 4.65566 1.7841 5.68269C1.37855 6.66015 1.10203 7.78 1.02215 9.41552C0.944311 11.0607 0.923828 11.584 0.923828 15.7671C0.923828 19.9463 0.944311 20.4697 1.02215 22.111C1.10408 23.7503 1.37855 24.8683 1.7841 25.8477C2.204 26.8598 2.76318 27.7179 3.67466 28.5742C4.5841 29.4304 5.49763 29.9576 6.57502 30.3501C7.61964 30.7311 8.80764 30.9909 10.5528 31.0659C12.302 31.139 12.8591 31.1583 17.31 31.1583C21.7609 31.1583 22.316 31.139 24.0652 31.0659C25.8083 30.989 27.0025 30.7311 28.045 30.3501C29.1379 29.9635 30.1278 29.3574 30.9454 28.5742C31.8569 27.7179 32.4161 26.8598 32.836 25.8477C33.2395 24.8683 33.516 23.7503 33.5979 22.111C33.6758 20.4697 33.6962 19.9463 33.6962 15.7652C33.6962 11.584 33.6758 11.0607 33.5979 9.41744C33.516 7.78 33.2395 6.66015 32.836 5.68269C32.4241 4.65563 31.7789 3.72522 30.9454 2.95619C30.1274 2.17244 29.1368 1.56628 28.043 1.18021C26.9984 0.799229 25.8063 0.53947 24.0632 0.464429C22.314 0.391312 21.7589 0.37207 17.3059 0.37207H17.3121H17.31ZM15.8414 3.14668H17.3121C21.6872 3.14668 22.2054 3.16015 23.9321 3.23519C25.5298 3.30253 26.3982 3.55459 26.9758 3.76433C27.7399 4.04333 28.2867 4.37813 28.8603 4.91688C29.4338 5.45564 29.7881 5.96746 30.0851 6.68709C30.3104 7.22777 30.5767 8.04361 30.6484 9.54444C30.7283 11.1665 30.7447 11.6533 30.7447 15.7613C30.7447 19.8694 30.7283 20.3581 30.6484 21.9801C30.5767 23.481 30.3084 24.2949 30.0851 24.8375C29.8224 25.5058 29.4031 26.1102 28.8582 26.6058C28.2847 27.1445 27.7399 27.4774 26.9738 27.7564C26.4003 27.9681 25.5318 28.2182 23.9321 28.2875C22.2054 28.3606 21.6872 28.3779 17.3121 28.3779C12.937 28.3779 12.4167 28.3606 10.69 28.2875C9.09235 28.2182 8.22593 27.9681 7.64832 27.7564C6.93654 27.51 6.29262 27.1168 5.7639 26.6058C5.21855 26.1094 4.7986 25.5045 4.53494 24.8356C4.31168 24.2949 4.04335 23.479 3.97166 21.9782C3.89383 20.3562 3.87744 19.8694 3.87744 15.7575C3.87744 11.6475 3.89383 11.1626 3.97166 9.54059C4.0454 8.03976 4.31168 7.22393 4.53699 6.68132C4.83399 5.96361 5.19039 5.44987 5.7639 4.91111C6.33742 4.37235 6.88226 4.03948 7.64832 3.76048C8.22593 3.54882 9.09235 3.29868 10.69 3.22941C12.2016 3.16399 12.7874 3.14475 15.8414 3.14283V3.14668ZM26.0582 5.70193C25.8 5.70193 25.5443 5.74971 25.3057 5.84254C25.0672 5.93537 24.8504 6.07143 24.6678 6.24296C24.4852 6.41448 24.3404 6.61811 24.2416 6.84222C24.1427 7.06633 24.0919 7.30653 24.0919 7.5491C24.0919 7.79168 24.1427 8.03188 24.2416 8.25599C24.3404 8.4801 24.4852 8.68373 24.6678 8.85525C24.8504 9.02678 25.0672 9.16284 25.3057 9.25567C25.5443 9.3485 25.8 9.39628 26.0582 9.39628C26.5797 9.39628 27.0799 9.20166 27.4486 8.85525C27.8174 8.50884 28.0246 8.039 28.0246 7.5491C28.0246 7.0592 27.8174 6.58937 27.4486 6.24296C27.0799 5.89654 26.5797 5.70193 26.0582 5.70193ZM17.3121 7.86081C16.1959 7.84446 15.0874 8.03685 14.0512 8.42678C13.0149 8.81672 12.0716 9.39641 11.2761 10.1321C10.4806 10.8678 9.84891 11.7448 9.4177 12.7121C8.98649 13.6793 8.76442 14.7175 8.76442 15.7661C8.76442 16.8148 8.98649 17.853 9.4177 18.8202C9.84891 19.7875 10.4806 20.6645 11.2761 21.4002C12.0716 22.1359 13.0149 22.7155 14.0512 23.1055C15.0874 23.4954 16.1959 23.6878 17.3121 23.6715C19.5212 23.6391 21.6282 22.792 23.1783 21.3129C24.7284 19.8339 25.5972 17.8416 25.5972 15.7661C25.5972 13.6906 24.7284 11.6983 23.1783 10.2193C21.6282 8.74031 19.5212 7.89319 17.3121 7.86081ZM17.3121 10.6335C18.7609 10.6335 20.1504 11.1742 21.1748 12.1365C22.1993 13.0989 22.7748 14.4042 22.7748 15.7652C22.7748 17.1262 22.1993 18.4314 21.1748 19.3938C20.1504 20.3562 18.7609 20.8968 17.3121 20.8968C15.8633 20.8968 14.4738 20.3562 13.4493 19.3938C12.4249 18.4314 11.8493 17.1262 11.8493 15.7652C11.8493 14.4042 12.4249 13.0989 13.4493 12.1365C14.4738 11.1742 15.8633 10.6335 17.3121 10.6335Z" fill="#0F0F0F"/>
</g>
<defs>
<clipPath id="clip0_1382_2754">
<rect width="32.7724" height="30.7862" fill="white" transform="translate(0.923828 0.37207)"/>
</clipPath>
</defs>
</svg>
