<svg width="32" height="32" viewBox="0 0 32 32" fill="none" xmlns="http://www.w3.org/2000/svg">
<g clip-path="url(#clip0_2413_3008)">
<path d="M12.8257 10.75H3.42431C1.53613 10.75 0 12.2861 0 14.1743V29.1875C0 30.7383 1.26169 32 2.8125 32H13.4375C14.9883 32 16.25 30.7383 16.25 29.1875V14.1743C16.25 12.2861 14.7139 10.75 12.8257 10.75ZM1.25 4.375C1.76775 4.375 2.1875 3.95525 2.1875 3.4375C2.1875 2.57594 2.88844 1.875 3.75 1.875H5.9375V6.375H3.75C3.23225 6.375 2.8125 6.79475 2.8125 7.3125V8.875H13.4375V7.3125C13.4375 6.79475 13.0177 6.375 12.5 6.375H10.3125V1.875H12.5C13.0177 1.875 13.4375 1.45525 13.4375 0.9375C13.4375 0.41975 13.0177 0 12.5 0H3.75C1.85456 0 0.3125 1.54206 0.3125 3.4375C0.3125 3.95525 0.73225 4.375 1.25 4.375Z" fill="#F2B705"/>
<path d="M26.0625 20.125C26.5803 20.125 27 19.7053 27 19.1875C27 18.6697 26.5803 18.25 26.0625 18.25C25.5447 18.25 25.125 18.6697 25.125 19.1875C25.125 19.7053 25.5447 20.125 26.0625 20.125Z" fill="#F2B705"/>
<path d="M31.4476 11.7015C31.3665 11.5759 31.2564 11.4715 31.1267 11.3971C30.997 11.3227 30.8514 11.2804 30.702 11.2737C30.5526 11.267 30.4038 11.2961 30.2679 11.3587C30.1321 11.4213 30.0132 11.5155 29.9212 11.6334C29.7393 11.8663 29.4719 12 29.1875 12C28.6706 12 28.25 11.5794 28.25 11.0625C28.25 10.5447 27.8302 10.125 27.3125 10.125H21.6875C19.7921 10.125 18.25 11.6671 18.25 13.5625V20.4375C18.25 20.9552 18.6697 21.375 19.1875 21.375C19.7044 21.375 20.125 21.7956 20.125 22.3125C20.125 22.8294 19.7044 23.25 19.1875 23.25C18.6697 23.25 18.25 23.6698 18.25 24.1875V28.5625C18.25 30.4579 19.7921 32 21.6875 32H28.5625C30.4579 32 32 30.4579 32 28.5625V13.5625C32 12.9043 31.809 12.2607 31.4476 11.7015ZM22.9375 13.875C23.4552 13.875 23.875 14.2948 23.875 14.8125C23.875 15.3302 23.4552 15.75 22.9375 15.75C22.4198 15.75 22 15.3302 22 14.8125C22 14.2948 22.4198 13.875 22.9375 13.875ZM22.9375 28.25C22.4198 28.25 22 27.8302 22 27.3125C22 26.7948 22.4198 26.375 22.9375 26.375C23.4552 26.375 23.875 26.7948 23.875 27.3125C23.875 27.8302 23.4552 28.25 22.9375 28.25ZM27.9375 25.125C27.4198 25.125 27 24.7052 27 24.1875C27 23.6698 27.4198 23.25 27.9375 23.25C28.4552 23.25 28.875 23.6698 28.875 24.1875C28.875 24.7052 28.4552 25.125 27.9375 25.125ZM26.0625 22C24.5117 22 23.25 20.7383 23.25 19.1875C23.25 17.6367 24.5117 16.375 26.0625 16.375C27.6133 16.375 28.875 17.6367 28.875 19.1875C28.875 20.7383 27.6133 22 26.0625 22Z" fill="#F2B705"/>
</g>
<defs>
<clipPath id="clip0_2413_3008">
<rect width="32" height="32" fill="white"/>
</clipPath>
</defs>
</svg>
