<svg width="41" height="39" viewBox="0 0 41 39" fill="none" xmlns="http://www.w3.org/2000/svg">
<path d="M35.1844 4.52051H5.9189C5.21509 4.52051 4.64648 5.04751 4.64648 5.69982V32.824C4.64648 33.4763 5.21509 34.0033 5.9189 34.0033H35.1844C35.8882 34.0033 36.4568 33.4763 36.4568 32.824V5.69982C36.4568 5.04751 35.8882 4.52051 35.1844 4.52051ZM14.0822 29.6435H9.36237V15.5729H14.0822V29.6435ZM11.7243 13.6491C11.1832 13.6491 10.6543 13.5004 10.2044 13.2218C9.75454 12.9432 9.4039 12.5472 9.19684 12.0839C8.98978 11.6206 8.93561 11.1108 9.04116 10.6189C9.14672 10.1271 9.40727 9.67531 9.78986 9.32071C10.1725 8.96611 10.6599 8.72463 11.1906 8.62679C11.7213 8.52896 12.2713 8.57917 12.7712 8.77108C13.2711 8.96298 13.6983 9.28797 13.9989 9.70493C14.2995 10.1219 14.46 10.6121 14.46 11.1136C14.456 12.514 13.2313 13.6491 11.7243 13.6491ZM31.7529 29.6435H27.037V22.7998C27.037 21.1672 27.0052 19.0702 24.5836 19.0702C22.1302 19.0702 21.7525 20.8466 21.7525 22.6819V29.6435H17.0406V15.5729H21.5656V17.4966H21.6292C22.2575 16.391 23.7963 15.2227 26.0946 15.2227C30.8741 15.2227 31.7529 18.1379 31.7529 21.9264V29.6435Z" fill="#0F0F0F"/>
</svg>
