<svg width="30" height="30" viewBox="0 0 30 30" fill="none" xmlns="http://www.w3.org/2000/svg">
<path d="M21.8377 11.2194L13.6641 19.3931L17.3926 23.1224L25.5666 14.9483L21.8377 11.2194ZM12.4212 20.636L12.0908 20.9663C11.9943 21.0628 11.9216 21.1805 11.8785 21.31L10.6364 25.0378C10.4074 25.7253 11.0623 26.3787 11.7492 26.1481L15.4939 24.891C15.6226 24.8478 15.7396 24.7753 15.8357 24.6793L16.1497 24.3653L12.4212 20.636ZM29.2293 7.47634C28.2453 6.49226 26.4839 6.49226 25.4999 7.47634L23.0805 9.9766L26.8095 13.7055L29.2293 11.2048C30.2566 10.1775 30.2566 8.5046 29.2293 7.47634Z" fill="#00C2FF"/>
<path d="M4.39453 15.9375H14.6341L22.9102 7.64455V4.40742C22.9102 2.95348 21.7444 1.7707 20.2904 1.7707H19.3359V0.878906C19.3359 0.393105 18.9428 0 18.457 0C17.9712 0 17.5781 0.393105 17.5781 0.878906V1.7707H15.8203V0.878906C15.8203 0.393105 15.4272 0 14.9414 0C14.4556 0 14.0625 0.393105 14.0625 0.878906V1.7707H12.3047V0.878906C12.3047 0.393105 11.9116 0 11.4258 0C10.94 0 10.5469 0.393105 10.5469 0.878906V1.7707H8.78906V0.878906C8.78906 0.393105 8.39596 0 7.91016 0C7.42436 0 7.03125 0.393105 7.03125 0.878906V1.7707H5.27344V0.878906C5.27344 0.393105 4.88033 0 4.39453 0C3.90873 0 3.51562 0.393105 3.51562 0.878906V1.7707H2.63672C1.18277 1.7707 0 2.95002 0 4.39887V27.3642C0 28.8181 1.18277 30 2.63502 30H20.2904C21.7444 30 22.9102 28.8301 22.9102 27.377V20.0737L17.0786 25.9222C16.7917 26.2082 16.4432 26.4249 16.0598 26.5556L12.309 27.8147C11.2014 28.1862 10.003 27.7897 9.32895 26.8543C8.879 26.2295 8.74564 25.4667 8.91838 24.7266H4.39453C3.90873 24.7266 3.51562 24.3335 3.51562 23.8477C3.51562 23.3619 3.90873 22.9688 4.39453 22.9688H9.47344L10.0591 21.2109H4.39453C3.90873 21.2109 3.51562 20.8178 3.51562 20.332C3.51562 19.8462 3.90873 19.4531 4.39453 19.4531H11.1185L12.8763 17.6953H4.39453C3.90873 17.6953 3.51562 17.3022 3.51562 16.8164C3.51562 16.3306 3.90873 15.9375 4.39453 15.9375ZM4.39453 8.90625H10.8387C11.3245 8.90625 11.7176 9.29936 11.7176 9.78516C11.7176 10.271 11.3245 10.6641 10.8387 10.6641H4.39453C3.90873 10.6641 3.51562 10.271 3.51562 9.78516C3.51562 9.29936 3.90873 8.90625 4.39453 8.90625ZM4.39453 12.4219H14.4831C14.9689 12.4219 15.362 12.815 15.362 13.3008C15.362 13.7866 14.9689 14.1797 14.4831 14.1797H4.39453C3.90873 14.1797 3.51562 13.7866 3.51562 13.3008C3.51562 12.815 3.90873 12.4219 4.39453 12.4219Z" fill="#00C2FF"/>
</svg>
