<svg width="30" height="30" viewBox="0 0 30 30" fill="none" xmlns="http://www.w3.org/2000/svg">
<g clip-path="url(#clip0_2413_3062)">
<path d="M29.7206 22.604C26.068 20.1826 26.153 12.0688 26.2292 4.9086C26.2393 3.87856 26.2505 2.86229 26.2505 1.87479C26.2505 1.52978 25.9705 1.24976 25.6255 1.24976H3.12504C3.10377 1.24976 3.08631 1.25978 3.06627 1.26224C3.02385 1.26621 2.98197 1.2746 2.94129 1.28726C2.90439 1.29794 2.86877 1.31261 2.83506 1.33103C2.80008 1.34978 2.76879 1.37105 2.73755 1.39601C2.7038 1.42349 2.67503 1.45349 2.64755 1.48724C2.63507 1.50347 2.61755 1.51226 2.60507 1.52849L0.105003 5.27857C0.0363611 5.381 -0.000195498 5.50156 7.86307e-07 5.62486V28.1241C7.86307e-07 28.2066 0.0162316 28.2891 0.0487517 28.3653C0.0662716 28.4066 0.0962722 28.4378 0.121234 28.4741C0.142504 28.5053 0.154984 28.539 0.182465 28.5666C0.203735 28.5866 0.229986 28.5954 0.252486 28.6128C0.294968 28.6453 0.336218 28.6803 0.386258 28.7003C0.46249 28.734 0.543761 28.7503 0.625033 28.7503H21.8755C21.9992 28.7503 22.1192 28.714 22.2217 28.6453L25.9718 26.1452C25.9893 26.134 25.998 26.1164 26.013 26.104C26.0464 26.0771 26.0766 26.0464 26.103 26.0127C26.128 25.9815 26.1493 25.9515 26.168 25.9165C26.1868 25.8815 26.2005 25.8464 26.213 25.8077C26.2255 25.7664 26.2343 25.7264 26.238 25.6839C26.2406 25.664 26.2505 25.6464 26.2505 25.6252V23.7501H29.3756C29.6518 23.7501 29.8943 23.5689 29.973 23.3051C30.012 23.1766 30.0085 23.039 29.963 22.9127C29.9176 22.7864 29.8325 22.6781 29.7206 22.604ZM1.25001 5.8136L2.50001 3.93856V25.3665L1.25001 26.6165V5.8136ZM21.6867 27.5003H2.13379L3.3838 26.2503H23.5617L21.6867 27.5003ZM25.0005 25.0003H3.75007V16.4838C4.53132 19.7039 5.78138 22.3215 7.78017 23.6465C7.88256 23.714 8.00251 23.7501 8.12518 23.7503H25.0005V25.0003ZM8.32018 22.5002C4.37757 19.6677 3.78131 10.4599 3.75259 2.49982H24.9955C24.9919 3.2986 24.9865 4.09736 24.9793 4.89612C24.9055 11.8513 24.8305 19.0164 27.7569 22.5002H8.32018Z" fill="white"/>
</g>
<defs>
<clipPath id="clip0_2413_3062">
<rect width="30" height="30" fill="white"/>
</clipPath>
</defs>
</svg>
