<svg width="53" height="45" viewBox="0 0 53 45" fill="none" xmlns="http://www.w3.org/2000/svg">
<path d="M51.8858 23.1316C51.5211 22.8729 51.1901 22.5724 50.9002 22.2368C50.2459 21.4684 46.9682 17.9096 43.6926 14.304C36.1326 5.98587 35.3053 5.58434 29.6068 7.90794C24.4824 10.0196 21.2828 9.00248 19.3939 4.60597C19.0337 5.51249 18.435 6.31267 17.6569 6.92754C16.7545 7.75585 15.6211 8.31129 14.3961 8.52553C14.1391 8.70124 13.8705 8.86056 13.592 9.00248C13.0365 9.27922 12.4362 9.46257 11.817 9.54466C15.5907 10.9714 17.0575 12.3289 17.3044 14.8441C17.4522 16.3402 17.2052 17.1249 15.9663 18.9002C14.0035 21.5357 13.7228 24.3689 15.2276 26.1911C16.1288 27.2938 28.0007 37.2486 33.5177 41.5371C34.746 42.4624 35.7084 43.3817 35.7527 43.5753C35.9548 43.6903 36.15 43.8162 36.3374 43.9524C36.4957 44.0645 36.6518 44.1766 36.8059 44.2928L36.9051 44.3539C37.0824 44.4721 37.2491 44.5944 37.4074 44.7208L37.6417 44.8533C38.6351 44.105 39.6809 43.4239 40.7716 42.815C40.588 42.6703 40.4107 42.5154 40.244 42.3564C39.2035 41.9488 37.0254 40.0349 32.2999 35.5731C28.1927 31.6597 24.8074 28.0968 24.8264 27.6769C24.8602 26.8861 25.3604 26.3439 26.0463 26.3663C26.3101 26.3663 29.8622 29.6642 33.9672 33.6714C35.6873 35.351 37.2787 36.953 38.5556 38.2697C38.5833 37.8922 38.6454 37.5177 38.7413 37.1507C38.7539 37.1018 38.7687 37.0549 38.7835 37.0081C38.2833 34.4113 40.3938 31.621 43.2768 30.9463C43.7201 30.8423 44.1506 30.716 44.5875 30.5937C45.1658 30.3083 45.7483 30.0393 46.3034 29.7152C46.5714 29.5562 46.8352 29.3911 47.097 29.224C47.5439 28.8146 48.0309 28.4481 48.5511 28.1294C47.7576 27.9806 46.4786 26.7781 42.574 23.0216C39.3787 19.9785 36.9621 17.2859 37.1837 17.0148C38.0279 15.8327 39.672 16.8661 44.8914 21.9352C47.0146 23.9734 48.3211 25.2433 49.0619 26.0667C49.1104 26.1054 49.1611 26.1462 49.2096 26.189C49.3464 26.3189 49.458 26.4715 49.5389 26.6395C49.7105 26.8323 49.8256 27.0659 49.8723 27.3162L49.9757 27.253C50.5435 26.9004 51.126 26.5681 51.6979 26.2339L51.8436 26.1442L52.1939 25.5796C52.3797 25.1719 52.5654 24.7643 52.768 24.3566C52.4307 23.979 52.135 23.5685 51.8858 23.1316ZM38.6273 32.3996L37.5826 33.3433L32.359 28.3659C27.3886 23.6779 26.3502 22.0575 27.8994 21.6396C28.9673 21.3502 29.839 21.9841 34.8536 26.8616C39.6193 31.4538 39.672 31.4559 38.6273 32.3996ZM39.2605 23.8002C42.4559 26.8433 44.9336 29.3972 44.8239 29.4869C44.6593 29.6214 44.0155 29.8334 43.3233 29.9965C42.2553 30.239 41.2845 29.5073 36.5146 25.0109C32.4054 21.1382 31.0504 19.5076 31.3396 18.9655C32.0424 17.451 33.5345 18.3397 39.2647 23.8002H39.2605Z" fill="#F2B705"/>
<path d="M3.3537 1.07368C3.19516 1.39644 3.10408 1.74622 3.08567 2.103C3.06112 2.27878 3.08092 2.45769 3.14339 2.62449C3.20586 2.79129 3.30915 2.94104 3.44446 3.06098C3.76737 3.40748 4.1114 3.55832 5.86948 4.12087C6.99441 4.47757 7.98003 4.72215 8.0539 4.6712C8.09739 4.63226 8.1319 4.58491 8.15518 4.53223C8.17845 4.47955 8.18996 4.42273 8.18898 4.36546C8.18898 4.24316 8.50767 3.55016 8.88335 2.81843C9.25903 2.0867 9.53762 1.46299 9.50385 1.42834C9.47008 1.39369 8.62164 1.04311 7.63812 0.65992C6.16073 0.0708654 5.73862 -0.0371624 5.22365 0.00971735C4.38576 0.0688266 3.67029 0.482592 3.3537 1.07368Z" fill="#F2B705"/>
<path d="M0.926544 4.80572C0.53381 5.2719 0.335143 5.86274 0.369355 6.46282C0.453777 6.96626 1.04684 7.63685 1.67157 7.92424C2.37581 8.15532 3.09677 8.33587 3.82855 8.46438C4.7783 8.64986 5.87156 8.87203 6.26623 8.98006C7.27297 9.24299 9.0606 9.44274 9.24211 9.31025C9.34131 9.23688 9.19357 9.16758 8.76513 9.10643C7.93569 8.99636 6.7981 8.49495 6.65458 8.21367C6.47518 7.82437 6.86563 6.7869 7.62121 5.68013C7.73096 5.50892 7.6993 5.4763 7.06825 5.23375C6.23458 4.91986 3.40011 4.0536 2.97378 3.99246C2.31951 3.89666 1.41197 4.25947 0.926544 4.80572Z" fill="#F2B705"/>
<path d="M9.82464 1.95216C9.06484 3.2648 8.82213 3.79882 8.66806 4.55093C8.49669 5.15594 8.24784 5.73794 7.92726 6.28345C7.6592 6.6968 7.44646 7.14128 7.29409 7.60627C7.26244 7.89774 7.26876 7.9222 7.80484 8.18717C8.50595 8.49115 9.2929 8.55724 10.0378 8.3747C10.7892 8.17087 11.9479 7.19047 12.7815 6.05516C12.9229 5.86357 12.9694 5.85134 13.1424 6.04497C13.4564 6.25547 13.8045 6.41391 14.1724 6.51377C14.8879 6.73798 14.9744 6.79301 14.8646 6.94792C12.4924 10.3742 12.2117 12.3636 13.7524 14.946C14.0732 15.4862 14.6093 16.33 14.9533 16.8232C15.5632 17.6895 15.5611 17.7058 15.1475 17.4347C14.6156 17.0638 13.3978 15.6003 12.8258 14.624C11.8086 12.9241 11.9816 10.9735 13.3683 8.22998L13.8727 7.22308L13.5054 7.11709C13.2944 7.06002 13.1044 6.9948 13.0833 6.98461C12.9341 7.12797 12.81 7.29389 12.7161 7.47583C12.4755 7.83048 12.0829 8.18718 11.2809 8.78846L10.1666 9.61599L10.8293 10.4129C11.4012 11.1121 11.492 11.2833 11.5152 11.7582C11.4963 12.1423 11.3961 12.5187 11.2208 12.864C11.0455 13.2093 10.7987 13.5162 10.4958 13.7659C10.1053 14.0512 10.0927 14.0757 10.3396 14.357C10.7111 14.7646 10.6921 15.2742 10.27 16.12C9.8964 16.9109 9.48695 17.2839 8.97198 17.3634C8.67017 17.4184 5.84203 17.3532 3.76525 17.2594C3.16797 17.2329 2.8957 17.2594 3.04555 17.3369C3.1954 17.4143 3.49721 17.6039 3.76314 17.7812C4.66857 18.3927 4.80153 18.4375 5.10334 18.3825C5.27219 18.3479 5.41148 18.3519 5.40515 18.3988C5.39248 18.5293 7.09359 19.7889 7.92093 20.2577C8.6469 20.6984 9.46368 20.9808 10.3143 21.0852C10.985 21.2288 11.6401 21.4336 12.2708 21.6967L13.5202 22.2002L17.0512 25.92C20.3943 29.4359 20.6032 29.6398 20.732 29.4726C20.8164 29.3809 22.5513 27.3264 24.5943 24.9151C26.6373 22.5039 28.311 20.5104 28.3236 20.486C28.3363 20.4615 22.5238 15.7695 21.8738 15.2905C21.6627 15.1437 21.6268 14.8461 21.6437 13.7475C21.6866 11.9493 21.5815 10.1507 21.3293 8.36858C21.0486 6.51785 20.3014 3.59499 20.0439 3.32187C19.7379 2.99371 19.3369 2.85511 16.5636 2.12338C15.2424 1.77687 13.6194 1.32234 12.9398 1.11852C10.7976 0.468318 10.6541 0.513158 9.82464 1.95216ZM19.3369 18.3968C19.2884 19.1917 19.2229 19.104 21.0528 20.7163C22.2431 21.7538 22.4753 22.0024 22.2663 21.9759C22.2283 21.9759 21.5171 21.4643 20.6982 20.8427C19.1702 19.6788 18.8895 19.5402 18.5687 19.7746C18.1972 20.0457 18.4167 20.3331 20.1579 21.9046C21.6648 23.2621 22.0954 23.7227 21.6353 23.472C21.5403 23.4231 20.7911 22.9115 19.9595 22.3286C17.7097 20.755 17.6928 20.7367 16.6058 20.7836C16.2936 20.817 15.978 20.8067 15.6688 20.753C15.6688 20.7122 16.0571 20.486 16.513 20.2455C17.5303 19.7114 18.4441 18.941 18.9 18.2215C19.0179 18.0303 19.1551 17.8507 19.3095 17.6854C19.3617 17.9192 19.371 18.1599 19.3369 18.3968Z" fill="#F2B705"/>
<path d="M0.255381 10.1928C0.126897 10.4227 0.0404965 10.6723 0 10.9307C0 11.5727 0.578293 12.4288 1.15658 12.6326C1.60191 12.7834 8.2016 13.5824 8.8411 13.562C9.95336 13.5253 10.6076 13.0178 10.6752 12.1353C10.7047 11.7724 10.6266 11.5625 10.3185 11.161C9.78241 10.4802 9.12814 10.2132 7.51568 10.0053C6.82341 9.91357 5.73015 9.69955 5.09065 9.54057C3.32201 9.07381 2.74161 8.97597 1.99447 9.05954C1.6279 9.08719 1.27501 9.20613 0.970217 9.40475C0.665425 9.60336 0.419141 9.87487 0.255381 10.1928Z" fill="#F2B705"/>
<path d="M1.01307 14.0451C0.379902 14.9623 0.675379 15.9733 1.66523 16.383C2.13144 16.5184 2.61568 16.587 3.10251 16.5868C3.6196 16.5868 4.65166 16.6194 5.38402 16.6643C7.10201 16.7519 8.60261 16.6255 8.99306 16.3402C9.61567 15.8877 9.69798 14.7707 9.13236 14.4528C8.9213 14.3284 2.41447 13.3827 1.84884 13.3929C1.52593 13.4051 1.34865 13.5294 1.01307 14.0451Z" fill="#F2B705"/>
<path d="M29.858 20.219C29.0137 21.2096 27.4541 23.1031 24.8412 26.2746L19.2883 33.0355L19.7569 33.5879L20.2233 34.1402L25.3646 26.88C27.357 24.0631 29.1214 21.5683 30.0078 20.3107L29.858 20.219Z" fill="#F2B705"/>
</svg>
