<svg width="21" height="35" viewBox="0 0 21 35" fill="none" xmlns="http://www.w3.org/2000/svg">
<path d="M19.2329 0C18.6666 0 18.2075 0.459102 18.2075 1.02539V12.669H15.8918V1.02539C15.8918 0.459102 15.4327 0 14.8665 0C14.3002 0 13.8411 0.459102 13.8411 1.02539V12.669H11.5254V1.02539C11.5254 0.459102 11.0663 0 10.5 0C9.93371 0 9.47461 0.459102 9.47461 1.02539V12.669H7.15894V1.02539C7.15894 0.459102 6.69983 0 6.13354 0C5.56726 0 5.10815 0.459102 5.10815 1.02539V12.669H2.79248V1.02539C2.79248 0.459102 2.33338 0 1.76709 0C1.2008 0 0.741699 0.459102 0.741699 1.02539V17.9293C0.741699 19.0408 1.34395 20.0689 2.31328 20.6124L5.75996 22.5456C6.10996 22.7418 6.31436 23.1273 6.28018 23.5272L5.74629 29.7739C5.4827 32.5718 7.68886 35 10.5041 35C13.3136 35 15.5209 32.5812 15.2626 29.7821L14.7321 23.5252C14.6979 23.126 14.9017 22.7411 15.251 22.5449L18.6895 20.6124C19.6574 20.0683 20.2583 19.0408 20.2583 17.9307V1.02539C20.2583 0.459102 19.7992 0 19.2329 0ZM11.5254 29.8047C11.5254 30.3699 11.066 30.8301 10.5 30.8301C9.93398 30.8301 9.47461 30.3707 9.47461 29.8047C9.47461 29.2395 9.93398 28.7793 10.5 28.7793C11.0652 28.7793 11.5254 29.2387 11.5254 29.8047Z" fill="#00C2FF"/>
</svg>
