<svg width="32" height="32" viewBox="0 0 32 32" fill="none" xmlns="http://www.w3.org/2000/svg">
<g clip-path="url(#clip0_2413_2882)">
<path d="M31.7255 8.46245L26.7559 3.49322L26.7553 3.49253L24.2703 1.00732C23.621 0.358036 22.7552 0.000488281 21.8324 0.000488281C20.9094 0.000488281 20.0436 0.358036 19.3944 1.00726L1.00818 19.3935C-0.336142 20.7378 -0.336018 22.9251 1.0083 24.2695L3.49345 26.7544L3.4937 26.7546L8.46362 31.7246C8.64668 31.9076 8.88661 31.9992 9.12647 31.9992C9.36633 31.9992 9.60633 31.9076 9.78932 31.7246C10.1554 31.3585 10.1554 30.7649 9.78932 30.3988L5.48193 26.0914L7.28992 24.2835L11.5973 28.5908C11.6843 28.6779 11.7876 28.7471 11.9014 28.7942C12.0151 28.8414 12.1371 28.8655 12.2602 28.8654C12.5001 28.8654 12.7401 28.7738 12.9231 28.5908C13.2891 28.2246 13.2891 27.6311 12.923 27.265L8.61562 22.9577L10.4236 21.1497L14.7311 25.4569C14.818 25.5441 14.9213 25.6133 15.0351 25.6604C15.1489 25.7075 15.2708 25.7317 15.394 25.7316C15.6338 25.7316 15.8738 25.64 16.0568 25.4569C16.423 25.0908 16.4229 24.4973 16.0567 24.1312L11.7495 19.824L13.5575 18.0161L17.8649 22.3232C17.9518 22.4104 18.0551 22.4795 18.1689 22.5267C18.2827 22.5738 18.4046 22.598 18.5278 22.5978C18.7676 22.5978 19.0076 22.5063 19.1906 22.3232C19.5566 21.9571 19.5566 21.3636 19.1906 20.9974L14.8832 16.6903L16.6913 14.8823L20.9986 19.1895C21.0856 19.2767 21.1889 19.3458 21.3027 19.393C21.4164 19.4401 21.5384 19.4643 21.6615 19.4641C21.9014 19.4641 22.1414 19.3726 22.3243 19.1895C22.6903 18.8235 22.6903 18.2299 22.3243 17.8638L18.017 13.5565L19.825 11.7484L24.1324 16.0557C24.2193 16.1429 24.3226 16.212 24.4364 16.2592C24.5502 16.3063 24.6721 16.3305 24.7953 16.3303C25.0351 16.3303 25.2751 16.2388 25.458 16.0557C25.8241 15.6897 25.8241 15.0961 25.458 14.7299L21.1507 10.4227L22.9587 8.61476L27.2661 12.922C27.3531 13.0092 27.4564 13.0783 27.5702 13.1255C27.6839 13.1726 27.8059 13.1968 27.929 13.1966C28.1689 13.1966 28.4089 13.1051 28.5918 12.922C28.9578 12.556 28.9578 11.9624 28.5918 11.5963L24.2843 7.289L26.0923 5.48108L30.3996 9.78809C30.4865 9.87528 30.5899 9.94443 30.7036 9.99156C30.8174 10.0387 30.9394 10.0629 31.0625 10.0627C31.3024 10.0627 31.5424 9.97114 31.7253 9.78809C32.0917 9.42204 32.0915 8.8285 31.7255 8.46245Z" fill="#FFBF00"/>
</g>
<defs>
<clipPath id="clip0_2413_2882">
<rect width="32" height="32" fill="white"/>
</clipPath>
</defs>
</svg>
