<svg width="40" height="37" viewBox="0 0 40 37" fill="none" xmlns="http://www.w3.org/2000/svg">
<path d="M27.3393 9.06264C26.2361 7.90015 25.6282 6.40723 25.6286 4.86182H20.642V23.3335C20.6036 24.3331 20.1464 25.28 19.3667 25.9746C18.5871 26.6693 17.5459 27.0575 16.4623 27.0577C14.1707 27.0577 12.2664 25.3297 12.2664 23.1846C12.2664 20.6224 14.9453 18.7007 17.7049 19.4902V14.7829C12.1373 14.0977 7.26367 18.09 7.26367 23.1846C7.26367 28.1451 11.7177 31.6756 16.4462 31.6756C21.5135 31.6756 25.6286 27.877 25.6286 23.1846V13.8146C27.6507 15.1551 30.0784 15.8743 32.5679 15.8704V11.2673C32.5679 11.2673 29.534 11.4014 27.3393 9.06264Z" fill="#0F0F0F"/>
</svg>
