<svg width="19" height="19" viewBox="0 0 19 19" fill="none" xmlns="http://www.w3.org/2000/svg">
<path d="M18.4592 11.514C18.1841 11.514 17.9611 11.7369 17.9611 12.0121V16.4347C17.9601 17.2597 17.2918 17.9282 16.4668 17.929H2.49052C1.66551 17.9282 0.997203 17.2597 0.996207 16.4347V3.45463C0.997203 2.62982 1.66556 1.96131 2.49052 1.96032H6.91318C7.18828 1.96032 7.41128 1.73732 7.41128 1.46221C7.41128 1.18726 7.18828 0.964111 6.91318 0.964111H2.49052C1.11565 0.965655 0.00154412 2.07976 0 3.45463V16.4349C0.00154412 17.8097 1.11565 18.9238 2.49052 18.9254H16.4668C17.8416 18.9238 18.9558 17.8097 18.9573 16.4349V12.0121C18.9573 11.7369 18.7343 11.514 18.4592 11.514Z" fill="#F5F5F5"/>
</svg>
