<svg width="39" height="25" viewBox="0 0 39 25" fill="none" xmlns="http://www.w3.org/2000/svg">
<path d="M15.517 17.3835L25.31 12.2761L15.517 7.16874V17.3835ZM37.3296 4.05323C37.5749 4.85339 37.7447 5.92594 37.8579 7.28791C37.99 8.64988 38.0466 9.82458 38.0466 10.8461L38.1598 12.2761C38.1598 16.0045 37.8579 18.7455 37.3296 20.499C36.8578 22.0312 35.7634 23.0187 34.0652 23.4443C33.1784 23.6656 31.5557 23.8188 29.065 23.921C26.612 24.0401 24.3666 24.0912 22.291 24.0912L19.2908 24.1934C11.3847 24.1934 6.45994 23.921 4.51644 23.4443C2.81823 23.0187 1.72383 22.0312 1.25211 20.499C1.00681 19.6989 0.836992 18.6263 0.723779 17.2643C0.591696 15.9024 0.535089 14.7277 0.535089 13.7062L0.421875 12.2761C0.421875 8.54773 0.723779 5.80677 1.25211 4.05323C1.72383 2.52101 2.81823 1.53359 4.51644 1.10797C5.40328 0.88665 7.02601 0.733428 9.51672 0.631281C11.9697 0.512108 14.2151 0.461034 16.2907 0.461034L19.2908 0.358887C27.1969 0.358887 32.1217 0.631281 34.0652 1.10797C35.7634 1.53359 36.8578 2.52101 37.3296 4.05323Z" fill="#0F0F0F"/>
</svg>
